%TF.GenerationSoftware,KiCad,Pcbnew,(5.1.6-0-10_14)*%
%TF.CreationDate,2020-09-21T09:47:25-07:00*%
%TF.ProjectId,my-keyboard,6d792d6b-6579-4626-9f61-72642e6b6963,rev?*%
%TF.SameCoordinates,Original*%
%TF.FileFunction,Soldermask,Bot*%
%TF.FilePolarity,Negative*%
%FSLAX46Y46*%
G04 Gerber Fmt 4.6, Leading zero omitted, Abs format (unit mm)*
G04 Created by KiCad (PCBNEW (5.1.6-0-10_14)) date 2020-09-21 09:47:25*
%MOMM*%
%LPD*%
G01*
G04 APERTURE LIST*
%ADD10C,2.800000*%
%ADD11C,1.600000*%
%ADD12O,2.300000X1.700000*%
%ADD13R,1.300000X1.000000*%
%ADD14C,0.100000*%
%ADD15O,1.100000X1.700000*%
%ADD16C,0.750000*%
%ADD17O,1.100000X2.200000*%
%ADD18C,1.801800*%
%ADD19C,2.386000*%
%ADD20C,4.087800*%
%ADD21C,3.100000*%
%ADD22R,2.650000X2.600000*%
G04 APERTURE END LIST*
D10*
%TO.C,REF\u002A\u002A*%
X145000000Y-71375000D03*
%TD*%
%TO.C,REF\u002A\u002A*%
X149860000Y-115824000D03*
%TD*%
%TO.C,REF\u002A\u002A*%
X50000000Y-97500000D03*
%TD*%
%TO.C,REF\u002A\u002A*%
X50000000Y-78500000D03*
%TD*%
D11*
%TO.C,J2*%
X160564000Y-105424000D03*
X167564000Y-105424000D03*
D12*
X157864000Y-107724000D03*
X157864000Y-98524000D03*
X158964000Y-103124000D03*
X165964000Y-103124000D03*
D11*
X160564000Y-100824000D03*
X167564000Y-100824000D03*
D12*
X162964000Y-103124000D03*
%TD*%
%TO.C,C9*%
G36*
G01*
X102137738Y-118755000D02*
X103094262Y-118755000D01*
G75*
G02*
X103366000Y-119026738I0J-271738D01*
G01*
X103366000Y-119733262D01*
G75*
G02*
X103094262Y-120005000I-271738J0D01*
G01*
X102137738Y-120005000D01*
G75*
G02*
X101866000Y-119733262I0J271738D01*
G01*
X101866000Y-119026738D01*
G75*
G02*
X102137738Y-118755000I271738J0D01*
G01*
G37*
G36*
G01*
X102137738Y-116705000D02*
X103094262Y-116705000D01*
G75*
G02*
X103366000Y-116976738I0J-271738D01*
G01*
X103366000Y-117683262D01*
G75*
G02*
X103094262Y-117955000I-271738J0D01*
G01*
X102137738Y-117955000D01*
G75*
G02*
X101866000Y-117683262I0J271738D01*
G01*
X101866000Y-116976738D01*
G75*
G02*
X102137738Y-116705000I271738J0D01*
G01*
G37*
%TD*%
D13*
%TO.C,D1*%
X59500000Y-74950000D03*
X59500000Y-78250000D03*
%TD*%
%TO.C,D2*%
X59500000Y-93950000D03*
X59500000Y-97250000D03*
%TD*%
%TO.C,D3*%
X59500000Y-112950000D03*
X59500000Y-116250000D03*
%TD*%
%TO.C,D4*%
X78500000Y-74950000D03*
X78500000Y-78250000D03*
%TD*%
%TO.C,D5*%
X78500000Y-93950000D03*
X78500000Y-97250000D03*
%TD*%
%TO.C,D6*%
X78500000Y-112950000D03*
X78500000Y-116250000D03*
%TD*%
%TO.C,D7*%
X97500000Y-65450000D03*
X97500000Y-68750000D03*
%TD*%
%TO.C,D8*%
X97500000Y-84450000D03*
X97500000Y-87750000D03*
%TD*%
%TO.C,D9*%
X97500000Y-103450000D03*
X97500000Y-106750000D03*
%TD*%
%TO.C,D10*%
X116500000Y-60700000D03*
X116500000Y-64000000D03*
%TD*%
%TO.C,D11*%
X116500000Y-79700000D03*
X116500000Y-83000000D03*
%TD*%
%TO.C,D12*%
X116500000Y-98700000D03*
X116500000Y-102000000D03*
%TD*%
%TO.C,D13*%
X126000000Y-122450000D03*
X126000000Y-125750000D03*
%TD*%
%TO.C,D14*%
X135500000Y-65450000D03*
X135500000Y-68750000D03*
%TD*%
%TO.C,D15*%
X135500000Y-84450000D03*
X135500000Y-87750000D03*
%TD*%
%TO.C,D16*%
X135500000Y-103450000D03*
X135500000Y-106750000D03*
%TD*%
D14*
%TO.C,D17*%
G36*
X145165493Y-128060417D02*
G01*
X143909790Y-127723953D01*
X144168609Y-126758027D01*
X145424312Y-127094491D01*
X145165493Y-128060417D01*
G37*
G36*
X144311391Y-131247973D02*
G01*
X143055688Y-130911509D01*
X143314507Y-129945583D01*
X144570210Y-130282047D01*
X144311391Y-131247973D01*
G37*
%TD*%
D13*
%TO.C,D18*%
X154500000Y-67825000D03*
X154500000Y-71125000D03*
%TD*%
%TO.C,D19*%
X154500000Y-86825000D03*
X154500000Y-90125000D03*
%TD*%
%TO.C,D20*%
X154500000Y-105825000D03*
X154500000Y-109125000D03*
%TD*%
D14*
%TO.C,D21*%
G36*
X164102917Y-133675071D02*
G01*
X162977083Y-133025071D01*
X163477083Y-132159045D01*
X164602917Y-132809045D01*
X164102917Y-133675071D01*
G37*
G36*
X162452917Y-136532955D02*
G01*
X161327083Y-135882955D01*
X161827083Y-135016929D01*
X162952917Y-135666929D01*
X162452917Y-136532955D01*
G37*
%TD*%
D15*
%TO.C,J1*%
X159510000Y-77944000D03*
D16*
X160940000Y-81594000D03*
D15*
X168150000Y-77944000D03*
D16*
X166720000Y-81594000D03*
D17*
X168150000Y-82124000D03*
X159510000Y-82124000D03*
%TD*%
D18*
%TO.C,K1*%
X44920000Y-69000000D03*
X55080000Y-69000000D03*
D19*
X46190000Y-66460000D03*
D20*
X50000000Y-69000000D03*
D19*
X52540000Y-63920000D03*
D21*
X53810000Y-71540000D03*
X47460000Y-74080000D03*
D19*
X46190000Y-71540000D03*
X52540000Y-74080000D03*
D21*
X53810000Y-66460000D03*
X47460000Y-63920000D03*
D22*
X57560000Y-71540000D03*
X43710000Y-74080000D03*
%TD*%
D18*
%TO.C,K2*%
X44920000Y-88000000D03*
X55080000Y-88000000D03*
D19*
X46190000Y-85460000D03*
D20*
X50000000Y-88000000D03*
D19*
X52540000Y-82920000D03*
D21*
X53810000Y-90540000D03*
X47460000Y-93080000D03*
D19*
X46190000Y-90540000D03*
X52540000Y-93080000D03*
D21*
X53810000Y-85460000D03*
X47460000Y-82920000D03*
D22*
X57560000Y-90540000D03*
X43710000Y-93080000D03*
%TD*%
D18*
%TO.C,K3*%
X44920000Y-107000000D03*
X55080000Y-107000000D03*
D19*
X46190000Y-104460000D03*
D20*
X50000000Y-107000000D03*
D19*
X52540000Y-101920000D03*
D21*
X53810000Y-109540000D03*
X47460000Y-112080000D03*
D19*
X46190000Y-109540000D03*
X52540000Y-112080000D03*
D21*
X53810000Y-104460000D03*
X47460000Y-101920000D03*
D22*
X57560000Y-109540000D03*
X43710000Y-112080000D03*
%TD*%
D18*
%TO.C,K4*%
X63920000Y-69000000D03*
X74080000Y-69000000D03*
D19*
X65190000Y-66460000D03*
D20*
X69000000Y-69000000D03*
D19*
X71540000Y-63920000D03*
D21*
X72810000Y-71540000D03*
X66460000Y-74080000D03*
D19*
X65190000Y-71540000D03*
X71540000Y-74080000D03*
D21*
X72810000Y-66460000D03*
X66460000Y-63920000D03*
D22*
X76560000Y-71540000D03*
X62710000Y-74080000D03*
%TD*%
D18*
%TO.C,K5*%
X63920000Y-88000000D03*
X74080000Y-88000000D03*
D19*
X65190000Y-85460000D03*
D20*
X69000000Y-88000000D03*
D19*
X71540000Y-82920000D03*
D21*
X72810000Y-90540000D03*
X66460000Y-93080000D03*
D19*
X65190000Y-90540000D03*
X71540000Y-93080000D03*
D21*
X72810000Y-85460000D03*
X66460000Y-82920000D03*
D22*
X76560000Y-90540000D03*
X62710000Y-93080000D03*
%TD*%
D18*
%TO.C,K6*%
X63920000Y-107000000D03*
X74080000Y-107000000D03*
D19*
X65190000Y-104460000D03*
D20*
X69000000Y-107000000D03*
D19*
X71540000Y-101920000D03*
D21*
X72810000Y-109540000D03*
X66460000Y-112080000D03*
D19*
X65190000Y-109540000D03*
X71540000Y-112080000D03*
D21*
X72810000Y-104460000D03*
X66460000Y-101920000D03*
D22*
X76560000Y-109540000D03*
X62710000Y-112080000D03*
%TD*%
D18*
%TO.C,K7*%
X82920000Y-59500000D03*
X93080000Y-59500000D03*
D19*
X84190000Y-56960000D03*
D20*
X88000000Y-59500000D03*
D19*
X90540000Y-54420000D03*
D21*
X91810000Y-62040000D03*
X85460000Y-64580000D03*
D19*
X84190000Y-62040000D03*
X90540000Y-64580000D03*
D21*
X91810000Y-56960000D03*
X85460000Y-54420000D03*
D22*
X95560000Y-62040000D03*
X81710000Y-64580000D03*
%TD*%
D18*
%TO.C,K8*%
X82920000Y-78500000D03*
X93080000Y-78500000D03*
D19*
X84190000Y-75960000D03*
D20*
X88000000Y-78500000D03*
D19*
X90540000Y-73420000D03*
D21*
X91810000Y-81040000D03*
X85460000Y-83580000D03*
D19*
X84190000Y-81040000D03*
X90540000Y-83580000D03*
D21*
X91810000Y-75960000D03*
X85460000Y-73420000D03*
D22*
X95560000Y-81040000D03*
X81710000Y-83580000D03*
%TD*%
D18*
%TO.C,K9*%
X82920000Y-97500000D03*
X93080000Y-97500000D03*
D19*
X84190000Y-94960000D03*
D20*
X88000000Y-97500000D03*
D19*
X90540000Y-92420000D03*
D21*
X91810000Y-100040000D03*
X85460000Y-102580000D03*
D19*
X84190000Y-100040000D03*
X90540000Y-102580000D03*
D21*
X91810000Y-94960000D03*
X85460000Y-92420000D03*
D22*
X95560000Y-100040000D03*
X81710000Y-102580000D03*
%TD*%
D18*
%TO.C,K10*%
X101920000Y-54750000D03*
X112080000Y-54750000D03*
D19*
X103190000Y-52210000D03*
D20*
X107000000Y-54750000D03*
D19*
X109540000Y-49670000D03*
D21*
X110810000Y-57290000D03*
X104460000Y-59830000D03*
D19*
X103190000Y-57290000D03*
X109540000Y-59830000D03*
D21*
X110810000Y-52210000D03*
X104460000Y-49670000D03*
D22*
X114560000Y-57290000D03*
X100710000Y-59830000D03*
%TD*%
D18*
%TO.C,K11*%
X101920000Y-73750000D03*
X112080000Y-73750000D03*
D19*
X103190000Y-71210000D03*
D20*
X107000000Y-73750000D03*
D19*
X109540000Y-68670000D03*
D21*
X110810000Y-76290000D03*
X104460000Y-78830000D03*
D19*
X103190000Y-76290000D03*
X109540000Y-78830000D03*
D21*
X110810000Y-71210000D03*
X104460000Y-68670000D03*
D22*
X114560000Y-76290000D03*
X100710000Y-78830000D03*
%TD*%
D18*
%TO.C,K12*%
X101920000Y-92750000D03*
X112080000Y-92750000D03*
D19*
X103190000Y-90210000D03*
D20*
X107000000Y-92750000D03*
D19*
X109540000Y-87670000D03*
D21*
X110810000Y-95290000D03*
X104460000Y-97830000D03*
D19*
X103190000Y-95290000D03*
X109540000Y-97830000D03*
D21*
X110810000Y-90210000D03*
X104460000Y-87670000D03*
D22*
X114560000Y-95290000D03*
X100710000Y-97830000D03*
%TD*%
D18*
%TO.C,K13*%
X111420000Y-116500000D03*
X121580000Y-116500000D03*
D19*
X112690000Y-113960000D03*
D20*
X116500000Y-116500000D03*
D19*
X119040000Y-111420000D03*
D21*
X120310000Y-119040000D03*
X113960000Y-121580000D03*
D19*
X112690000Y-119040000D03*
X119040000Y-121580000D03*
D21*
X120310000Y-113960000D03*
X113960000Y-111420000D03*
D22*
X124060000Y-119040000D03*
X110210000Y-121580000D03*
%TD*%
D18*
%TO.C,K14*%
X120920000Y-59500000D03*
X131080000Y-59500000D03*
D19*
X122190000Y-56960000D03*
D20*
X126000000Y-59500000D03*
D19*
X128540000Y-54420000D03*
D21*
X129810000Y-62040000D03*
X123460000Y-64580000D03*
D19*
X122190000Y-62040000D03*
X128540000Y-64580000D03*
D21*
X129810000Y-56960000D03*
X123460000Y-54420000D03*
D22*
X133560000Y-62040000D03*
X119710000Y-64580000D03*
%TD*%
D18*
%TO.C,K15*%
X120920000Y-78500000D03*
X131080000Y-78500000D03*
D19*
X122190000Y-75960000D03*
D20*
X126000000Y-78500000D03*
D19*
X128540000Y-73420000D03*
D21*
X129810000Y-81040000D03*
X123460000Y-83580000D03*
D19*
X122190000Y-81040000D03*
X128540000Y-83580000D03*
D21*
X129810000Y-75960000D03*
X123460000Y-73420000D03*
D22*
X133560000Y-81040000D03*
X119710000Y-83580000D03*
%TD*%
D18*
%TO.C,K16*%
X120920000Y-97500000D03*
X131080000Y-97500000D03*
D19*
X122190000Y-94960000D03*
D20*
X126000000Y-97500000D03*
D19*
X128540000Y-92420000D03*
D21*
X129810000Y-100040000D03*
X123460000Y-102580000D03*
D19*
X122190000Y-100040000D03*
X128540000Y-102580000D03*
D21*
X129810000Y-94960000D03*
X123460000Y-92420000D03*
D22*
X133560000Y-100040000D03*
X119710000Y-102580000D03*
%TD*%
D18*
%TO.C,K17*%
X132124097Y-117888199D03*
X141937903Y-120517801D03*
D19*
X134008223Y-115763448D03*
D20*
X137031000Y-119203000D03*
D19*
X140799252Y-114953497D03*
D21*
X140053777Y-122642552D03*
X133262748Y-123452503D03*
D19*
X132693422Y-120670351D03*
X138169651Y-124767304D03*
D21*
X141368578Y-117735649D03*
X135892349Y-113638696D03*
D14*
G36*
X142059683Y-124525892D02*
G01*
X142732612Y-122014485D01*
X145292315Y-122700356D01*
X144619386Y-125211763D01*
X142059683Y-124525892D01*
G37*
G36*
X128024210Y-123394699D02*
G01*
X128697139Y-120883292D01*
X131256842Y-121569163D01*
X130583913Y-124080570D01*
X128024210Y-123394699D01*
G37*
%TD*%
D18*
%TO.C,K18*%
X139920000Y-61875000D03*
X150080000Y-61875000D03*
D19*
X141190000Y-59335000D03*
D20*
X145000000Y-61875000D03*
D19*
X147540000Y-56795000D03*
D21*
X148810000Y-64415000D03*
X142460000Y-66955000D03*
D19*
X141190000Y-64415000D03*
X147540000Y-66955000D03*
D21*
X148810000Y-59335000D03*
X142460000Y-56795000D03*
D22*
X152560000Y-64415000D03*
X138710000Y-66955000D03*
%TD*%
D18*
%TO.C,K19*%
X139920000Y-80875000D03*
X150080000Y-80875000D03*
D19*
X141190000Y-78335000D03*
D20*
X145000000Y-80875000D03*
D19*
X147540000Y-75795000D03*
D21*
X148810000Y-83415000D03*
X142460000Y-85955000D03*
D19*
X141190000Y-83415000D03*
X147540000Y-85955000D03*
D21*
X148810000Y-78335000D03*
X142460000Y-75795000D03*
D22*
X152560000Y-83415000D03*
X138710000Y-85955000D03*
%TD*%
D18*
%TO.C,K20*%
X139920000Y-99875000D03*
X150080000Y-99875000D03*
D19*
X141190000Y-97335000D03*
D20*
X145000000Y-99875000D03*
D19*
X147540000Y-94795000D03*
D21*
X148810000Y-102415000D03*
X142460000Y-104955000D03*
D19*
X141190000Y-102415000D03*
X147540000Y-104955000D03*
D21*
X148810000Y-97335000D03*
X142460000Y-94795000D03*
D22*
X152560000Y-102415000D03*
X138710000Y-104955000D03*
%TD*%
D18*
%TO.C,K21*%
X154138591Y-120474000D03*
X162937409Y-125554000D03*
D19*
X156508443Y-118909295D03*
D20*
X158538000Y-123014000D03*
D19*
X163277705Y-119884591D03*
D21*
X160567557Y-127118705D03*
X153798295Y-126143409D03*
D19*
X153968443Y-123308705D03*
X158197705Y-128683409D03*
D21*
X163107557Y-122719295D03*
X158878295Y-117344591D03*
D14*
G36*
X162017668Y-129457038D02*
G01*
X163317668Y-127205372D01*
X165612636Y-128530372D01*
X164312636Y-130782038D01*
X162017668Y-129457038D01*
G37*
G36*
X148753216Y-124731742D02*
G01*
X150053216Y-122480076D01*
X152348184Y-123805076D01*
X151048184Y-126056742D01*
X148753216Y-124731742D01*
G37*
%TD*%
%TO.C,U2*%
G36*
G01*
X98595000Y-120032000D02*
X98595000Y-119782000D01*
G75*
G02*
X98720000Y-119657000I125000J0D01*
G01*
X100045000Y-119657000D01*
G75*
G02*
X100170000Y-119782000I0J-125000D01*
G01*
X100170000Y-120032000D01*
G75*
G02*
X100045000Y-120157000I-125000J0D01*
G01*
X98720000Y-120157000D01*
G75*
G02*
X98595000Y-120032000I0J125000D01*
G01*
G37*
G36*
G01*
X98595000Y-119382000D02*
X98595000Y-119132000D01*
G75*
G02*
X98720000Y-119007000I125000J0D01*
G01*
X100045000Y-119007000D01*
G75*
G02*
X100170000Y-119132000I0J-125000D01*
G01*
X100170000Y-119382000D01*
G75*
G02*
X100045000Y-119507000I-125000J0D01*
G01*
X98720000Y-119507000D01*
G75*
G02*
X98595000Y-119382000I0J125000D01*
G01*
G37*
G36*
G01*
X98595000Y-118732000D02*
X98595000Y-118482000D01*
G75*
G02*
X98720000Y-118357000I125000J0D01*
G01*
X100045000Y-118357000D01*
G75*
G02*
X100170000Y-118482000I0J-125000D01*
G01*
X100170000Y-118732000D01*
G75*
G02*
X100045000Y-118857000I-125000J0D01*
G01*
X98720000Y-118857000D01*
G75*
G02*
X98595000Y-118732000I0J125000D01*
G01*
G37*
G36*
G01*
X98595000Y-118082000D02*
X98595000Y-117832000D01*
G75*
G02*
X98720000Y-117707000I125000J0D01*
G01*
X100045000Y-117707000D01*
G75*
G02*
X100170000Y-117832000I0J-125000D01*
G01*
X100170000Y-118082000D01*
G75*
G02*
X100045000Y-118207000I-125000J0D01*
G01*
X98720000Y-118207000D01*
G75*
G02*
X98595000Y-118082000I0J125000D01*
G01*
G37*
G36*
G01*
X98595000Y-117432000D02*
X98595000Y-117182000D01*
G75*
G02*
X98720000Y-117057000I125000J0D01*
G01*
X100045000Y-117057000D01*
G75*
G02*
X100170000Y-117182000I0J-125000D01*
G01*
X100170000Y-117432000D01*
G75*
G02*
X100045000Y-117557000I-125000J0D01*
G01*
X98720000Y-117557000D01*
G75*
G02*
X98595000Y-117432000I0J125000D01*
G01*
G37*
G36*
G01*
X98595000Y-116782000D02*
X98595000Y-116532000D01*
G75*
G02*
X98720000Y-116407000I125000J0D01*
G01*
X100045000Y-116407000D01*
G75*
G02*
X100170000Y-116532000I0J-125000D01*
G01*
X100170000Y-116782000D01*
G75*
G02*
X100045000Y-116907000I-125000J0D01*
G01*
X98720000Y-116907000D01*
G75*
G02*
X98595000Y-116782000I0J125000D01*
G01*
G37*
G36*
G01*
X98595000Y-116132000D02*
X98595000Y-115882000D01*
G75*
G02*
X98720000Y-115757000I125000J0D01*
G01*
X100045000Y-115757000D01*
G75*
G02*
X100170000Y-115882000I0J-125000D01*
G01*
X100170000Y-116132000D01*
G75*
G02*
X100045000Y-116257000I-125000J0D01*
G01*
X98720000Y-116257000D01*
G75*
G02*
X98595000Y-116132000I0J125000D01*
G01*
G37*
G36*
G01*
X98595000Y-115482000D02*
X98595000Y-115232000D01*
G75*
G02*
X98720000Y-115107000I125000J0D01*
G01*
X100045000Y-115107000D01*
G75*
G02*
X100170000Y-115232000I0J-125000D01*
G01*
X100170000Y-115482000D01*
G75*
G02*
X100045000Y-115607000I-125000J0D01*
G01*
X98720000Y-115607000D01*
G75*
G02*
X98595000Y-115482000I0J125000D01*
G01*
G37*
G36*
G01*
X98595000Y-114832000D02*
X98595000Y-114582000D01*
G75*
G02*
X98720000Y-114457000I125000J0D01*
G01*
X100045000Y-114457000D01*
G75*
G02*
X100170000Y-114582000I0J-125000D01*
G01*
X100170000Y-114832000D01*
G75*
G02*
X100045000Y-114957000I-125000J0D01*
G01*
X98720000Y-114957000D01*
G75*
G02*
X98595000Y-114832000I0J125000D01*
G01*
G37*
G36*
G01*
X98595000Y-114182000D02*
X98595000Y-113932000D01*
G75*
G02*
X98720000Y-113807000I125000J0D01*
G01*
X100045000Y-113807000D01*
G75*
G02*
X100170000Y-113932000I0J-125000D01*
G01*
X100170000Y-114182000D01*
G75*
G02*
X100045000Y-114307000I-125000J0D01*
G01*
X98720000Y-114307000D01*
G75*
G02*
X98595000Y-114182000I0J125000D01*
G01*
G37*
G36*
G01*
X98595000Y-113532000D02*
X98595000Y-113282000D01*
G75*
G02*
X98720000Y-113157000I125000J0D01*
G01*
X100045000Y-113157000D01*
G75*
G02*
X100170000Y-113282000I0J-125000D01*
G01*
X100170000Y-113532000D01*
G75*
G02*
X100045000Y-113657000I-125000J0D01*
G01*
X98720000Y-113657000D01*
G75*
G02*
X98595000Y-113532000I0J125000D01*
G01*
G37*
G36*
G01*
X98595000Y-112882000D02*
X98595000Y-112632000D01*
G75*
G02*
X98720000Y-112507000I125000J0D01*
G01*
X100045000Y-112507000D01*
G75*
G02*
X100170000Y-112632000I0J-125000D01*
G01*
X100170000Y-112882000D01*
G75*
G02*
X100045000Y-113007000I-125000J0D01*
G01*
X98720000Y-113007000D01*
G75*
G02*
X98595000Y-112882000I0J125000D01*
G01*
G37*
G36*
G01*
X92870000Y-112882000D02*
X92870000Y-112632000D01*
G75*
G02*
X92995000Y-112507000I125000J0D01*
G01*
X94320000Y-112507000D01*
G75*
G02*
X94445000Y-112632000I0J-125000D01*
G01*
X94445000Y-112882000D01*
G75*
G02*
X94320000Y-113007000I-125000J0D01*
G01*
X92995000Y-113007000D01*
G75*
G02*
X92870000Y-112882000I0J125000D01*
G01*
G37*
G36*
G01*
X92870000Y-113532000D02*
X92870000Y-113282000D01*
G75*
G02*
X92995000Y-113157000I125000J0D01*
G01*
X94320000Y-113157000D01*
G75*
G02*
X94445000Y-113282000I0J-125000D01*
G01*
X94445000Y-113532000D01*
G75*
G02*
X94320000Y-113657000I-125000J0D01*
G01*
X92995000Y-113657000D01*
G75*
G02*
X92870000Y-113532000I0J125000D01*
G01*
G37*
G36*
G01*
X92870000Y-114182000D02*
X92870000Y-113932000D01*
G75*
G02*
X92995000Y-113807000I125000J0D01*
G01*
X94320000Y-113807000D01*
G75*
G02*
X94445000Y-113932000I0J-125000D01*
G01*
X94445000Y-114182000D01*
G75*
G02*
X94320000Y-114307000I-125000J0D01*
G01*
X92995000Y-114307000D01*
G75*
G02*
X92870000Y-114182000I0J125000D01*
G01*
G37*
G36*
G01*
X92870000Y-114832000D02*
X92870000Y-114582000D01*
G75*
G02*
X92995000Y-114457000I125000J0D01*
G01*
X94320000Y-114457000D01*
G75*
G02*
X94445000Y-114582000I0J-125000D01*
G01*
X94445000Y-114832000D01*
G75*
G02*
X94320000Y-114957000I-125000J0D01*
G01*
X92995000Y-114957000D01*
G75*
G02*
X92870000Y-114832000I0J125000D01*
G01*
G37*
G36*
G01*
X92870000Y-115482000D02*
X92870000Y-115232000D01*
G75*
G02*
X92995000Y-115107000I125000J0D01*
G01*
X94320000Y-115107000D01*
G75*
G02*
X94445000Y-115232000I0J-125000D01*
G01*
X94445000Y-115482000D01*
G75*
G02*
X94320000Y-115607000I-125000J0D01*
G01*
X92995000Y-115607000D01*
G75*
G02*
X92870000Y-115482000I0J125000D01*
G01*
G37*
G36*
G01*
X92870000Y-116132000D02*
X92870000Y-115882000D01*
G75*
G02*
X92995000Y-115757000I125000J0D01*
G01*
X94320000Y-115757000D01*
G75*
G02*
X94445000Y-115882000I0J-125000D01*
G01*
X94445000Y-116132000D01*
G75*
G02*
X94320000Y-116257000I-125000J0D01*
G01*
X92995000Y-116257000D01*
G75*
G02*
X92870000Y-116132000I0J125000D01*
G01*
G37*
G36*
G01*
X92870000Y-116782000D02*
X92870000Y-116532000D01*
G75*
G02*
X92995000Y-116407000I125000J0D01*
G01*
X94320000Y-116407000D01*
G75*
G02*
X94445000Y-116532000I0J-125000D01*
G01*
X94445000Y-116782000D01*
G75*
G02*
X94320000Y-116907000I-125000J0D01*
G01*
X92995000Y-116907000D01*
G75*
G02*
X92870000Y-116782000I0J125000D01*
G01*
G37*
G36*
G01*
X92870000Y-117432000D02*
X92870000Y-117182000D01*
G75*
G02*
X92995000Y-117057000I125000J0D01*
G01*
X94320000Y-117057000D01*
G75*
G02*
X94445000Y-117182000I0J-125000D01*
G01*
X94445000Y-117432000D01*
G75*
G02*
X94320000Y-117557000I-125000J0D01*
G01*
X92995000Y-117557000D01*
G75*
G02*
X92870000Y-117432000I0J125000D01*
G01*
G37*
G36*
G01*
X92870000Y-118082000D02*
X92870000Y-117832000D01*
G75*
G02*
X92995000Y-117707000I125000J0D01*
G01*
X94320000Y-117707000D01*
G75*
G02*
X94445000Y-117832000I0J-125000D01*
G01*
X94445000Y-118082000D01*
G75*
G02*
X94320000Y-118207000I-125000J0D01*
G01*
X92995000Y-118207000D01*
G75*
G02*
X92870000Y-118082000I0J125000D01*
G01*
G37*
G36*
G01*
X92870000Y-118732000D02*
X92870000Y-118482000D01*
G75*
G02*
X92995000Y-118357000I125000J0D01*
G01*
X94320000Y-118357000D01*
G75*
G02*
X94445000Y-118482000I0J-125000D01*
G01*
X94445000Y-118732000D01*
G75*
G02*
X94320000Y-118857000I-125000J0D01*
G01*
X92995000Y-118857000D01*
G75*
G02*
X92870000Y-118732000I0J125000D01*
G01*
G37*
G36*
G01*
X92870000Y-119382000D02*
X92870000Y-119132000D01*
G75*
G02*
X92995000Y-119007000I125000J0D01*
G01*
X94320000Y-119007000D01*
G75*
G02*
X94445000Y-119132000I0J-125000D01*
G01*
X94445000Y-119382000D01*
G75*
G02*
X94320000Y-119507000I-125000J0D01*
G01*
X92995000Y-119507000D01*
G75*
G02*
X92870000Y-119382000I0J125000D01*
G01*
G37*
G36*
G01*
X92870000Y-120032000D02*
X92870000Y-119782000D01*
G75*
G02*
X92995000Y-119657000I125000J0D01*
G01*
X94320000Y-119657000D01*
G75*
G02*
X94445000Y-119782000I0J-125000D01*
G01*
X94445000Y-120032000D01*
G75*
G02*
X94320000Y-120157000I-125000J0D01*
G01*
X92995000Y-120157000D01*
G75*
G02*
X92870000Y-120032000I0J125000D01*
G01*
G37*
%TD*%
M02*
