M48
; DRILL file {KiCad (5.1.6-0-10_14)} date Sunday, September 20, 2020 at 07:37:42 PM
; FORMAT={-:-/ absolute / inch / decimal}
; #@! TF.CreationDate,2020-09-20T19:37:42-07:00
; #@! TF.GenerationSoftware,Kicad,Pcbnew,(5.1.6-0-10_14)
; #@! TF.FileFunction,NonPlated,1,2,NPTH
FMAT,2
INCH
T1C0.0256
T2C0.0591
T3C0.0670
T4C0.1063
T5C0.1181
T6C0.1570
%
G90
G05
T1
X6.3362Y-3.2124
X6.5638Y-3.2124
T2
X6.3214Y-3.9694
X6.3214Y-4.1506
X6.597Y-3.9694
X6.597Y-4.1506
T3
X3.2646Y-3.8386
X3.6646Y-3.8386
X5.5087Y-3.1841
X5.9087Y-3.1841
X2.5165Y-4.2126
X2.9165Y-4.2126
X6.0684Y-4.7431
X6.4149Y-4.9431
X4.0126Y-2.1555
X4.4126Y-2.1555
X5.5087Y-3.9321
X5.9087Y-3.9321
X4.0126Y-3.6516
X4.4126Y-3.6516
X4.7606Y-3.0906
X5.1606Y-3.0906
X1.7685Y-4.2126
X2.1685Y-4.2126
X1.7685Y-2.7165
X2.1685Y-2.7165
X5.2017Y-4.6413
X5.5881Y-4.7448
X4.3866Y-4.5866
X4.7866Y-4.5866
X3.2646Y-3.0906
X3.6646Y-3.0906
X3.2646Y-2.3425
X3.6646Y-2.3425
X2.5165Y-3.4646
X2.9165Y-3.4646
X2.5165Y-2.7165
X2.9165Y-2.7165
X5.5087Y-2.436
X5.9087Y-2.436
X4.7606Y-2.3425
X5.1606Y-2.3425
X4.7606Y-3.8386
X5.1606Y-3.8386
X4.0126Y-2.9035
X4.4126Y-2.9035
X1.7685Y-3.4646
X2.1685Y-3.4646
T4
X5.9Y-4.56
X5.7087Y-2.81
X1.9685Y-3.0906
X1.9685Y-3.8386
T5
X5.6087Y-2.236
X5.6087Y-2.636
X5.8587Y-2.336
X5.8587Y-2.536
X4.8606Y-2.1425
X4.8606Y-2.5425
X5.1106Y-2.2425
X5.1106Y-2.4425
X4.8606Y-3.6386
X4.8606Y-4.0386
X5.1106Y-3.7386
X5.1106Y-3.9386
X4.1126Y-2.7035
X4.1126Y-3.1035
X4.3626Y-2.8035
X4.3626Y-3.0035
X1.8685Y-3.2646
X1.8685Y-3.6646
X2.1185Y-3.3646
X2.1185Y-3.5646
X3.3646Y-3.6386
X3.3646Y-4.0386
X3.6146Y-3.7386
X3.6146Y-3.9386
X5.6087Y-2.9841
X5.6087Y-3.3841
X5.8587Y-3.0841
X5.8587Y-3.2841
X2.6165Y-4.0126
X2.6165Y-4.4126
X2.8665Y-4.1126
X2.8665Y-4.3126
X6.0551Y-4.9663
X6.2551Y-4.6199
X6.3216Y-5.0047
X6.4216Y-4.8315
X4.1126Y-1.9555
X4.1126Y-2.3555
X4.3626Y-2.0555
X4.3626Y-2.2555
X5.6087Y-3.7321
X5.6087Y-4.1321
X5.8587Y-3.8321
X5.8587Y-4.0321
X4.1126Y-3.4516
X4.1126Y-3.8516
X4.3626Y-3.5516
X4.3626Y-3.7516
X4.8606Y-2.8906
X4.8606Y-3.2906
X5.1106Y-2.9906
X5.1106Y-3.1906
X1.8685Y-4.0126
X1.8685Y-4.4126
X2.1185Y-4.1126
X2.1185Y-4.3126
X1.8685Y-2.5165
X1.8685Y-2.9165
X2.1185Y-2.6165
X2.1185Y-2.8165
X5.2466Y-4.8603
X5.3501Y-4.474
X5.5139Y-4.8284
X5.5657Y-4.6353
X4.4866Y-4.3866
X4.4866Y-4.7866
X4.7366Y-4.4866
X4.7366Y-4.6866
X3.3646Y-2.8906
X3.3646Y-3.2906
X3.6146Y-2.9906
X3.6146Y-3.1906
X3.3646Y-2.1425
X3.3646Y-2.5425
X3.6146Y-2.2425
X3.6146Y-2.4425
X2.6165Y-3.2646
X2.6165Y-3.6646
X2.8665Y-3.3646
X2.8665Y-3.5646
X2.6165Y-2.5165
X2.6165Y-2.9165
X2.8665Y-2.6165
X2.8665Y-2.8165
T6
X2.7165Y-3.4646
X2.7165Y-2.7165
X5.7087Y-2.436
X1.9685Y-3.4646
X5.7087Y-3.1841
X2.7165Y-4.2126
X1.9685Y-4.2126
X3.4646Y-2.3425
X4.9606Y-3.8386
X5.7087Y-3.9321
X4.9606Y-3.0906
X4.5866Y-4.5866
X3.4646Y-3.0906
X4.9606Y-2.3425
X3.4646Y-3.8386
X6.2417Y-4.8431
X4.2126Y-2.1555
X4.2126Y-3.6516
X1.9685Y-2.7165
X5.3949Y-4.693
X4.2126Y-2.9035
T0
M30
