%FSLAX45Y45*%
G04 Gerber Fmt 4.5, Leading zero omitted, Abs format (unit mm)*
G04 Created by KiCad (PCBNEW (5.1.6-0-10_14)) date 2020-09-20 19:37:47*
%MOMM*%
%LPD*%
G01*
G04 APERTURE LIST*
%TA.AperFunction,Profile*%
%ADD10C,0.050000*%
%TD*%
%ADD11C,0.200000*%
%ADD12C,0.300000*%
G04 APERTURE END LIST*
D10*
X12293600Y-4973156D02*
X13258800Y-4978400D01*
X11176000Y-4483100D02*
X10265874Y-4479993D01*
X12293600Y-4973156D02*
G75*
G02*
X12094252Y-4926816I0J451956D01*
G01*
X15621000Y-5664200D02*
X15621000Y-7340600D01*
X14376400Y-5201948D02*
X15163800Y-5207000D01*
X14376400Y-5201948D02*
G75*
G02*
X13716000Y-5080000I0J1849148D01*
G01*
X13606116Y-5036521D02*
X13716000Y-5080000D01*
X13606116Y-5036521D02*
G75*
G03*
X13258800Y-4978400I-347316J-1008679D01*
G01*
X12094252Y-4926816D02*
X11637473Y-4625907D01*
X11176000Y-4483100D02*
G75*
G02*
X11637473Y-4625907I4274J-803207D01*
G01*
X8255000Y-4978400D02*
X8331200Y-4978400D01*
X7340600Y-5918200D02*
X4572000Y-5918200D01*
X16840200Y-7543800D02*
X15824200Y-7543800D01*
X16916400Y-7772400D02*
X16916400Y-7620000D01*
X16840200Y-7543800D02*
G75*
G02*
X16916400Y-7620000I0J-76200D01*
G01*
X15824200Y-7543800D02*
G75*
G02*
X15621000Y-7340600I0J203200D01*
G01*
X15621000Y-5664200D02*
G75*
G03*
X15163800Y-5207000I-457200J0D01*
G01*
X8331200Y-4978400D02*
X9144000Y-4978400D01*
X10265874Y-4479993D02*
G75*
G03*
X9804400Y-4622800I-4274J-803207D01*
G01*
X9347621Y-4923709D02*
X9804400Y-4622800D01*
X9347621Y-4923709D02*
G75*
G02*
X9144000Y-4978400I-203621J351709D01*
G01*
X7797800Y-5461000D02*
X7797800Y-5435600D01*
X8255000Y-4978400D02*
G75*
G03*
X7797800Y-5435600I0J-457200D01*
G01*
X7340600Y-5918200D02*
G75*
G03*
X7797800Y-5461000I0J457200D01*
G01*
X4114800Y-11328400D02*
X4114800Y-6375400D01*
X7213740Y-11788270D02*
X4572000Y-11785600D01*
X4572000Y-5918200D02*
G75*
G03*
X4114800Y-6375400I0J-457200D01*
G01*
X4114800Y-11328400D02*
G75*
G03*
X4572000Y-11785600I457200J0D01*
G01*
X8950779Y-12530164D02*
X7569200Y-11836400D01*
X8950779Y-12530164D02*
G75*
G03*
X9144000Y-12573000I193221J414364D01*
G01*
X11836400Y-12573385D02*
X9144000Y-12573000D01*
X11836400Y-12573385D02*
G75*
G02*
X12039600Y-12598400I0J-837815D01*
G01*
X16247053Y-13735777D02*
X12039600Y-12598400D01*
X7213740Y-11788270D02*
G75*
G02*
X7569200Y-11836400I50660J-962530D01*
G01*
X16247053Y-13735777D02*
G75*
G03*
X16470031Y-13676031I59747J222977D01*
G01*
X16470031Y-13676031D02*
G75*
G03*
X16916400Y-12598400I-1077631J1077631D01*
G01*
X16916400Y-7772400D02*
X16916400Y-12598400D01*
D11*
X4234500Y-7727000D02*
X4274500Y-7767000D01*
X4274500Y-7727000D02*
X4234500Y-7767000D01*
X4298000Y-10521000D02*
X4338000Y-10561000D01*
X4338000Y-10521000D02*
X4298000Y-10561000D01*
X5568000Y-11537000D02*
X5608000Y-11577000D01*
X5608000Y-11537000D02*
X5568000Y-11577000D01*
X5822000Y-10140000D02*
X5862000Y-10180000D01*
X5862000Y-10140000D02*
X5822000Y-10180000D01*
X6104600Y-9705000D02*
X6144600Y-9745000D01*
X6144600Y-9705000D02*
X6104600Y-9745000D01*
X6125000Y-7805000D02*
X6165000Y-7845000D01*
X6165000Y-7805000D02*
X6125000Y-7845000D01*
X6135000Y-11605000D02*
X6175000Y-11645000D01*
X6175000Y-11605000D02*
X6135000Y-11645000D01*
X7815900Y-9962200D02*
X7855900Y-10002200D01*
X7855900Y-9962200D02*
X7815900Y-10002200D01*
X7854000Y-6076000D02*
X7894000Y-6116000D01*
X7894000Y-6076000D02*
X7854000Y-6116000D01*
X7854000Y-10546400D02*
X7894000Y-10586400D01*
X7894000Y-10546400D02*
X7854000Y-10586400D01*
X7922700Y-7712300D02*
X7962700Y-7752300D01*
X7962700Y-7712300D02*
X7922700Y-7752300D01*
X7922700Y-11512300D02*
X7962700Y-11552300D01*
X7962700Y-11512300D02*
X7922700Y-11552300D01*
X7929300Y-9605700D02*
X7969300Y-9645700D01*
X7969300Y-9605700D02*
X7929300Y-9645700D01*
X7955600Y-10495600D02*
X7995600Y-10535600D01*
X7995600Y-10495600D02*
X7955600Y-10535600D01*
X7981000Y-11791000D02*
X8021000Y-11831000D01*
X8021000Y-11791000D02*
X7981000Y-11831000D01*
X8057200Y-11206800D02*
X8097200Y-11246800D01*
X8097200Y-11206800D02*
X8057200Y-11246800D01*
X8514400Y-11206800D02*
X8554400Y-11246800D01*
X8554400Y-11206800D02*
X8514400Y-11246800D01*
X8819200Y-11816400D02*
X8859200Y-11856400D01*
X8859200Y-11816400D02*
X8819200Y-11856400D01*
X8870000Y-12273600D02*
X8910000Y-12313600D01*
X8910000Y-12273600D02*
X8870000Y-12313600D01*
X8920800Y-11968800D02*
X8960800Y-12008800D01*
X8960800Y-11968800D02*
X8920800Y-12008800D01*
X8971600Y-10698800D02*
X9011600Y-10738800D01*
X9011600Y-10698800D02*
X8971600Y-10738800D01*
X8971600Y-10800400D02*
X9011600Y-10840400D01*
X9011600Y-10800400D02*
X8971600Y-10840400D01*
X8971600Y-10902000D02*
X9011600Y-10942000D01*
X9011600Y-10902000D02*
X8971600Y-10942000D01*
X8971600Y-11054400D02*
X9011600Y-11094400D01*
X9011600Y-11054400D02*
X8971600Y-11094400D01*
X9022400Y-10444800D02*
X9062400Y-10484800D01*
X9062400Y-10444800D02*
X9022400Y-10484800D01*
X9073200Y-12309002D02*
X9113200Y-12349002D01*
X9113200Y-12309002D02*
X9073200Y-12349002D01*
X9175642Y-11459800D02*
X9215642Y-11499800D01*
X9215642Y-11459800D02*
X9175642Y-11499800D01*
X9182730Y-12079545D02*
X9222730Y-12119545D01*
X9222730Y-12079545D02*
X9182730Y-12119545D01*
X9440760Y-10888747D02*
X9480760Y-10928747D01*
X9480760Y-10888747D02*
X9440760Y-10928747D01*
X9479600Y-12019600D02*
X9519600Y-12059600D01*
X9519600Y-12019600D02*
X9479600Y-12059600D01*
X9512094Y-11714800D02*
X9552094Y-11754800D01*
X9552094Y-11714800D02*
X9512094Y-11754800D01*
X9606600Y-10800400D02*
X9646600Y-10840400D01*
X9646600Y-10800400D02*
X9606600Y-10840400D01*
X9628807Y-11507997D02*
X9668807Y-11547997D01*
X9668807Y-11507997D02*
X9628807Y-11547997D01*
X9682800Y-11232200D02*
X9722800Y-11272200D01*
X9722800Y-11232200D02*
X9682800Y-11272200D01*
X9682800Y-11359200D02*
X9722800Y-11399200D01*
X9722800Y-11359200D02*
X9682800Y-11399200D01*
X9733600Y-11562400D02*
X9773600Y-11602400D01*
X9773600Y-11562400D02*
X9733600Y-11602400D01*
X9733600Y-11664000D02*
X9773600Y-11704000D01*
X9773600Y-11664000D02*
X9733600Y-11704000D01*
X9757269Y-11791517D02*
X9797269Y-11831517D01*
X9797269Y-11791517D02*
X9757269Y-11831517D01*
X9776300Y-10538300D02*
X9816300Y-10578300D01*
X9816300Y-10538300D02*
X9776300Y-10578300D01*
X9816500Y-6768500D02*
X9856500Y-6808500D01*
X9856500Y-6768500D02*
X9816500Y-6808500D01*
X9826700Y-8658300D02*
X9866700Y-8698300D01*
X9866700Y-8658300D02*
X9826700Y-8698300D01*
X10038400Y-12019600D02*
X10078400Y-12059600D01*
X10078400Y-12019600D02*
X10038400Y-12059600D01*
X10241600Y-10876600D02*
X10281600Y-10916600D01*
X10281600Y-10876600D02*
X10241600Y-10916600D01*
X10394000Y-11295700D02*
X10434000Y-11335700D01*
X10434000Y-11295700D02*
X10394000Y-11335700D01*
X10394000Y-12019600D02*
X10434000Y-12059600D01*
X10434000Y-12019600D02*
X10394000Y-12059600D01*
X10443699Y-11612501D02*
X10483699Y-11652501D01*
X10483699Y-11612501D02*
X10443699Y-11652501D01*
X10546400Y-10902000D02*
X10586400Y-10942000D01*
X10586400Y-10902000D02*
X10546400Y-10942000D01*
X10660700Y-10597200D02*
X10700700Y-10637200D01*
X10700700Y-10597200D02*
X10660700Y-10637200D01*
X10698800Y-12451400D02*
X10738800Y-12491400D01*
X10738800Y-12451400D02*
X10698800Y-12491400D01*
X10721801Y-11867200D02*
X10761801Y-11907200D01*
X10761801Y-11867200D02*
X10721801Y-11907200D01*
X10794502Y-12043067D02*
X10834502Y-12083067D01*
X10834502Y-12043067D02*
X10794502Y-12083067D01*
X10876600Y-10317800D02*
X10916600Y-10357800D01*
X10916600Y-10317800D02*
X10876600Y-10357800D01*
X11435400Y-10800400D02*
X11475400Y-10840400D01*
X11475400Y-10800400D02*
X11435400Y-10840400D01*
X11638600Y-11029000D02*
X11678600Y-11069000D01*
X11678600Y-11029000D02*
X11638600Y-11069000D01*
X11723600Y-6473600D02*
X11763600Y-6513600D01*
X11763600Y-6473600D02*
X11723600Y-6513600D01*
X11728600Y-10278600D02*
X11768600Y-10318600D01*
X11768600Y-10278600D02*
X11728600Y-10318600D01*
X11738800Y-8388800D02*
X11778800Y-8428800D01*
X11778800Y-8388800D02*
X11738800Y-8428800D01*
X12260900Y-12527600D02*
X12300900Y-12567600D01*
X12300900Y-12527600D02*
X12260900Y-12567600D01*
X12754200Y-12555000D02*
X12794200Y-12595000D01*
X12794200Y-12555000D02*
X12754200Y-12595000D01*
X13406300Y-10531300D02*
X13446300Y-10571300D01*
X13446300Y-10531300D02*
X13406300Y-10571300D01*
X13629900Y-6954900D02*
X13669900Y-6994900D01*
X13669900Y-6954900D02*
X13629900Y-6994900D01*
X13645100Y-8870100D02*
X13685100Y-8910100D01*
X13685100Y-8870100D02*
X13645100Y-8910100D01*
X13950000Y-12807000D02*
X13990000Y-12847000D01*
X13990000Y-12807000D02*
X13950000Y-12847000D01*
X14555522Y-13039678D02*
X14595522Y-13079678D01*
X14595522Y-13039678D02*
X14555522Y-13079678D01*
X14966000Y-7092000D02*
X15006000Y-7132000D01*
X15006000Y-7092000D02*
X14966000Y-7132000D01*
X15249900Y-8992500D02*
X15289900Y-9032500D01*
X15289900Y-8992500D02*
X15249900Y-9032500D01*
X15270300Y-7092500D02*
X15310300Y-7132500D01*
X15310300Y-7092500D02*
X15270300Y-7132500D01*
X15329750Y-10792250D02*
X15369750Y-10832250D01*
X15369750Y-10792250D02*
X15329750Y-10832250D01*
X15601000Y-13315000D02*
X15641000Y-13355000D01*
X15641000Y-13315000D02*
X15601000Y-13355000D01*
X15982000Y-11003600D02*
X16022000Y-11043600D01*
X16022000Y-11003600D02*
X15982000Y-11043600D01*
X16106453Y-13469947D02*
X16146453Y-13509947D01*
X16146453Y-13469947D02*
X16106453Y-13509947D01*
X16134400Y-11003600D02*
X16174400Y-11043600D01*
X16174400Y-11003600D02*
X16134400Y-11043600D01*
X16744000Y-8768400D02*
X16784000Y-8808400D01*
X16784000Y-8768400D02*
X16744000Y-8808400D01*
X16744000Y-12807000D02*
X16784000Y-12847000D01*
X16784000Y-12807000D02*
X16744000Y-12847000D01*
X15981000Y-7794400D02*
G75*
G03*
X15981000Y-7794400I-30000J0D01*
G01*
X15971000Y-7824400D02*
X15971000Y-7764400D01*
X15931000Y-7824400D02*
X15931000Y-7764400D01*
X15971000Y-7764400D02*
G75*
G03*
X15931000Y-7764400I-20000J0D01*
G01*
X15931000Y-7824400D02*
G75*
G03*
X15971000Y-7824400I20000J0D01*
G01*
X15981000Y-8212400D02*
G75*
G03*
X15981000Y-8212400I-30000J0D01*
G01*
X15971000Y-8267400D02*
X15971000Y-8157400D01*
X15931000Y-8267400D02*
X15931000Y-8157400D01*
X15971000Y-8157400D02*
G75*
G03*
X15931000Y-8157400I-20000J0D01*
G01*
X15931000Y-8267400D02*
G75*
G03*
X15971000Y-8267400I20000J0D01*
G01*
X16845000Y-7794400D02*
G75*
G03*
X16845000Y-7794400I-30000J0D01*
G01*
X16835000Y-7824400D02*
X16835000Y-7764400D01*
X16795000Y-7824400D02*
X16795000Y-7764400D01*
X16835000Y-7764400D02*
G75*
G03*
X16795000Y-7764400I-20000J0D01*
G01*
X16795000Y-7824400D02*
G75*
G03*
X16835000Y-7824400I20000J0D01*
G01*
X16845000Y-8212400D02*
G75*
G03*
X16845000Y-8212400I-30000J0D01*
G01*
X16835000Y-8267400D02*
X16835000Y-8157400D01*
X16795000Y-8267400D02*
X16795000Y-8157400D01*
X16835000Y-8157400D02*
G75*
G03*
X16795000Y-8157400I-20000J0D01*
G01*
X16795000Y-8267400D02*
G75*
G03*
X16835000Y-8267400I20000J0D01*
G01*
X15786400Y-9807400D02*
X15786400Y-9897400D01*
X15741400Y-9852400D02*
X15831400Y-9852400D01*
X15816400Y-9817400D02*
X15756400Y-9817400D01*
X15816400Y-9887400D02*
X15756400Y-9887400D01*
X15756400Y-9817400D02*
G75*
G03*
X15756400Y-9887400I0J-35000D01*
G01*
X15816400Y-9887400D02*
G75*
G03*
X15816400Y-9817400I0J35000D01*
G01*
X15786400Y-10727400D02*
X15786400Y-10817400D01*
X15741400Y-10772400D02*
X15831400Y-10772400D01*
X15816400Y-10737400D02*
X15756400Y-10737400D01*
X15816400Y-10807400D02*
X15756400Y-10807400D01*
X15756400Y-10737400D02*
G75*
G03*
X15756400Y-10807400I0J-35000D01*
G01*
X15816400Y-10807400D02*
G75*
G03*
X15816400Y-10737400I0J35000D01*
G01*
X15896400Y-10267400D02*
X15896400Y-10357400D01*
X15851400Y-10312400D02*
X15941400Y-10312400D01*
X15926400Y-10277400D02*
X15866400Y-10277400D01*
X15926400Y-10347400D02*
X15866400Y-10347400D01*
X15866400Y-10277400D02*
G75*
G03*
X15866400Y-10347400I0J-35000D01*
G01*
X15926400Y-10347400D02*
G75*
G03*
X15926400Y-10277400I0J35000D01*
G01*
X16296400Y-10267400D02*
X16296400Y-10357400D01*
X16251400Y-10312400D02*
X16341400Y-10312400D01*
X16326400Y-10277400D02*
X16266400Y-10277400D01*
X16326400Y-10347400D02*
X16266400Y-10347400D01*
X16266400Y-10277400D02*
G75*
G03*
X16266400Y-10347400I0J-35000D01*
G01*
X16326400Y-10347400D02*
G75*
G03*
X16326400Y-10277400I0J35000D01*
G01*
X16596400Y-10267400D02*
X16596400Y-10357400D01*
X16551400Y-10312400D02*
X16641400Y-10312400D01*
X16626400Y-10277400D02*
X16566400Y-10277400D01*
X16626400Y-10347400D02*
X16566400Y-10347400D01*
X16566400Y-10277400D02*
G75*
G03*
X16566400Y-10347400I0J-35000D01*
G01*
X16626400Y-10347400D02*
G75*
G03*
X16626400Y-10277400I0J35000D01*
G01*
X14171984Y-5986484D02*
X14171984Y-5880516D01*
X14066016Y-5880516D01*
X14066016Y-5986484D01*
X14171984Y-5986484D01*
X14171984Y-6494484D02*
X14171984Y-6388516D01*
X14066016Y-6388516D01*
X14066016Y-6494484D01*
X14171984Y-6494484D01*
X14806984Y-5732484D02*
X14806984Y-5626516D01*
X14701016Y-5626516D01*
X14701016Y-5732484D01*
X14806984Y-5732484D01*
X14806984Y-6748484D02*
X14806984Y-6642516D01*
X14701016Y-6642516D01*
X14701016Y-6748484D01*
X14806984Y-6748484D01*
X12271984Y-5748984D02*
X12271984Y-5643016D01*
X12166016Y-5643016D01*
X12166016Y-5748984D01*
X12271984Y-5748984D01*
X12271984Y-6256984D02*
X12271984Y-6151016D01*
X12166016Y-6151016D01*
X12166016Y-6256984D01*
X12271984Y-6256984D01*
X12906984Y-5494984D02*
X12906984Y-5389016D01*
X12801016Y-5389016D01*
X12801016Y-5494984D01*
X12906984Y-5494984D01*
X12906984Y-6510984D02*
X12906984Y-6405016D01*
X12801016Y-6405016D01*
X12801016Y-6510984D01*
X12906984Y-6510984D01*
X12271984Y-9548984D02*
X12271984Y-9443016D01*
X12166016Y-9443016D01*
X12166016Y-9548984D01*
X12271984Y-9548984D01*
X12271984Y-10056984D02*
X12271984Y-9951016D01*
X12166016Y-9951016D01*
X12166016Y-10056984D01*
X12271984Y-10056984D01*
X12906984Y-9294984D02*
X12906984Y-9189016D01*
X12801016Y-9189016D01*
X12801016Y-9294984D01*
X12906984Y-9294984D01*
X12906984Y-10310984D02*
X12906984Y-10205016D01*
X12801016Y-10205016D01*
X12801016Y-10310984D01*
X12906984Y-10310984D01*
X10371984Y-7173984D02*
X10371984Y-7068016D01*
X10266016Y-7068016D01*
X10266016Y-7173984D01*
X10371984Y-7173984D01*
X10371984Y-7681984D02*
X10371984Y-7576016D01*
X10266016Y-7576016D01*
X10266016Y-7681984D01*
X10371984Y-7681984D01*
X11006984Y-6919984D02*
X11006984Y-6814016D01*
X10901016Y-6814016D01*
X10901016Y-6919984D01*
X11006984Y-6919984D01*
X11006984Y-7935984D02*
X11006984Y-7830016D01*
X10901016Y-7830016D01*
X10901016Y-7935984D01*
X11006984Y-7935984D01*
X4671984Y-8598984D02*
X4671984Y-8493016D01*
X4566016Y-8493016D01*
X4566016Y-8598984D01*
X4671984Y-8598984D01*
X4671984Y-9106984D02*
X4671984Y-9001016D01*
X4566016Y-9001016D01*
X4566016Y-9106984D01*
X4671984Y-9106984D01*
X5306984Y-8344984D02*
X5306984Y-8239016D01*
X5201016Y-8239016D01*
X5201016Y-8344984D01*
X5306984Y-8344984D01*
X5306984Y-9360984D02*
X5306984Y-9255016D01*
X5201016Y-9255016D01*
X5201016Y-9360984D01*
X5306984Y-9360984D01*
X8471984Y-9548984D02*
X8471984Y-9443016D01*
X8366016Y-9443016D01*
X8366016Y-9548984D01*
X8471984Y-9548984D01*
X8471984Y-10056984D02*
X8471984Y-9951016D01*
X8366016Y-9951016D01*
X8366016Y-10056984D01*
X8471984Y-10056984D01*
X9106984Y-9294984D02*
X9106984Y-9189016D01*
X9001016Y-9189016D01*
X9001016Y-9294984D01*
X9106984Y-9294984D01*
X9106984Y-10310984D02*
X9106984Y-10205016D01*
X9001016Y-10205016D01*
X9001016Y-10310984D01*
X9106984Y-10310984D01*
X14171984Y-7886484D02*
X14171984Y-7780516D01*
X14066016Y-7780516D01*
X14066016Y-7886484D01*
X14171984Y-7886484D01*
X14171984Y-8394484D02*
X14171984Y-8288516D01*
X14066016Y-8288516D01*
X14066016Y-8394484D01*
X14171984Y-8394484D01*
X14806984Y-7632484D02*
X14806984Y-7526516D01*
X14701016Y-7526516D01*
X14701016Y-7632484D01*
X14806984Y-7632484D01*
X14806984Y-8648484D02*
X14806984Y-8542516D01*
X14701016Y-8542516D01*
X14701016Y-8648484D01*
X14806984Y-8648484D01*
X6571984Y-10498984D02*
X6571984Y-10393016D01*
X6466016Y-10393016D01*
X6466016Y-10498984D01*
X6571984Y-10498984D01*
X6571984Y-11006984D02*
X6571984Y-10901016D01*
X6466016Y-10901016D01*
X6466016Y-11006984D01*
X6571984Y-11006984D01*
X7206984Y-10244984D02*
X7206984Y-10139016D01*
X7101016Y-10139016D01*
X7101016Y-10244984D01*
X7206984Y-10244984D01*
X7206984Y-11260984D02*
X7206984Y-11155016D01*
X7101016Y-11155016D01*
X7101016Y-11260984D01*
X7206984Y-11260984D01*
X15449828Y-12383854D02*
X15449828Y-12277886D01*
X15343860Y-12277886D01*
X15343860Y-12383854D01*
X15449828Y-12383854D01*
X15703828Y-11943913D02*
X15703828Y-11837945D01*
X15597860Y-11837945D01*
X15597860Y-11943913D01*
X15703828Y-11943913D01*
X15872754Y-12921325D02*
X15872754Y-12815357D01*
X15766786Y-12815357D01*
X15766786Y-12921325D01*
X15872754Y-12921325D01*
X16380754Y-12041443D02*
X16380754Y-11935475D01*
X16274786Y-11935475D01*
X16274786Y-12041443D01*
X16380754Y-12041443D01*
X10371984Y-5273984D02*
X10371984Y-5168016D01*
X10266016Y-5168016D01*
X10266016Y-5273984D01*
X10371984Y-5273984D01*
X10371984Y-5781984D02*
X10371984Y-5676016D01*
X10266016Y-5676016D01*
X10266016Y-5781984D01*
X10371984Y-5781984D01*
X11006984Y-5019984D02*
X11006984Y-4914016D01*
X10901016Y-4914016D01*
X10901016Y-5019984D01*
X11006984Y-5019984D01*
X11006984Y-6035984D02*
X11006984Y-5930016D01*
X10901016Y-5930016D01*
X10901016Y-6035984D01*
X11006984Y-6035984D01*
X14171984Y-9786484D02*
X14171984Y-9680516D01*
X14066016Y-9680516D01*
X14066016Y-9786484D01*
X14171984Y-9786484D01*
X14171984Y-10294484D02*
X14171984Y-10188516D01*
X14066016Y-10188516D01*
X14066016Y-10294484D01*
X14171984Y-10294484D01*
X14806984Y-9532484D02*
X14806984Y-9426516D01*
X14701016Y-9426516D01*
X14701016Y-9532484D01*
X14806984Y-9532484D01*
X14806984Y-10548484D02*
X14806984Y-10442516D01*
X14701016Y-10442516D01*
X14701016Y-10548484D01*
X14806984Y-10548484D01*
X10371984Y-9073984D02*
X10371984Y-8968016D01*
X10266016Y-8968016D01*
X10266016Y-9073984D01*
X10371984Y-9073984D01*
X10371984Y-9581984D02*
X10371984Y-9476016D01*
X10266016Y-9476016D01*
X10266016Y-9581984D01*
X10371984Y-9581984D01*
X11006984Y-8819984D02*
X11006984Y-8714016D01*
X10901016Y-8714016D01*
X10901016Y-8819984D01*
X11006984Y-8819984D01*
X11006984Y-9835984D02*
X11006984Y-9730016D01*
X10901016Y-9730016D01*
X10901016Y-9835984D01*
X11006984Y-9835984D01*
X12271984Y-7648984D02*
X12271984Y-7543016D01*
X12166016Y-7543016D01*
X12166016Y-7648984D01*
X12271984Y-7648984D01*
X12271984Y-8156984D02*
X12271984Y-8051016D01*
X12166016Y-8051016D01*
X12166016Y-8156984D01*
X12271984Y-8156984D01*
X12906984Y-7394984D02*
X12906984Y-7289016D01*
X12801016Y-7289016D01*
X12801016Y-7394984D01*
X12906984Y-7394984D01*
X12906984Y-8410984D02*
X12906984Y-8305016D01*
X12801016Y-8305016D01*
X12801016Y-8410984D01*
X12906984Y-8410984D01*
X4671984Y-10498984D02*
X4671984Y-10393016D01*
X4566016Y-10393016D01*
X4566016Y-10498984D01*
X4671984Y-10498984D01*
X4671984Y-11006984D02*
X4671984Y-10901016D01*
X4566016Y-10901016D01*
X4566016Y-11006984D01*
X4671984Y-11006984D01*
X5306984Y-10244984D02*
X5306984Y-10139016D01*
X5201016Y-10139016D01*
X5201016Y-10244984D01*
X5306984Y-10244984D01*
X5306984Y-11260984D02*
X5306984Y-11155016D01*
X5201016Y-11155016D01*
X5201016Y-11260984D01*
X5306984Y-11260984D01*
X4671984Y-6698984D02*
X4671984Y-6593016D01*
X4566016Y-6593016D01*
X4566016Y-6698984D01*
X4671984Y-6698984D01*
X4671984Y-7206984D02*
X4671984Y-7101016D01*
X4566016Y-7101016D01*
X4566016Y-7206984D01*
X4671984Y-7206984D01*
X5306984Y-6444984D02*
X5306984Y-6339016D01*
X5201016Y-6339016D01*
X5201016Y-6444984D01*
X5306984Y-6444984D01*
X5306984Y-7460984D02*
X5306984Y-7355016D01*
X5201016Y-7355016D01*
X5201016Y-7460984D01*
X5306984Y-7460984D01*
X13322326Y-12120019D02*
X13322326Y-12014051D01*
X13216358Y-12014051D01*
X13216358Y-12120019D01*
X13322326Y-12120019D01*
X13453806Y-11629329D02*
X13453806Y-11523361D01*
X13347838Y-11523361D01*
X13347838Y-11629329D01*
X13453806Y-11629329D01*
X13869949Y-12529714D02*
X13869949Y-12423746D01*
X13763981Y-12423746D01*
X13763981Y-12529714D01*
X13869949Y-12529714D01*
X14132909Y-11548334D02*
X14132909Y-11442366D01*
X14026941Y-11442366D01*
X14026941Y-11548334D01*
X14132909Y-11548334D01*
X11321984Y-11448984D02*
X11321984Y-11343016D01*
X11216016Y-11343016D01*
X11216016Y-11448984D01*
X11321984Y-11448984D01*
X11321984Y-11956984D02*
X11321984Y-11851016D01*
X11216016Y-11851016D01*
X11216016Y-11956984D01*
X11321984Y-11956984D01*
X11956984Y-11194984D02*
X11956984Y-11089016D01*
X11851016Y-11089016D01*
X11851016Y-11194984D01*
X11956984Y-11194984D01*
X11956984Y-12210984D02*
X11956984Y-12105016D01*
X11851016Y-12105016D01*
X11851016Y-12210984D01*
X11956984Y-12210984D01*
X8471984Y-7648984D02*
X8471984Y-7543016D01*
X8366016Y-7543016D01*
X8366016Y-7648984D01*
X8471984Y-7648984D01*
X8471984Y-8156984D02*
X8471984Y-8051016D01*
X8366016Y-8051016D01*
X8366016Y-8156984D01*
X8471984Y-8156984D01*
X9106984Y-7394984D02*
X9106984Y-7289016D01*
X9001016Y-7289016D01*
X9001016Y-7394984D01*
X9106984Y-7394984D01*
X9106984Y-8410984D02*
X9106984Y-8305016D01*
X9001016Y-8305016D01*
X9001016Y-8410984D01*
X9106984Y-8410984D01*
X8471984Y-5748984D02*
X8471984Y-5643016D01*
X8366016Y-5643016D01*
X8366016Y-5748984D01*
X8471984Y-5748984D01*
X8471984Y-6256984D02*
X8471984Y-6151016D01*
X8366016Y-6151016D01*
X8366016Y-6256984D01*
X8471984Y-6256984D01*
X9106984Y-5494984D02*
X9106984Y-5389016D01*
X9001016Y-5389016D01*
X9001016Y-5494984D01*
X9106984Y-5494984D01*
X9106984Y-6510984D02*
X9106984Y-6405016D01*
X9001016Y-6405016D01*
X9001016Y-6510984D01*
X9106984Y-6510984D01*
X6571984Y-8598984D02*
X6571984Y-8493016D01*
X6466016Y-8493016D01*
X6466016Y-8598984D01*
X6571984Y-8598984D01*
X6571984Y-9106984D02*
X6571984Y-9001016D01*
X6466016Y-9001016D01*
X6466016Y-9106984D01*
X6571984Y-9106984D01*
X7206984Y-8344984D02*
X7206984Y-8239016D01*
X7101016Y-8239016D01*
X7101016Y-8344984D01*
X7206984Y-8344984D01*
X7206984Y-9360984D02*
X7206984Y-9255016D01*
X7101016Y-9255016D01*
X7101016Y-9360984D01*
X7206984Y-9360984D01*
X6571984Y-6698984D02*
X6571984Y-6593016D01*
X6466016Y-6593016D01*
X6466016Y-6698984D01*
X6571984Y-6698984D01*
X6571984Y-7206984D02*
X6571984Y-7101016D01*
X6466016Y-7101016D01*
X6466016Y-7206984D01*
X6571984Y-7206984D01*
X7206984Y-6444984D02*
X7206984Y-6339016D01*
X7101016Y-6339016D01*
X7101016Y-6444984D01*
X7206984Y-6444984D01*
X7206984Y-7460984D02*
X7206984Y-7355016D01*
X7101016Y-7355016D01*
X7101016Y-7460984D01*
X7206984Y-7460984D01*
D12*
X4398728Y-14211857D02*
X4398728Y-13911857D01*
X4470157Y-13911857D01*
X4513014Y-13926143D01*
X4541586Y-13954714D01*
X4555871Y-13983286D01*
X4570157Y-14040429D01*
X4570157Y-14083286D01*
X4555871Y-14140429D01*
X4541586Y-14169000D01*
X4513014Y-14197571D01*
X4470157Y-14211857D01*
X4398728Y-14211857D01*
X4698728Y-14211857D02*
X4698728Y-14011857D01*
X4698728Y-14069000D02*
X4713014Y-14040429D01*
X4727300Y-14026143D01*
X4755871Y-14011857D01*
X4784443Y-14011857D01*
X4884443Y-14211857D02*
X4884443Y-14011857D01*
X4884443Y-13911857D02*
X4870157Y-13926143D01*
X4884443Y-13940429D01*
X4898728Y-13926143D01*
X4884443Y-13911857D01*
X4884443Y-13940429D01*
X5070157Y-14211857D02*
X5041586Y-14197571D01*
X5027300Y-14169000D01*
X5027300Y-13911857D01*
X5227300Y-14211857D02*
X5198728Y-14197571D01*
X5184443Y-14169000D01*
X5184443Y-13911857D01*
X5570157Y-14211857D02*
X5570157Y-13911857D01*
X5670157Y-14126143D01*
X5770157Y-13911857D01*
X5770157Y-14211857D01*
X6041586Y-14211857D02*
X6041586Y-14054714D01*
X6027300Y-14026143D01*
X5998728Y-14011857D01*
X5941586Y-14011857D01*
X5913014Y-14026143D01*
X6041586Y-14197571D02*
X6013014Y-14211857D01*
X5941586Y-14211857D01*
X5913014Y-14197571D01*
X5898728Y-14169000D01*
X5898728Y-14140429D01*
X5913014Y-14111857D01*
X5941586Y-14097571D01*
X6013014Y-14097571D01*
X6041586Y-14083286D01*
X6184443Y-14011857D02*
X6184443Y-14311857D01*
X6184443Y-14026143D02*
X6213014Y-14011857D01*
X6270157Y-14011857D01*
X6298728Y-14026143D01*
X6313014Y-14040429D01*
X6327300Y-14069000D01*
X6327300Y-14154714D01*
X6313014Y-14183286D01*
X6298728Y-14197571D01*
X6270157Y-14211857D01*
X6213014Y-14211857D01*
X6184443Y-14197571D01*
X6455871Y-14183286D02*
X6470157Y-14197571D01*
X6455871Y-14211857D01*
X6441586Y-14197571D01*
X6455871Y-14183286D01*
X6455871Y-14211857D01*
X6455871Y-14026143D02*
X6470157Y-14040429D01*
X6455871Y-14054714D01*
X6441586Y-14040429D01*
X6455871Y-14026143D01*
X6455871Y-14054714D01*
X4072300Y-14686143D02*
X4112300Y-14726143D01*
X4112300Y-14686143D02*
X4072300Y-14726143D01*
X4455871Y-14541857D02*
X4484443Y-14541857D01*
X4513014Y-14556143D01*
X4527300Y-14570429D01*
X4541586Y-14599000D01*
X4555871Y-14656143D01*
X4555871Y-14727571D01*
X4541586Y-14784714D01*
X4527300Y-14813286D01*
X4513014Y-14827571D01*
X4484443Y-14841857D01*
X4455871Y-14841857D01*
X4427300Y-14827571D01*
X4413014Y-14813286D01*
X4398728Y-14784714D01*
X4384443Y-14727571D01*
X4384443Y-14656143D01*
X4398728Y-14599000D01*
X4413014Y-14570429D01*
X4427300Y-14556143D01*
X4455871Y-14541857D01*
X4684443Y-14813286D02*
X4698728Y-14827571D01*
X4684443Y-14841857D01*
X4670157Y-14827571D01*
X4684443Y-14813286D01*
X4684443Y-14841857D01*
X4955871Y-14641857D02*
X4955871Y-14841857D01*
X4884443Y-14527571D02*
X4813014Y-14741857D01*
X4998728Y-14741857D01*
X5170157Y-14541857D02*
X5198728Y-14541857D01*
X5227300Y-14556143D01*
X5241586Y-14570429D01*
X5255871Y-14599000D01*
X5270157Y-14656143D01*
X5270157Y-14727571D01*
X5255871Y-14784714D01*
X5241586Y-14813286D01*
X5227300Y-14827571D01*
X5198728Y-14841857D01*
X5170157Y-14841857D01*
X5141586Y-14827571D01*
X5127300Y-14813286D01*
X5113014Y-14784714D01*
X5098728Y-14727571D01*
X5098728Y-14656143D01*
X5113014Y-14599000D01*
X5127300Y-14570429D01*
X5141586Y-14556143D01*
X5170157Y-14541857D01*
X5398728Y-14841857D02*
X5398728Y-14641857D01*
X5398728Y-14670429D02*
X5413014Y-14656143D01*
X5441586Y-14641857D01*
X5484443Y-14641857D01*
X5513014Y-14656143D01*
X5527300Y-14684714D01*
X5527300Y-14841857D01*
X5527300Y-14684714D02*
X5541586Y-14656143D01*
X5570157Y-14641857D01*
X5613014Y-14641857D01*
X5641586Y-14656143D01*
X5655871Y-14684714D01*
X5655871Y-14841857D01*
X5798728Y-14841857D02*
X5798728Y-14641857D01*
X5798728Y-14670429D02*
X5813014Y-14656143D01*
X5841586Y-14641857D01*
X5884443Y-14641857D01*
X5913014Y-14656143D01*
X5927300Y-14684714D01*
X5927300Y-14841857D01*
X5927300Y-14684714D02*
X5941586Y-14656143D01*
X5970157Y-14641857D01*
X6013014Y-14641857D01*
X6041586Y-14656143D01*
X6055871Y-14684714D01*
X6055871Y-14841857D01*
X6641586Y-14527571D02*
X6384443Y-14913286D01*
X7027300Y-14541857D02*
X7055871Y-14541857D01*
X7084443Y-14556143D01*
X7098728Y-14570429D01*
X7113014Y-14599000D01*
X7127300Y-14656143D01*
X7127300Y-14727571D01*
X7113014Y-14784714D01*
X7098728Y-14813286D01*
X7084443Y-14827571D01*
X7055871Y-14841857D01*
X7027300Y-14841857D01*
X6998728Y-14827571D01*
X6984443Y-14813286D01*
X6970157Y-14784714D01*
X6955871Y-14727571D01*
X6955871Y-14656143D01*
X6970157Y-14599000D01*
X6984443Y-14570429D01*
X6998728Y-14556143D01*
X7027300Y-14541857D01*
X7255871Y-14813286D02*
X7270157Y-14827571D01*
X7255871Y-14841857D01*
X7241586Y-14827571D01*
X7255871Y-14813286D01*
X7255871Y-14841857D01*
X7455871Y-14541857D02*
X7484443Y-14541857D01*
X7513014Y-14556143D01*
X7527300Y-14570429D01*
X7541586Y-14599000D01*
X7555871Y-14656143D01*
X7555871Y-14727571D01*
X7541586Y-14784714D01*
X7527300Y-14813286D01*
X7513014Y-14827571D01*
X7484443Y-14841857D01*
X7455871Y-14841857D01*
X7427300Y-14827571D01*
X7413014Y-14813286D01*
X7398728Y-14784714D01*
X7384443Y-14727571D01*
X7384443Y-14656143D01*
X7398728Y-14599000D01*
X7413014Y-14570429D01*
X7427300Y-14556143D01*
X7455871Y-14541857D01*
X7841586Y-14841857D02*
X7670157Y-14841857D01*
X7755871Y-14841857D02*
X7755871Y-14541857D01*
X7727300Y-14584714D01*
X7698728Y-14613286D01*
X7670157Y-14627571D01*
X8098728Y-14541857D02*
X8041586Y-14541857D01*
X8013014Y-14556143D01*
X7998728Y-14570429D01*
X7970157Y-14613286D01*
X7955871Y-14670429D01*
X7955871Y-14784714D01*
X7970157Y-14813286D01*
X7984443Y-14827571D01*
X8013014Y-14841857D01*
X8070157Y-14841857D01*
X8098728Y-14827571D01*
X8113014Y-14813286D01*
X8127300Y-14784714D01*
X8127300Y-14713286D01*
X8113014Y-14684714D01*
X8098728Y-14670429D01*
X8070157Y-14656143D01*
X8013014Y-14656143D01*
X7984443Y-14670429D01*
X7970157Y-14684714D01*
X7955871Y-14713286D01*
X8241586Y-14541857D02*
X8241586Y-14599000D01*
X8355871Y-14541857D02*
X8355871Y-14599000D01*
X8798728Y-14956143D02*
X8784443Y-14941857D01*
X8755871Y-14899000D01*
X8741586Y-14870429D01*
X8727300Y-14827571D01*
X8713014Y-14756143D01*
X8713014Y-14699000D01*
X8727300Y-14627571D01*
X8741586Y-14584714D01*
X8755871Y-14556143D01*
X8784443Y-14513286D01*
X8798728Y-14499000D01*
X8884443Y-14541857D02*
X9084443Y-14541857D01*
X8955871Y-14841857D01*
X9327300Y-14641857D02*
X9327300Y-14841857D01*
X9255871Y-14527571D02*
X9184443Y-14741857D01*
X9370157Y-14741857D01*
X9713014Y-14841857D02*
X9713014Y-14541857D01*
X9841586Y-14841857D02*
X9841586Y-14684714D01*
X9827300Y-14656143D01*
X9798728Y-14641857D01*
X9755871Y-14641857D01*
X9727300Y-14656143D01*
X9713014Y-14670429D01*
X10027300Y-14841857D02*
X9998728Y-14827571D01*
X9984443Y-14813286D01*
X9970157Y-14784714D01*
X9970157Y-14699000D01*
X9984443Y-14670429D01*
X9998728Y-14656143D01*
X10027300Y-14641857D01*
X10070157Y-14641857D01*
X10098728Y-14656143D01*
X10113014Y-14670429D01*
X10127300Y-14699000D01*
X10127300Y-14784714D01*
X10113014Y-14813286D01*
X10098728Y-14827571D01*
X10070157Y-14841857D01*
X10027300Y-14841857D01*
X10298728Y-14841857D02*
X10270157Y-14827571D01*
X10255871Y-14799000D01*
X10255871Y-14541857D01*
X10527300Y-14827571D02*
X10498728Y-14841857D01*
X10441586Y-14841857D01*
X10413014Y-14827571D01*
X10398728Y-14799000D01*
X10398728Y-14684714D01*
X10413014Y-14656143D01*
X10441586Y-14641857D01*
X10498728Y-14641857D01*
X10527300Y-14656143D01*
X10541586Y-14684714D01*
X10541586Y-14713286D01*
X10398728Y-14741857D01*
X10655871Y-14827571D02*
X10684443Y-14841857D01*
X10741586Y-14841857D01*
X10770157Y-14827571D01*
X10784443Y-14799000D01*
X10784443Y-14784714D01*
X10770157Y-14756143D01*
X10741586Y-14741857D01*
X10698728Y-14741857D01*
X10670157Y-14727571D01*
X10655871Y-14699000D01*
X10655871Y-14684714D01*
X10670157Y-14656143D01*
X10698728Y-14641857D01*
X10741586Y-14641857D01*
X10770157Y-14656143D01*
X10884443Y-14956143D02*
X10898728Y-14941857D01*
X10927300Y-14899000D01*
X10941586Y-14870429D01*
X10955871Y-14827571D01*
X10970157Y-14756143D01*
X10970157Y-14699000D01*
X10955871Y-14627571D01*
X10941586Y-14584714D01*
X10927300Y-14556143D01*
X10898728Y-14513286D01*
X10884443Y-14499000D01*
X4112300Y-15102143D02*
G75*
G03*
X4112300Y-15102143I-30000J0D01*
G01*
X4455871Y-14937857D02*
X4484443Y-14937857D01*
X4513014Y-14952143D01*
X4527300Y-14966429D01*
X4541586Y-14995000D01*
X4555871Y-15052143D01*
X4555871Y-15123571D01*
X4541586Y-15180714D01*
X4527300Y-15209286D01*
X4513014Y-15223571D01*
X4484443Y-15237857D01*
X4455871Y-15237857D01*
X4427300Y-15223571D01*
X4413014Y-15209286D01*
X4398728Y-15180714D01*
X4384443Y-15123571D01*
X4384443Y-15052143D01*
X4398728Y-14995000D01*
X4413014Y-14966429D01*
X4427300Y-14952143D01*
X4455871Y-14937857D01*
X4684443Y-15209286D02*
X4698728Y-15223571D01*
X4684443Y-15237857D01*
X4670157Y-15223571D01*
X4684443Y-15209286D01*
X4684443Y-15237857D01*
X4955871Y-14937857D02*
X4898728Y-14937857D01*
X4870157Y-14952143D01*
X4855871Y-14966429D01*
X4827300Y-15009286D01*
X4813014Y-15066429D01*
X4813014Y-15180714D01*
X4827300Y-15209286D01*
X4841586Y-15223571D01*
X4870157Y-15237857D01*
X4927300Y-15237857D01*
X4955871Y-15223571D01*
X4970157Y-15209286D01*
X4984443Y-15180714D01*
X4984443Y-15109286D01*
X4970157Y-15080714D01*
X4955871Y-15066429D01*
X4927300Y-15052143D01*
X4870157Y-15052143D01*
X4841586Y-15066429D01*
X4827300Y-15080714D01*
X4813014Y-15109286D01*
X5170157Y-14937857D02*
X5198728Y-14937857D01*
X5227300Y-14952143D01*
X5241586Y-14966429D01*
X5255871Y-14995000D01*
X5270157Y-15052143D01*
X5270157Y-15123571D01*
X5255871Y-15180714D01*
X5241586Y-15209286D01*
X5227300Y-15223571D01*
X5198728Y-15237857D01*
X5170157Y-15237857D01*
X5141586Y-15223571D01*
X5127300Y-15209286D01*
X5113014Y-15180714D01*
X5098728Y-15123571D01*
X5098728Y-15052143D01*
X5113014Y-14995000D01*
X5127300Y-14966429D01*
X5141586Y-14952143D01*
X5170157Y-14937857D01*
X5398728Y-15237857D02*
X5398728Y-15037857D01*
X5398728Y-15066429D02*
X5413014Y-15052143D01*
X5441586Y-15037857D01*
X5484443Y-15037857D01*
X5513014Y-15052143D01*
X5527300Y-15080714D01*
X5527300Y-15237857D01*
X5527300Y-15080714D02*
X5541586Y-15052143D01*
X5570157Y-15037857D01*
X5613014Y-15037857D01*
X5641586Y-15052143D01*
X5655871Y-15080714D01*
X5655871Y-15237857D01*
X5798728Y-15237857D02*
X5798728Y-15037857D01*
X5798728Y-15066429D02*
X5813014Y-15052143D01*
X5841586Y-15037857D01*
X5884443Y-15037857D01*
X5913014Y-15052143D01*
X5927300Y-15080714D01*
X5927300Y-15237857D01*
X5927300Y-15080714D02*
X5941586Y-15052143D01*
X5970157Y-15037857D01*
X6013014Y-15037857D01*
X6041586Y-15052143D01*
X6055871Y-15080714D01*
X6055871Y-15237857D01*
X6641586Y-14923571D02*
X6384443Y-15309286D01*
X7027300Y-14937857D02*
X7055871Y-14937857D01*
X7084443Y-14952143D01*
X7098728Y-14966429D01*
X7113014Y-14995000D01*
X7127300Y-15052143D01*
X7127300Y-15123571D01*
X7113014Y-15180714D01*
X7098728Y-15209286D01*
X7084443Y-15223571D01*
X7055871Y-15237857D01*
X7027300Y-15237857D01*
X6998728Y-15223571D01*
X6984443Y-15209286D01*
X6970157Y-15180714D01*
X6955871Y-15123571D01*
X6955871Y-15052143D01*
X6970157Y-14995000D01*
X6984443Y-14966429D01*
X6998728Y-14952143D01*
X7027300Y-14937857D01*
X7255871Y-15209286D02*
X7270157Y-15223571D01*
X7255871Y-15237857D01*
X7241586Y-15223571D01*
X7255871Y-15209286D01*
X7255871Y-15237857D01*
X7455871Y-14937857D02*
X7484443Y-14937857D01*
X7513014Y-14952143D01*
X7527300Y-14966429D01*
X7541586Y-14995000D01*
X7555871Y-15052143D01*
X7555871Y-15123571D01*
X7541586Y-15180714D01*
X7527300Y-15209286D01*
X7513014Y-15223571D01*
X7484443Y-15237857D01*
X7455871Y-15237857D01*
X7427300Y-15223571D01*
X7413014Y-15209286D01*
X7398728Y-15180714D01*
X7384443Y-15123571D01*
X7384443Y-15052143D01*
X7398728Y-14995000D01*
X7413014Y-14966429D01*
X7427300Y-14952143D01*
X7455871Y-14937857D01*
X7670157Y-14966429D02*
X7684443Y-14952143D01*
X7713014Y-14937857D01*
X7784443Y-14937857D01*
X7813014Y-14952143D01*
X7827300Y-14966429D01*
X7841586Y-14995000D01*
X7841586Y-15023571D01*
X7827300Y-15066429D01*
X7655871Y-15237857D01*
X7841586Y-15237857D01*
X8098728Y-15037857D02*
X8098728Y-15237857D01*
X8027300Y-14923571D02*
X7955871Y-15137857D01*
X8141586Y-15137857D01*
X8241586Y-14937857D02*
X8241586Y-14995000D01*
X8355871Y-14937857D02*
X8355871Y-14995000D01*
X8798728Y-15352143D02*
X8784443Y-15337857D01*
X8755871Y-15295000D01*
X8741586Y-15266429D01*
X8727300Y-15223571D01*
X8713014Y-15152143D01*
X8713014Y-15095000D01*
X8727300Y-15023571D01*
X8741586Y-14980714D01*
X8755871Y-14952143D01*
X8784443Y-14909286D01*
X8798728Y-14895000D01*
X8970157Y-14937857D02*
X8998728Y-14937857D01*
X9027300Y-14952143D01*
X9041586Y-14966429D01*
X9055871Y-14995000D01*
X9070157Y-15052143D01*
X9070157Y-15123571D01*
X9055871Y-15180714D01*
X9041586Y-15209286D01*
X9027300Y-15223571D01*
X8998728Y-15237857D01*
X8970157Y-15237857D01*
X8941586Y-15223571D01*
X8927300Y-15209286D01*
X8913014Y-15180714D01*
X8898728Y-15123571D01*
X8898728Y-15052143D01*
X8913014Y-14995000D01*
X8927300Y-14966429D01*
X8941586Y-14952143D01*
X8970157Y-14937857D01*
X9427300Y-15237857D02*
X9427300Y-14937857D01*
X9555871Y-15237857D02*
X9555871Y-15080714D01*
X9541586Y-15052143D01*
X9513014Y-15037857D01*
X9470157Y-15037857D01*
X9441586Y-15052143D01*
X9427300Y-15066429D01*
X9741586Y-15237857D02*
X9713014Y-15223571D01*
X9698728Y-15209286D01*
X9684443Y-15180714D01*
X9684443Y-15095000D01*
X9698728Y-15066429D01*
X9713014Y-15052143D01*
X9741586Y-15037857D01*
X9784443Y-15037857D01*
X9813014Y-15052143D01*
X9827300Y-15066429D01*
X9841586Y-15095000D01*
X9841586Y-15180714D01*
X9827300Y-15209286D01*
X9813014Y-15223571D01*
X9784443Y-15237857D01*
X9741586Y-15237857D01*
X10013014Y-15237857D02*
X9984443Y-15223571D01*
X9970157Y-15195000D01*
X9970157Y-14937857D01*
X10241586Y-15223571D02*
X10213014Y-15237857D01*
X10155871Y-15237857D01*
X10127300Y-15223571D01*
X10113014Y-15195000D01*
X10113014Y-15080714D01*
X10127300Y-15052143D01*
X10155871Y-15037857D01*
X10213014Y-15037857D01*
X10241586Y-15052143D01*
X10255871Y-15080714D01*
X10255871Y-15109286D01*
X10113014Y-15137857D01*
X10370157Y-15223571D02*
X10398728Y-15237857D01*
X10455871Y-15237857D01*
X10484443Y-15223571D01*
X10498728Y-15195000D01*
X10498728Y-15180714D01*
X10484443Y-15152143D01*
X10455871Y-15137857D01*
X10413014Y-15137857D01*
X10384443Y-15123571D01*
X10370157Y-15095000D01*
X10370157Y-15080714D01*
X10384443Y-15052143D01*
X10413014Y-15037857D01*
X10455871Y-15037857D01*
X10484443Y-15052143D01*
X10855871Y-15123571D02*
X11084443Y-15123571D01*
X10970157Y-15237857D02*
X10970157Y-15009286D01*
X11584443Y-15037857D02*
X11584443Y-15237857D01*
X11513014Y-14923571D02*
X11441586Y-15137857D01*
X11627300Y-15137857D01*
X11955871Y-15223571D02*
X11984443Y-15237857D01*
X12041586Y-15237857D01*
X12070157Y-15223571D01*
X12084443Y-15195000D01*
X12084443Y-15180714D01*
X12070157Y-15152143D01*
X12041586Y-15137857D01*
X11998728Y-15137857D01*
X11970157Y-15123571D01*
X11955871Y-15095000D01*
X11955871Y-15080714D01*
X11970157Y-15052143D01*
X11998728Y-15037857D01*
X12041586Y-15037857D01*
X12070157Y-15052143D01*
X12255871Y-15237857D02*
X12227300Y-15223571D01*
X12213014Y-15195000D01*
X12213014Y-14937857D01*
X12413014Y-15237857D02*
X12384443Y-15223571D01*
X12370157Y-15209286D01*
X12355871Y-15180714D01*
X12355871Y-15095000D01*
X12370157Y-15066429D01*
X12384443Y-15052143D01*
X12413014Y-15037857D01*
X12455871Y-15037857D01*
X12484443Y-15052143D01*
X12498728Y-15066429D01*
X12513014Y-15095000D01*
X12513014Y-15180714D01*
X12498728Y-15209286D01*
X12484443Y-15223571D01*
X12455871Y-15237857D01*
X12413014Y-15237857D01*
X12598728Y-15037857D02*
X12713014Y-15037857D01*
X12641586Y-14937857D02*
X12641586Y-15195000D01*
X12655871Y-15223571D01*
X12684443Y-15237857D01*
X12713014Y-15237857D01*
X12798728Y-15223571D02*
X12827300Y-15237857D01*
X12884443Y-15237857D01*
X12913014Y-15223571D01*
X12927300Y-15195000D01*
X12927300Y-15180714D01*
X12913014Y-15152143D01*
X12884443Y-15137857D01*
X12841586Y-15137857D01*
X12813014Y-15123571D01*
X12798728Y-15095000D01*
X12798728Y-15080714D01*
X12813014Y-15052143D01*
X12841586Y-15037857D01*
X12884443Y-15037857D01*
X12913014Y-15052143D01*
X13027300Y-15352143D02*
X13041586Y-15337857D01*
X13070157Y-15295000D01*
X13084443Y-15266429D01*
X13098728Y-15223571D01*
X13113014Y-15152143D01*
X13113014Y-15095000D01*
X13098728Y-15023571D01*
X13084443Y-14980714D01*
X13070157Y-14952143D01*
X13041586Y-14909286D01*
X13027300Y-14895000D01*
X4067300Y-15453143D02*
X4067300Y-15543143D01*
X4022300Y-15498143D02*
X4112300Y-15498143D01*
X4455871Y-15333857D02*
X4484443Y-15333857D01*
X4513014Y-15348143D01*
X4527300Y-15362429D01*
X4541586Y-15391000D01*
X4555871Y-15448143D01*
X4555871Y-15519571D01*
X4541586Y-15576714D01*
X4527300Y-15605286D01*
X4513014Y-15619571D01*
X4484443Y-15633857D01*
X4455871Y-15633857D01*
X4427300Y-15619571D01*
X4413014Y-15605286D01*
X4398728Y-15576714D01*
X4384443Y-15519571D01*
X4384443Y-15448143D01*
X4398728Y-15391000D01*
X4413014Y-15362429D01*
X4427300Y-15348143D01*
X4455871Y-15333857D01*
X4684443Y-15605286D02*
X4698728Y-15619571D01*
X4684443Y-15633857D01*
X4670157Y-15619571D01*
X4684443Y-15605286D01*
X4684443Y-15633857D01*
X4841586Y-15633857D02*
X4898728Y-15633857D01*
X4927300Y-15619571D01*
X4941586Y-15605286D01*
X4970157Y-15562429D01*
X4984443Y-15505286D01*
X4984443Y-15391000D01*
X4970157Y-15362429D01*
X4955871Y-15348143D01*
X4927300Y-15333857D01*
X4870157Y-15333857D01*
X4841586Y-15348143D01*
X4827300Y-15362429D01*
X4813014Y-15391000D01*
X4813014Y-15462429D01*
X4827300Y-15491000D01*
X4841586Y-15505286D01*
X4870157Y-15519571D01*
X4927300Y-15519571D01*
X4955871Y-15505286D01*
X4970157Y-15491000D01*
X4984443Y-15462429D01*
X5170157Y-15333857D02*
X5198728Y-15333857D01*
X5227300Y-15348143D01*
X5241586Y-15362429D01*
X5255871Y-15391000D01*
X5270157Y-15448143D01*
X5270157Y-15519571D01*
X5255871Y-15576714D01*
X5241586Y-15605286D01*
X5227300Y-15619571D01*
X5198728Y-15633857D01*
X5170157Y-15633857D01*
X5141586Y-15619571D01*
X5127300Y-15605286D01*
X5113014Y-15576714D01*
X5098728Y-15519571D01*
X5098728Y-15448143D01*
X5113014Y-15391000D01*
X5127300Y-15362429D01*
X5141586Y-15348143D01*
X5170157Y-15333857D01*
X5398728Y-15633857D02*
X5398728Y-15433857D01*
X5398728Y-15462429D02*
X5413014Y-15448143D01*
X5441586Y-15433857D01*
X5484443Y-15433857D01*
X5513014Y-15448143D01*
X5527300Y-15476714D01*
X5527300Y-15633857D01*
X5527300Y-15476714D02*
X5541586Y-15448143D01*
X5570157Y-15433857D01*
X5613014Y-15433857D01*
X5641586Y-15448143D01*
X5655871Y-15476714D01*
X5655871Y-15633857D01*
X5798728Y-15633857D02*
X5798728Y-15433857D01*
X5798728Y-15462429D02*
X5813014Y-15448143D01*
X5841586Y-15433857D01*
X5884443Y-15433857D01*
X5913014Y-15448143D01*
X5927300Y-15476714D01*
X5927300Y-15633857D01*
X5927300Y-15476714D02*
X5941586Y-15448143D01*
X5970157Y-15433857D01*
X6013014Y-15433857D01*
X6041586Y-15448143D01*
X6055871Y-15476714D01*
X6055871Y-15633857D01*
X6641586Y-15319571D02*
X6384443Y-15705286D01*
X7027300Y-15333857D02*
X7055871Y-15333857D01*
X7084443Y-15348143D01*
X7098728Y-15362429D01*
X7113014Y-15391000D01*
X7127300Y-15448143D01*
X7127300Y-15519571D01*
X7113014Y-15576714D01*
X7098728Y-15605286D01*
X7084443Y-15619571D01*
X7055871Y-15633857D01*
X7027300Y-15633857D01*
X6998728Y-15619571D01*
X6984443Y-15605286D01*
X6970157Y-15576714D01*
X6955871Y-15519571D01*
X6955871Y-15448143D01*
X6970157Y-15391000D01*
X6984443Y-15362429D01*
X6998728Y-15348143D01*
X7027300Y-15333857D01*
X7255871Y-15605286D02*
X7270157Y-15619571D01*
X7255871Y-15633857D01*
X7241586Y-15619571D01*
X7255871Y-15605286D01*
X7255871Y-15633857D01*
X7455871Y-15333857D02*
X7484443Y-15333857D01*
X7513014Y-15348143D01*
X7527300Y-15362429D01*
X7541586Y-15391000D01*
X7555871Y-15448143D01*
X7555871Y-15519571D01*
X7541586Y-15576714D01*
X7527300Y-15605286D01*
X7513014Y-15619571D01*
X7484443Y-15633857D01*
X7455871Y-15633857D01*
X7427300Y-15619571D01*
X7413014Y-15605286D01*
X7398728Y-15576714D01*
X7384443Y-15519571D01*
X7384443Y-15448143D01*
X7398728Y-15391000D01*
X7413014Y-15362429D01*
X7427300Y-15348143D01*
X7455871Y-15333857D01*
X7655871Y-15333857D02*
X7841586Y-15333857D01*
X7741586Y-15448143D01*
X7784443Y-15448143D01*
X7813014Y-15462429D01*
X7827300Y-15476714D01*
X7841586Y-15505286D01*
X7841586Y-15576714D01*
X7827300Y-15605286D01*
X7813014Y-15619571D01*
X7784443Y-15633857D01*
X7698728Y-15633857D01*
X7670157Y-15619571D01*
X7655871Y-15605286D01*
X8113014Y-15333857D02*
X7970157Y-15333857D01*
X7955871Y-15476714D01*
X7970157Y-15462429D01*
X7998728Y-15448143D01*
X8070157Y-15448143D01*
X8098728Y-15462429D01*
X8113014Y-15476714D01*
X8127300Y-15505286D01*
X8127300Y-15576714D01*
X8113014Y-15605286D01*
X8098728Y-15619571D01*
X8070157Y-15633857D01*
X7998728Y-15633857D01*
X7970157Y-15619571D01*
X7955871Y-15605286D01*
X8241586Y-15333857D02*
X8241586Y-15391000D01*
X8355871Y-15333857D02*
X8355871Y-15391000D01*
X8798728Y-15748143D02*
X8784443Y-15733857D01*
X8755871Y-15691000D01*
X8741586Y-15662429D01*
X8727300Y-15619571D01*
X8713014Y-15548143D01*
X8713014Y-15491000D01*
X8727300Y-15419571D01*
X8741586Y-15376714D01*
X8755871Y-15348143D01*
X8784443Y-15305286D01*
X8798728Y-15291000D01*
X8970157Y-15333857D02*
X8998728Y-15333857D01*
X9027300Y-15348143D01*
X9041586Y-15362429D01*
X9055871Y-15391000D01*
X9070157Y-15448143D01*
X9070157Y-15519571D01*
X9055871Y-15576714D01*
X9041586Y-15605286D01*
X9027300Y-15619571D01*
X8998728Y-15633857D01*
X8970157Y-15633857D01*
X8941586Y-15619571D01*
X8927300Y-15605286D01*
X8913014Y-15576714D01*
X8898728Y-15519571D01*
X8898728Y-15448143D01*
X8913014Y-15391000D01*
X8927300Y-15362429D01*
X8941586Y-15348143D01*
X8970157Y-15333857D01*
X9427300Y-15633857D02*
X9427300Y-15333857D01*
X9555871Y-15633857D02*
X9555871Y-15476714D01*
X9541586Y-15448143D01*
X9513014Y-15433857D01*
X9470157Y-15433857D01*
X9441586Y-15448143D01*
X9427300Y-15462429D01*
X9741586Y-15633857D02*
X9713014Y-15619571D01*
X9698728Y-15605286D01*
X9684443Y-15576714D01*
X9684443Y-15491000D01*
X9698728Y-15462429D01*
X9713014Y-15448143D01*
X9741586Y-15433857D01*
X9784443Y-15433857D01*
X9813014Y-15448143D01*
X9827300Y-15462429D01*
X9841586Y-15491000D01*
X9841586Y-15576714D01*
X9827300Y-15605286D01*
X9813014Y-15619571D01*
X9784443Y-15633857D01*
X9741586Y-15633857D01*
X10013014Y-15633857D02*
X9984443Y-15619571D01*
X9970157Y-15591000D01*
X9970157Y-15333857D01*
X10241586Y-15619571D02*
X10213014Y-15633857D01*
X10155871Y-15633857D01*
X10127300Y-15619571D01*
X10113014Y-15591000D01*
X10113014Y-15476714D01*
X10127300Y-15448143D01*
X10155871Y-15433857D01*
X10213014Y-15433857D01*
X10241586Y-15448143D01*
X10255871Y-15476714D01*
X10255871Y-15505286D01*
X10113014Y-15533857D01*
X10370157Y-15619571D02*
X10398728Y-15633857D01*
X10455871Y-15633857D01*
X10484443Y-15619571D01*
X10498728Y-15591000D01*
X10498728Y-15576714D01*
X10484443Y-15548143D01*
X10455871Y-15533857D01*
X10413014Y-15533857D01*
X10384443Y-15519571D01*
X10370157Y-15491000D01*
X10370157Y-15476714D01*
X10384443Y-15448143D01*
X10413014Y-15433857D01*
X10455871Y-15433857D01*
X10484443Y-15448143D01*
X10855871Y-15519571D02*
X11084443Y-15519571D01*
X10970157Y-15633857D02*
X10970157Y-15405286D01*
X11598728Y-15333857D02*
X11455871Y-15333857D01*
X11441586Y-15476714D01*
X11455871Y-15462429D01*
X11484443Y-15448143D01*
X11555871Y-15448143D01*
X11584443Y-15462429D01*
X11598728Y-15476714D01*
X11613014Y-15505286D01*
X11613014Y-15576714D01*
X11598728Y-15605286D01*
X11584443Y-15619571D01*
X11555871Y-15633857D01*
X11484443Y-15633857D01*
X11455871Y-15619571D01*
X11441586Y-15605286D01*
X11955871Y-15619571D02*
X11984443Y-15633857D01*
X12041586Y-15633857D01*
X12070157Y-15619571D01*
X12084443Y-15591000D01*
X12084443Y-15576714D01*
X12070157Y-15548143D01*
X12041586Y-15533857D01*
X11998728Y-15533857D01*
X11970157Y-15519571D01*
X11955871Y-15491000D01*
X11955871Y-15476714D01*
X11970157Y-15448143D01*
X11998728Y-15433857D01*
X12041586Y-15433857D01*
X12070157Y-15448143D01*
X12255871Y-15633857D02*
X12227300Y-15619571D01*
X12213014Y-15591000D01*
X12213014Y-15333857D01*
X12413014Y-15633857D02*
X12384443Y-15619571D01*
X12370157Y-15605286D01*
X12355871Y-15576714D01*
X12355871Y-15491000D01*
X12370157Y-15462429D01*
X12384443Y-15448143D01*
X12413014Y-15433857D01*
X12455871Y-15433857D01*
X12484443Y-15448143D01*
X12498728Y-15462429D01*
X12513014Y-15491000D01*
X12513014Y-15576714D01*
X12498728Y-15605286D01*
X12484443Y-15619571D01*
X12455871Y-15633857D01*
X12413014Y-15633857D01*
X12598728Y-15433857D02*
X12713014Y-15433857D01*
X12641586Y-15333857D02*
X12641586Y-15591000D01*
X12655871Y-15619571D01*
X12684443Y-15633857D01*
X12713014Y-15633857D01*
X12798728Y-15619571D02*
X12827300Y-15633857D01*
X12884443Y-15633857D01*
X12913014Y-15619571D01*
X12927300Y-15591000D01*
X12927300Y-15576714D01*
X12913014Y-15548143D01*
X12884443Y-15533857D01*
X12841586Y-15533857D01*
X12813014Y-15519571D01*
X12798728Y-15491000D01*
X12798728Y-15476714D01*
X12813014Y-15448143D01*
X12841586Y-15433857D01*
X12884443Y-15433857D01*
X12913014Y-15448143D01*
X13027300Y-15748143D02*
X13041586Y-15733857D01*
X13070157Y-15691000D01*
X13084443Y-15662429D01*
X13098728Y-15619571D01*
X13113014Y-15548143D01*
X13113014Y-15491000D01*
X13098728Y-15419571D01*
X13084443Y-15376714D01*
X13070157Y-15348143D01*
X13041586Y-15305286D01*
X13027300Y-15291000D01*
X4090354Y-15947127D02*
X4090354Y-15841159D01*
X3984386Y-15841159D01*
X3984386Y-15947127D01*
X4090354Y-15947127D01*
X4555871Y-16029857D02*
X4384443Y-16029857D01*
X4470157Y-16029857D02*
X4470157Y-15729857D01*
X4441586Y-15772714D01*
X4413014Y-15801286D01*
X4384443Y-15815571D01*
X4684443Y-16001286D02*
X4698728Y-16015571D01*
X4684443Y-16029857D01*
X4670157Y-16015571D01*
X4684443Y-16001286D01*
X4684443Y-16029857D01*
X4970157Y-15729857D02*
X4827300Y-15729857D01*
X4813014Y-15872714D01*
X4827300Y-15858429D01*
X4855871Y-15844143D01*
X4927300Y-15844143D01*
X4955871Y-15858429D01*
X4970157Y-15872714D01*
X4984443Y-15901286D01*
X4984443Y-15972714D01*
X4970157Y-16001286D01*
X4955871Y-16015571D01*
X4927300Y-16029857D01*
X4855871Y-16029857D01*
X4827300Y-16015571D01*
X4813014Y-16001286D01*
X5170157Y-15729857D02*
X5198728Y-15729857D01*
X5227300Y-15744143D01*
X5241586Y-15758429D01*
X5255871Y-15787000D01*
X5270157Y-15844143D01*
X5270157Y-15915571D01*
X5255871Y-15972714D01*
X5241586Y-16001286D01*
X5227300Y-16015571D01*
X5198728Y-16029857D01*
X5170157Y-16029857D01*
X5141586Y-16015571D01*
X5127300Y-16001286D01*
X5113014Y-15972714D01*
X5098728Y-15915571D01*
X5098728Y-15844143D01*
X5113014Y-15787000D01*
X5127300Y-15758429D01*
X5141586Y-15744143D01*
X5170157Y-15729857D01*
X5398728Y-16029857D02*
X5398728Y-15829857D01*
X5398728Y-15858429D02*
X5413014Y-15844143D01*
X5441586Y-15829857D01*
X5484443Y-15829857D01*
X5513014Y-15844143D01*
X5527300Y-15872714D01*
X5527300Y-16029857D01*
X5527300Y-15872714D02*
X5541586Y-15844143D01*
X5570157Y-15829857D01*
X5613014Y-15829857D01*
X5641586Y-15844143D01*
X5655871Y-15872714D01*
X5655871Y-16029857D01*
X5798728Y-16029857D02*
X5798728Y-15829857D01*
X5798728Y-15858429D02*
X5813014Y-15844143D01*
X5841586Y-15829857D01*
X5884443Y-15829857D01*
X5913014Y-15844143D01*
X5927300Y-15872714D01*
X5927300Y-16029857D01*
X5927300Y-15872714D02*
X5941586Y-15844143D01*
X5970157Y-15829857D01*
X6013014Y-15829857D01*
X6041586Y-15844143D01*
X6055871Y-15872714D01*
X6055871Y-16029857D01*
X6641586Y-15715571D02*
X6384443Y-16101286D01*
X7027300Y-15729857D02*
X7055871Y-15729857D01*
X7084443Y-15744143D01*
X7098728Y-15758429D01*
X7113014Y-15787000D01*
X7127300Y-15844143D01*
X7127300Y-15915571D01*
X7113014Y-15972714D01*
X7098728Y-16001286D01*
X7084443Y-16015571D01*
X7055871Y-16029857D01*
X7027300Y-16029857D01*
X6998728Y-16015571D01*
X6984443Y-16001286D01*
X6970157Y-15972714D01*
X6955871Y-15915571D01*
X6955871Y-15844143D01*
X6970157Y-15787000D01*
X6984443Y-15758429D01*
X6998728Y-15744143D01*
X7027300Y-15729857D01*
X7255871Y-16001286D02*
X7270157Y-16015571D01*
X7255871Y-16029857D01*
X7241586Y-16015571D01*
X7255871Y-16001286D01*
X7255871Y-16029857D01*
X7455871Y-15729857D02*
X7484443Y-15729857D01*
X7513014Y-15744143D01*
X7527300Y-15758429D01*
X7541586Y-15787000D01*
X7555871Y-15844143D01*
X7555871Y-15915571D01*
X7541586Y-15972714D01*
X7527300Y-16001286D01*
X7513014Y-16015571D01*
X7484443Y-16029857D01*
X7455871Y-16029857D01*
X7427300Y-16015571D01*
X7413014Y-16001286D01*
X7398728Y-15972714D01*
X7384443Y-15915571D01*
X7384443Y-15844143D01*
X7398728Y-15787000D01*
X7413014Y-15758429D01*
X7427300Y-15744143D01*
X7455871Y-15729857D01*
X7827300Y-15729857D02*
X7684443Y-15729857D01*
X7670157Y-15872714D01*
X7684443Y-15858429D01*
X7713014Y-15844143D01*
X7784443Y-15844143D01*
X7813014Y-15858429D01*
X7827300Y-15872714D01*
X7841586Y-15901286D01*
X7841586Y-15972714D01*
X7827300Y-16001286D01*
X7813014Y-16015571D01*
X7784443Y-16029857D01*
X7713014Y-16029857D01*
X7684443Y-16015571D01*
X7670157Y-16001286D01*
X7984443Y-16029857D02*
X8041586Y-16029857D01*
X8070157Y-16015571D01*
X8084443Y-16001286D01*
X8113014Y-15958429D01*
X8127300Y-15901286D01*
X8127300Y-15787000D01*
X8113014Y-15758429D01*
X8098728Y-15744143D01*
X8070157Y-15729857D01*
X8013014Y-15729857D01*
X7984443Y-15744143D01*
X7970157Y-15758429D01*
X7955871Y-15787000D01*
X7955871Y-15858429D01*
X7970157Y-15887000D01*
X7984443Y-15901286D01*
X8013014Y-15915571D01*
X8070157Y-15915571D01*
X8098728Y-15901286D01*
X8113014Y-15887000D01*
X8127300Y-15858429D01*
X8241586Y-15729857D02*
X8241586Y-15787000D01*
X8355871Y-15729857D02*
X8355871Y-15787000D01*
X8798728Y-16144143D02*
X8784443Y-16129857D01*
X8755871Y-16087000D01*
X8741586Y-16058429D01*
X8727300Y-16015571D01*
X8713014Y-15944143D01*
X8713014Y-15887000D01*
X8727300Y-15815571D01*
X8741586Y-15772714D01*
X8755871Y-15744143D01*
X8784443Y-15701286D01*
X8798728Y-15687000D01*
X8955871Y-15858429D02*
X8927300Y-15844143D01*
X8913014Y-15829857D01*
X8898728Y-15801286D01*
X8898728Y-15787000D01*
X8913014Y-15758429D01*
X8927300Y-15744143D01*
X8955871Y-15729857D01*
X9013014Y-15729857D01*
X9041586Y-15744143D01*
X9055871Y-15758429D01*
X9070157Y-15787000D01*
X9070157Y-15801286D01*
X9055871Y-15829857D01*
X9041586Y-15844143D01*
X9013014Y-15858429D01*
X8955871Y-15858429D01*
X8927300Y-15872714D01*
X8913014Y-15887000D01*
X8898728Y-15915571D01*
X8898728Y-15972714D01*
X8913014Y-16001286D01*
X8927300Y-16015571D01*
X8955871Y-16029857D01*
X9013014Y-16029857D01*
X9041586Y-16015571D01*
X9055871Y-16001286D01*
X9070157Y-15972714D01*
X9070157Y-15915571D01*
X9055871Y-15887000D01*
X9041586Y-15872714D01*
X9013014Y-15858429D01*
X9327300Y-15829857D02*
X9327300Y-16029857D01*
X9255871Y-15715571D02*
X9184443Y-15929857D01*
X9370157Y-15929857D01*
X9713014Y-16029857D02*
X9713014Y-15729857D01*
X9841586Y-16029857D02*
X9841586Y-15872714D01*
X9827300Y-15844143D01*
X9798728Y-15829857D01*
X9755871Y-15829857D01*
X9727300Y-15844143D01*
X9713014Y-15858429D01*
X10027300Y-16029857D02*
X9998728Y-16015571D01*
X9984443Y-16001286D01*
X9970157Y-15972714D01*
X9970157Y-15887000D01*
X9984443Y-15858429D01*
X9998728Y-15844143D01*
X10027300Y-15829857D01*
X10070157Y-15829857D01*
X10098728Y-15844143D01*
X10113014Y-15858429D01*
X10127300Y-15887000D01*
X10127300Y-15972714D01*
X10113014Y-16001286D01*
X10098728Y-16015571D01*
X10070157Y-16029857D01*
X10027300Y-16029857D01*
X10298728Y-16029857D02*
X10270157Y-16015571D01*
X10255871Y-15987000D01*
X10255871Y-15729857D01*
X10527300Y-16015571D02*
X10498728Y-16029857D01*
X10441586Y-16029857D01*
X10413014Y-16015571D01*
X10398728Y-15987000D01*
X10398728Y-15872714D01*
X10413014Y-15844143D01*
X10441586Y-15829857D01*
X10498728Y-15829857D01*
X10527300Y-15844143D01*
X10541586Y-15872714D01*
X10541586Y-15901286D01*
X10398728Y-15929857D01*
X10655871Y-16015571D02*
X10684443Y-16029857D01*
X10741586Y-16029857D01*
X10770157Y-16015571D01*
X10784443Y-15987000D01*
X10784443Y-15972714D01*
X10770157Y-15944143D01*
X10741586Y-15929857D01*
X10698728Y-15929857D01*
X10670157Y-15915571D01*
X10655871Y-15887000D01*
X10655871Y-15872714D01*
X10670157Y-15844143D01*
X10698728Y-15829857D01*
X10741586Y-15829857D01*
X10770157Y-15844143D01*
X10884443Y-16144143D02*
X10898728Y-16129857D01*
X10927300Y-16087000D01*
X10941586Y-16058429D01*
X10955871Y-16015571D01*
X10970157Y-15944143D01*
X10970157Y-15887000D01*
X10955871Y-15815571D01*
X10941586Y-15772714D01*
X10927300Y-15744143D01*
X10898728Y-15701286D01*
X10884443Y-15687000D01*
M02*
