%TF.GenerationSoftware,KiCad,Pcbnew,(5.1.10-1-10_14)*%
%TF.CreationDate,2022-01-29T17:31:24-08:00*%
%TF.ProjectId,phase,70686173-652e-46b6-9963-61645f706362,v1.0.1*%
%TF.SameCoordinates,Original*%
%TF.FileFunction,Paste,Bot*%
%TF.FilePolarity,Positive*%
%FSLAX46Y46*%
G04 Gerber Fmt 4.6, Leading zero omitted, Abs format (unit mm)*
G04 Created by KiCad (PCBNEW (5.1.10-1-10_14)) date 2022-01-29 17:31:24*
%MOMM*%
%LPD*%
G01*
G04 APERTURE LIST*
%ADD10R,1.200000X0.900000*%
%ADD11C,0.100000*%
%ADD12R,2.550000X2.500000*%
G04 APERTURE END LIST*
D10*
%TO.C,D1*%
X59500000Y-74950000D03*
X59500000Y-78250000D03*
%TD*%
%TO.C,D2*%
X59500000Y-93950000D03*
X59500000Y-97250000D03*
%TD*%
%TO.C,D3*%
X59500000Y-112950000D03*
X59500000Y-116250000D03*
%TD*%
%TO.C,D4*%
X78500000Y-74950000D03*
X78500000Y-78250000D03*
%TD*%
%TO.C,D5*%
X78500000Y-93950000D03*
X78500000Y-97250000D03*
%TD*%
%TO.C,D6*%
X78500000Y-112950000D03*
X78500000Y-116250000D03*
%TD*%
%TO.C,D7*%
X97500000Y-65450000D03*
X97500000Y-68750000D03*
%TD*%
%TO.C,D8*%
X97500000Y-84450000D03*
X97500000Y-87750000D03*
%TD*%
%TO.C,D9*%
X97500000Y-103450000D03*
X97500000Y-106750000D03*
%TD*%
%TO.C,D10*%
X116500000Y-60700000D03*
X116500000Y-64000000D03*
%TD*%
%TO.C,D11*%
X116500000Y-79700000D03*
X116500000Y-83000000D03*
%TD*%
%TO.C,D12*%
X116500000Y-98700000D03*
X116500000Y-102000000D03*
%TD*%
%TO.C,D13*%
X126000000Y-122450000D03*
X126000000Y-125750000D03*
%TD*%
%TO.C,D14*%
X135500000Y-65450000D03*
X135500000Y-68750000D03*
%TD*%
%TO.C,D15*%
X135500000Y-84450000D03*
X135500000Y-87750000D03*
%TD*%
%TO.C,D16*%
X135500000Y-103450000D03*
X135500000Y-106750000D03*
%TD*%
D11*
%TO.C,D17*%
G36*
X145130138Y-127999180D02*
G01*
X143971027Y-127688597D01*
X144203964Y-126819264D01*
X145363075Y-127129847D01*
X145130138Y-127999180D01*
G37*
G36*
X144276036Y-131186736D02*
G01*
X143116925Y-130876153D01*
X143349862Y-130006820D01*
X144508973Y-130317403D01*
X144276036Y-131186736D01*
G37*
%TD*%
D10*
%TO.C,D18*%
X154500000Y-67825000D03*
X154500000Y-71125000D03*
%TD*%
%TO.C,D19*%
X154500000Y-86825000D03*
X154500000Y-90125000D03*
%TD*%
%TO.C,D20*%
X154500000Y-105825000D03*
X154500000Y-109125000D03*
%TD*%
D11*
%TO.C,D21*%
G36*
X164084615Y-133606769D02*
G01*
X163045385Y-133006769D01*
X163495385Y-132227347D01*
X164534615Y-132827347D01*
X164084615Y-133606769D01*
G37*
G36*
X162434615Y-136464653D02*
G01*
X161395385Y-135864653D01*
X161845385Y-135085231D01*
X162884615Y-135685231D01*
X162434615Y-136464653D01*
G37*
%TD*%
%TO.C,C9*%
G36*
G01*
X102165999Y-118805000D02*
X103066001Y-118805000D01*
G75*
G02*
X103316000Y-119054999I0J-249999D01*
G01*
X103316000Y-119705001D01*
G75*
G02*
X103066001Y-119955000I-249999J0D01*
G01*
X102165999Y-119955000D01*
G75*
G02*
X101916000Y-119705001I0J249999D01*
G01*
X101916000Y-119054999D01*
G75*
G02*
X102165999Y-118805000I249999J0D01*
G01*
G37*
G36*
G01*
X102165999Y-116755000D02*
X103066001Y-116755000D01*
G75*
G02*
X103316000Y-117004999I0J-249999D01*
G01*
X103316000Y-117655001D01*
G75*
G02*
X103066001Y-117905000I-249999J0D01*
G01*
X102165999Y-117905000D01*
G75*
G02*
X101916000Y-117655001I0J249999D01*
G01*
X101916000Y-117004999D01*
G75*
G02*
X102165999Y-116755000I249999J0D01*
G01*
G37*
%TD*%
D12*
%TO.C,K1*%
X57560000Y-71540000D03*
X43710000Y-74080000D03*
%TD*%
%TO.C,K2*%
X57560000Y-90540000D03*
X43710000Y-93080000D03*
%TD*%
%TO.C,K3*%
X57560000Y-109540000D03*
X43710000Y-112080000D03*
%TD*%
%TO.C,K4*%
X76560000Y-71540000D03*
X62710000Y-74080000D03*
%TD*%
%TO.C,K5*%
X76560000Y-90540000D03*
X62710000Y-93080000D03*
%TD*%
%TO.C,K6*%
X76560000Y-109540000D03*
X62710000Y-112080000D03*
%TD*%
%TO.C,K7*%
X95560000Y-62040000D03*
X81710000Y-64580000D03*
%TD*%
%TO.C,K8*%
X95560000Y-81040000D03*
X81710000Y-83580000D03*
%TD*%
%TO.C,K9*%
X95560000Y-100040000D03*
X81710000Y-102580000D03*
%TD*%
%TO.C,K10*%
X114560000Y-57290000D03*
X100710000Y-59830000D03*
%TD*%
%TO.C,K11*%
X114560000Y-76290000D03*
X100710000Y-78830000D03*
%TD*%
%TO.C,K12*%
X114560000Y-95290000D03*
X100710000Y-97830000D03*
%TD*%
%TO.C,K13*%
X124060000Y-119040000D03*
X110210000Y-121580000D03*
%TD*%
%TO.C,K14*%
X133560000Y-62040000D03*
X119710000Y-64580000D03*
%TD*%
%TO.C,K15*%
X133560000Y-81040000D03*
X119710000Y-83580000D03*
%TD*%
%TO.C,K16*%
X133560000Y-100040000D03*
X119710000Y-102580000D03*
%TD*%
D11*
%TO.C,K17*%
G36*
X142120920Y-124490537D02*
G01*
X142767967Y-122075722D01*
X145231078Y-122735711D01*
X144584031Y-125150526D01*
X142120920Y-124490537D01*
G37*
G36*
X128085447Y-123359344D02*
G01*
X128732494Y-120944529D01*
X131195605Y-121604518D01*
X130548558Y-124019333D01*
X128085447Y-123359344D01*
G37*
%TD*%
D12*
%TO.C,K18*%
X152560000Y-64415000D03*
X138710000Y-66955000D03*
%TD*%
%TO.C,K19*%
X152560000Y-83415000D03*
X138710000Y-85955000D03*
%TD*%
%TO.C,K20*%
X152560000Y-102415000D03*
X138710000Y-104955000D03*
%TD*%
D11*
%TO.C,K21*%
G36*
X162085970Y-129438737D02*
G01*
X163335970Y-127273673D01*
X165544334Y-128548673D01*
X164294334Y-130713737D01*
X162085970Y-129438737D01*
G37*
G36*
X148821518Y-124713441D02*
G01*
X150071518Y-122548377D01*
X152279882Y-123823377D01*
X151029882Y-125988441D01*
X148821518Y-124713441D01*
G37*
%TD*%
%TO.C,U2*%
G36*
G01*
X98645000Y-120007000D02*
X98645000Y-119807000D01*
G75*
G02*
X98745000Y-119707000I100000J0D01*
G01*
X100020000Y-119707000D01*
G75*
G02*
X100120000Y-119807000I0J-100000D01*
G01*
X100120000Y-120007000D01*
G75*
G02*
X100020000Y-120107000I-100000J0D01*
G01*
X98745000Y-120107000D01*
G75*
G02*
X98645000Y-120007000I0J100000D01*
G01*
G37*
G36*
G01*
X98645000Y-119357000D02*
X98645000Y-119157000D01*
G75*
G02*
X98745000Y-119057000I100000J0D01*
G01*
X100020000Y-119057000D01*
G75*
G02*
X100120000Y-119157000I0J-100000D01*
G01*
X100120000Y-119357000D01*
G75*
G02*
X100020000Y-119457000I-100000J0D01*
G01*
X98745000Y-119457000D01*
G75*
G02*
X98645000Y-119357000I0J100000D01*
G01*
G37*
G36*
G01*
X98645000Y-118707000D02*
X98645000Y-118507000D01*
G75*
G02*
X98745000Y-118407000I100000J0D01*
G01*
X100020000Y-118407000D01*
G75*
G02*
X100120000Y-118507000I0J-100000D01*
G01*
X100120000Y-118707000D01*
G75*
G02*
X100020000Y-118807000I-100000J0D01*
G01*
X98745000Y-118807000D01*
G75*
G02*
X98645000Y-118707000I0J100000D01*
G01*
G37*
G36*
G01*
X98645000Y-118057000D02*
X98645000Y-117857000D01*
G75*
G02*
X98745000Y-117757000I100000J0D01*
G01*
X100020000Y-117757000D01*
G75*
G02*
X100120000Y-117857000I0J-100000D01*
G01*
X100120000Y-118057000D01*
G75*
G02*
X100020000Y-118157000I-100000J0D01*
G01*
X98745000Y-118157000D01*
G75*
G02*
X98645000Y-118057000I0J100000D01*
G01*
G37*
G36*
G01*
X98645000Y-117407000D02*
X98645000Y-117207000D01*
G75*
G02*
X98745000Y-117107000I100000J0D01*
G01*
X100020000Y-117107000D01*
G75*
G02*
X100120000Y-117207000I0J-100000D01*
G01*
X100120000Y-117407000D01*
G75*
G02*
X100020000Y-117507000I-100000J0D01*
G01*
X98745000Y-117507000D01*
G75*
G02*
X98645000Y-117407000I0J100000D01*
G01*
G37*
G36*
G01*
X98645000Y-116757000D02*
X98645000Y-116557000D01*
G75*
G02*
X98745000Y-116457000I100000J0D01*
G01*
X100020000Y-116457000D01*
G75*
G02*
X100120000Y-116557000I0J-100000D01*
G01*
X100120000Y-116757000D01*
G75*
G02*
X100020000Y-116857000I-100000J0D01*
G01*
X98745000Y-116857000D01*
G75*
G02*
X98645000Y-116757000I0J100000D01*
G01*
G37*
G36*
G01*
X98645000Y-116107000D02*
X98645000Y-115907000D01*
G75*
G02*
X98745000Y-115807000I100000J0D01*
G01*
X100020000Y-115807000D01*
G75*
G02*
X100120000Y-115907000I0J-100000D01*
G01*
X100120000Y-116107000D01*
G75*
G02*
X100020000Y-116207000I-100000J0D01*
G01*
X98745000Y-116207000D01*
G75*
G02*
X98645000Y-116107000I0J100000D01*
G01*
G37*
G36*
G01*
X98645000Y-115457000D02*
X98645000Y-115257000D01*
G75*
G02*
X98745000Y-115157000I100000J0D01*
G01*
X100020000Y-115157000D01*
G75*
G02*
X100120000Y-115257000I0J-100000D01*
G01*
X100120000Y-115457000D01*
G75*
G02*
X100020000Y-115557000I-100000J0D01*
G01*
X98745000Y-115557000D01*
G75*
G02*
X98645000Y-115457000I0J100000D01*
G01*
G37*
G36*
G01*
X98645000Y-114807000D02*
X98645000Y-114607000D01*
G75*
G02*
X98745000Y-114507000I100000J0D01*
G01*
X100020000Y-114507000D01*
G75*
G02*
X100120000Y-114607000I0J-100000D01*
G01*
X100120000Y-114807000D01*
G75*
G02*
X100020000Y-114907000I-100000J0D01*
G01*
X98745000Y-114907000D01*
G75*
G02*
X98645000Y-114807000I0J100000D01*
G01*
G37*
G36*
G01*
X98645000Y-114157000D02*
X98645000Y-113957000D01*
G75*
G02*
X98745000Y-113857000I100000J0D01*
G01*
X100020000Y-113857000D01*
G75*
G02*
X100120000Y-113957000I0J-100000D01*
G01*
X100120000Y-114157000D01*
G75*
G02*
X100020000Y-114257000I-100000J0D01*
G01*
X98745000Y-114257000D01*
G75*
G02*
X98645000Y-114157000I0J100000D01*
G01*
G37*
G36*
G01*
X98645000Y-113507000D02*
X98645000Y-113307000D01*
G75*
G02*
X98745000Y-113207000I100000J0D01*
G01*
X100020000Y-113207000D01*
G75*
G02*
X100120000Y-113307000I0J-100000D01*
G01*
X100120000Y-113507000D01*
G75*
G02*
X100020000Y-113607000I-100000J0D01*
G01*
X98745000Y-113607000D01*
G75*
G02*
X98645000Y-113507000I0J100000D01*
G01*
G37*
G36*
G01*
X98645000Y-112857000D02*
X98645000Y-112657000D01*
G75*
G02*
X98745000Y-112557000I100000J0D01*
G01*
X100020000Y-112557000D01*
G75*
G02*
X100120000Y-112657000I0J-100000D01*
G01*
X100120000Y-112857000D01*
G75*
G02*
X100020000Y-112957000I-100000J0D01*
G01*
X98745000Y-112957000D01*
G75*
G02*
X98645000Y-112857000I0J100000D01*
G01*
G37*
G36*
G01*
X92920000Y-112857000D02*
X92920000Y-112657000D01*
G75*
G02*
X93020000Y-112557000I100000J0D01*
G01*
X94295000Y-112557000D01*
G75*
G02*
X94395000Y-112657000I0J-100000D01*
G01*
X94395000Y-112857000D01*
G75*
G02*
X94295000Y-112957000I-100000J0D01*
G01*
X93020000Y-112957000D01*
G75*
G02*
X92920000Y-112857000I0J100000D01*
G01*
G37*
G36*
G01*
X92920000Y-113507000D02*
X92920000Y-113307000D01*
G75*
G02*
X93020000Y-113207000I100000J0D01*
G01*
X94295000Y-113207000D01*
G75*
G02*
X94395000Y-113307000I0J-100000D01*
G01*
X94395000Y-113507000D01*
G75*
G02*
X94295000Y-113607000I-100000J0D01*
G01*
X93020000Y-113607000D01*
G75*
G02*
X92920000Y-113507000I0J100000D01*
G01*
G37*
G36*
G01*
X92920000Y-114157000D02*
X92920000Y-113957000D01*
G75*
G02*
X93020000Y-113857000I100000J0D01*
G01*
X94295000Y-113857000D01*
G75*
G02*
X94395000Y-113957000I0J-100000D01*
G01*
X94395000Y-114157000D01*
G75*
G02*
X94295000Y-114257000I-100000J0D01*
G01*
X93020000Y-114257000D01*
G75*
G02*
X92920000Y-114157000I0J100000D01*
G01*
G37*
G36*
G01*
X92920000Y-114807000D02*
X92920000Y-114607000D01*
G75*
G02*
X93020000Y-114507000I100000J0D01*
G01*
X94295000Y-114507000D01*
G75*
G02*
X94395000Y-114607000I0J-100000D01*
G01*
X94395000Y-114807000D01*
G75*
G02*
X94295000Y-114907000I-100000J0D01*
G01*
X93020000Y-114907000D01*
G75*
G02*
X92920000Y-114807000I0J100000D01*
G01*
G37*
G36*
G01*
X92920000Y-115457000D02*
X92920000Y-115257000D01*
G75*
G02*
X93020000Y-115157000I100000J0D01*
G01*
X94295000Y-115157000D01*
G75*
G02*
X94395000Y-115257000I0J-100000D01*
G01*
X94395000Y-115457000D01*
G75*
G02*
X94295000Y-115557000I-100000J0D01*
G01*
X93020000Y-115557000D01*
G75*
G02*
X92920000Y-115457000I0J100000D01*
G01*
G37*
G36*
G01*
X92920000Y-116107000D02*
X92920000Y-115907000D01*
G75*
G02*
X93020000Y-115807000I100000J0D01*
G01*
X94295000Y-115807000D01*
G75*
G02*
X94395000Y-115907000I0J-100000D01*
G01*
X94395000Y-116107000D01*
G75*
G02*
X94295000Y-116207000I-100000J0D01*
G01*
X93020000Y-116207000D01*
G75*
G02*
X92920000Y-116107000I0J100000D01*
G01*
G37*
G36*
G01*
X92920000Y-116757000D02*
X92920000Y-116557000D01*
G75*
G02*
X93020000Y-116457000I100000J0D01*
G01*
X94295000Y-116457000D01*
G75*
G02*
X94395000Y-116557000I0J-100000D01*
G01*
X94395000Y-116757000D01*
G75*
G02*
X94295000Y-116857000I-100000J0D01*
G01*
X93020000Y-116857000D01*
G75*
G02*
X92920000Y-116757000I0J100000D01*
G01*
G37*
G36*
G01*
X92920000Y-117407000D02*
X92920000Y-117207000D01*
G75*
G02*
X93020000Y-117107000I100000J0D01*
G01*
X94295000Y-117107000D01*
G75*
G02*
X94395000Y-117207000I0J-100000D01*
G01*
X94395000Y-117407000D01*
G75*
G02*
X94295000Y-117507000I-100000J0D01*
G01*
X93020000Y-117507000D01*
G75*
G02*
X92920000Y-117407000I0J100000D01*
G01*
G37*
G36*
G01*
X92920000Y-118057000D02*
X92920000Y-117857000D01*
G75*
G02*
X93020000Y-117757000I100000J0D01*
G01*
X94295000Y-117757000D01*
G75*
G02*
X94395000Y-117857000I0J-100000D01*
G01*
X94395000Y-118057000D01*
G75*
G02*
X94295000Y-118157000I-100000J0D01*
G01*
X93020000Y-118157000D01*
G75*
G02*
X92920000Y-118057000I0J100000D01*
G01*
G37*
G36*
G01*
X92920000Y-118707000D02*
X92920000Y-118507000D01*
G75*
G02*
X93020000Y-118407000I100000J0D01*
G01*
X94295000Y-118407000D01*
G75*
G02*
X94395000Y-118507000I0J-100000D01*
G01*
X94395000Y-118707000D01*
G75*
G02*
X94295000Y-118807000I-100000J0D01*
G01*
X93020000Y-118807000D01*
G75*
G02*
X92920000Y-118707000I0J100000D01*
G01*
G37*
G36*
G01*
X92920000Y-119357000D02*
X92920000Y-119157000D01*
G75*
G02*
X93020000Y-119057000I100000J0D01*
G01*
X94295000Y-119057000D01*
G75*
G02*
X94395000Y-119157000I0J-100000D01*
G01*
X94395000Y-119357000D01*
G75*
G02*
X94295000Y-119457000I-100000J0D01*
G01*
X93020000Y-119457000D01*
G75*
G02*
X92920000Y-119357000I0J100000D01*
G01*
G37*
G36*
G01*
X92920000Y-120007000D02*
X92920000Y-119807000D01*
G75*
G02*
X93020000Y-119707000I100000J0D01*
G01*
X94295000Y-119707000D01*
G75*
G02*
X94395000Y-119807000I0J-100000D01*
G01*
X94395000Y-120007000D01*
G75*
G02*
X94295000Y-120107000I-100000J0D01*
G01*
X93020000Y-120107000D01*
G75*
G02*
X92920000Y-120007000I0J100000D01*
G01*
G37*
%TD*%
M02*
