%TF.GenerationSoftware,KiCad,Pcbnew,(5.1.6-0-10_14)*%
%TF.CreationDate,2020-09-21T09:47:25-07:00*%
%TF.ProjectId,my-keyboard,6d792d6b-6579-4626-9f61-72642e6b6963,rev?*%
%TF.SameCoordinates,Original*%
%TF.FileFunction,Paste,Top*%
%TF.FilePolarity,Positive*%
%FSLAX46Y46*%
G04 Gerber Fmt 4.6, Leading zero omitted, Abs format (unit mm)*
G04 Created by KiCad (PCBNEW (5.1.6-0-10_14)) date 2020-09-21 09:47:25*
%MOMM*%
%LPD*%
G01*
G04 APERTURE LIST*
%ADD10R,1.200000X0.900000*%
%ADD11C,0.100000*%
%ADD12R,0.300000X1.450000*%
%ADD13R,0.600000X1.450000*%
%ADD14R,2.550000X2.500000*%
%ADD15R,1.500000X0.550000*%
%ADD16R,0.550000X1.500000*%
%ADD17R,2.100000X1.800000*%
G04 APERTURE END LIST*
%TO.C,SW1*%
G36*
G01*
X81347000Y-110293999D02*
X81347000Y-111194001D01*
G75*
G02*
X81097001Y-111444000I-249999J0D01*
G01*
X80446999Y-111444000D01*
G75*
G02*
X80197000Y-111194001I0J249999D01*
G01*
X80197000Y-110293999D01*
G75*
G02*
X80446999Y-110044000I249999J0D01*
G01*
X81097001Y-110044000D01*
G75*
G02*
X81347000Y-110293999I0J-249999D01*
G01*
G37*
G36*
G01*
X83397000Y-110293999D02*
X83397000Y-111194001D01*
G75*
G02*
X83147001Y-111444000I-249999J0D01*
G01*
X82496999Y-111444000D01*
G75*
G02*
X82247000Y-111194001I0J249999D01*
G01*
X82247000Y-110293999D01*
G75*
G02*
X82496999Y-110044000I249999J0D01*
G01*
X83147001Y-110044000D01*
G75*
G02*
X83397000Y-110293999I0J-249999D01*
G01*
G37*
%TD*%
%TO.C,C1*%
G36*
G01*
X83753000Y-119830001D02*
X83753000Y-118929999D01*
G75*
G02*
X84002999Y-118680000I249999J0D01*
G01*
X84653001Y-118680000D01*
G75*
G02*
X84903000Y-118929999I0J-249999D01*
G01*
X84903000Y-119830001D01*
G75*
G02*
X84653001Y-120080000I-249999J0D01*
G01*
X84002999Y-120080000D01*
G75*
G02*
X83753000Y-119830001I0J249999D01*
G01*
G37*
G36*
G01*
X81703000Y-119830001D02*
X81703000Y-118929999D01*
G75*
G02*
X81952999Y-118680000I249999J0D01*
G01*
X82603001Y-118680000D01*
G75*
G02*
X82853000Y-118929999I0J-249999D01*
G01*
X82853000Y-119830001D01*
G75*
G02*
X82603001Y-120080000I-249999J0D01*
G01*
X81952999Y-120080000D01*
G75*
G02*
X81703000Y-119830001I0J249999D01*
G01*
G37*
%TD*%
%TO.C,C2*%
G36*
G01*
X85901000Y-110293999D02*
X85901000Y-111194001D01*
G75*
G02*
X85651001Y-111444000I-249999J0D01*
G01*
X85000999Y-111444000D01*
G75*
G02*
X84751000Y-111194001I0J249999D01*
G01*
X84751000Y-110293999D01*
G75*
G02*
X85000999Y-110044000I249999J0D01*
G01*
X85651001Y-110044000D01*
G75*
G02*
X85901000Y-110293999I0J-249999D01*
G01*
G37*
G36*
G01*
X87951000Y-110293999D02*
X87951000Y-111194001D01*
G75*
G02*
X87701001Y-111444000I-249999J0D01*
G01*
X87050999Y-111444000D01*
G75*
G02*
X86801000Y-111194001I0J249999D01*
G01*
X86801000Y-110293999D01*
G75*
G02*
X87050999Y-110044000I249999J0D01*
G01*
X87701001Y-110044000D01*
G75*
G02*
X87951000Y-110293999I0J-249999D01*
G01*
G37*
%TD*%
%TO.C,C3*%
G36*
G01*
X105213999Y-121354000D02*
X106114001Y-121354000D01*
G75*
G02*
X106364000Y-121603999I0J-249999D01*
G01*
X106364000Y-122254001D01*
G75*
G02*
X106114001Y-122504000I-249999J0D01*
G01*
X105213999Y-122504000D01*
G75*
G02*
X104964000Y-122254001I0J249999D01*
G01*
X104964000Y-121603999D01*
G75*
G02*
X105213999Y-121354000I249999J0D01*
G01*
G37*
G36*
G01*
X105213999Y-119304000D02*
X106114001Y-119304000D01*
G75*
G02*
X106364000Y-119553999I0J-249999D01*
G01*
X106364000Y-120204001D01*
G75*
G02*
X106114001Y-120454000I-249999J0D01*
G01*
X105213999Y-120454000D01*
G75*
G02*
X104964000Y-120204001I0J249999D01*
G01*
X104964000Y-119553999D01*
G75*
G02*
X105213999Y-119304000I249999J0D01*
G01*
G37*
%TD*%
%TO.C,C4*%
G36*
G01*
X86925999Y-120837000D02*
X87826001Y-120837000D01*
G75*
G02*
X88076000Y-121086999I0J-249999D01*
G01*
X88076000Y-121737001D01*
G75*
G02*
X87826001Y-121987000I-249999J0D01*
G01*
X86925999Y-121987000D01*
G75*
G02*
X86676000Y-121737001I0J249999D01*
G01*
X86676000Y-121086999D01*
G75*
G02*
X86925999Y-120837000I249999J0D01*
G01*
G37*
G36*
G01*
X86925999Y-118787000D02*
X87826001Y-118787000D01*
G75*
G02*
X88076000Y-119036999I0J-249999D01*
G01*
X88076000Y-119687001D01*
G75*
G02*
X87826001Y-119937000I-249999J0D01*
G01*
X86925999Y-119937000D01*
G75*
G02*
X86676000Y-119687001I0J249999D01*
G01*
X86676000Y-119036999D01*
G75*
G02*
X86925999Y-118787000I249999J0D01*
G01*
G37*
%TD*%
%TO.C,C5*%
G36*
G01*
X86801000Y-108146001D02*
X86801000Y-107245999D01*
G75*
G02*
X87050999Y-106996000I249999J0D01*
G01*
X87701001Y-106996000D01*
G75*
G02*
X87951000Y-107245999I0J-249999D01*
G01*
X87951000Y-108146001D01*
G75*
G02*
X87701001Y-108396000I-249999J0D01*
G01*
X87050999Y-108396000D01*
G75*
G02*
X86801000Y-108146001I0J249999D01*
G01*
G37*
G36*
G01*
X84751000Y-108146001D02*
X84751000Y-107245999D01*
G75*
G02*
X85000999Y-106996000I249999J0D01*
G01*
X85651001Y-106996000D01*
G75*
G02*
X85901000Y-107245999I0J-249999D01*
G01*
X85901000Y-108146001D01*
G75*
G02*
X85651001Y-108396000I-249999J0D01*
G01*
X85000999Y-108396000D01*
G75*
G02*
X84751000Y-108146001I0J249999D01*
G01*
G37*
%TD*%
%TO.C,C6*%
G36*
G01*
X101141000Y-106737999D02*
X101141000Y-107638001D01*
G75*
G02*
X100891001Y-107888000I-249999J0D01*
G01*
X100240999Y-107888000D01*
G75*
G02*
X99991000Y-107638001I0J249999D01*
G01*
X99991000Y-106737999D01*
G75*
G02*
X100240999Y-106488000I249999J0D01*
G01*
X100891001Y-106488000D01*
G75*
G02*
X101141000Y-106737999I0J-249999D01*
G01*
G37*
G36*
G01*
X103191000Y-106737999D02*
X103191000Y-107638001D01*
G75*
G02*
X102941001Y-107888000I-249999J0D01*
G01*
X102290999Y-107888000D01*
G75*
G02*
X102041000Y-107638001I0J249999D01*
G01*
X102041000Y-106737999D01*
G75*
G02*
X102290999Y-106488000I249999J0D01*
G01*
X102941001Y-106488000D01*
G75*
G02*
X103191000Y-106737999I0J-249999D01*
G01*
G37*
%TD*%
%TO.C,C7*%
G36*
G01*
X106114001Y-111310000D02*
X105213999Y-111310000D01*
G75*
G02*
X104964000Y-111060001I0J249999D01*
G01*
X104964000Y-110409999D01*
G75*
G02*
X105213999Y-110160000I249999J0D01*
G01*
X106114001Y-110160000D01*
G75*
G02*
X106364000Y-110409999I0J-249999D01*
G01*
X106364000Y-111060001D01*
G75*
G02*
X106114001Y-111310000I-249999J0D01*
G01*
G37*
G36*
G01*
X106114001Y-113360000D02*
X105213999Y-113360000D01*
G75*
G02*
X104964000Y-113110001I0J249999D01*
G01*
X104964000Y-112459999D01*
G75*
G02*
X105213999Y-112210000I249999J0D01*
G01*
X106114001Y-112210000D01*
G75*
G02*
X106364000Y-112459999I0J-249999D01*
G01*
X106364000Y-113110001D01*
G75*
G02*
X106114001Y-113360000I-249999J0D01*
G01*
G37*
%TD*%
%TO.C,C8*%
G36*
G01*
X93031000Y-106737999D02*
X93031000Y-107638001D01*
G75*
G02*
X92781001Y-107888000I-249999J0D01*
G01*
X92130999Y-107888000D01*
G75*
G02*
X91881000Y-107638001I0J249999D01*
G01*
X91881000Y-106737999D01*
G75*
G02*
X92130999Y-106488000I249999J0D01*
G01*
X92781001Y-106488000D01*
G75*
G02*
X93031000Y-106737999I0J-249999D01*
G01*
G37*
G36*
G01*
X95081000Y-106737999D02*
X95081000Y-107638001D01*
G75*
G02*
X94831001Y-107888000I-249999J0D01*
G01*
X94180999Y-107888000D01*
G75*
G02*
X93931000Y-107638001I0J249999D01*
G01*
X93931000Y-106737999D01*
G75*
G02*
X94180999Y-106488000I249999J0D01*
G01*
X94831001Y-106488000D01*
G75*
G02*
X95081000Y-106737999I0J-249999D01*
G01*
G37*
%TD*%
D10*
%TO.C,D1*%
X59500000Y-74950000D03*
X59500000Y-78250000D03*
%TD*%
%TO.C,D2*%
X59500000Y-93950000D03*
X59500000Y-97250000D03*
%TD*%
%TO.C,D3*%
X59500000Y-112950000D03*
X59500000Y-116250000D03*
%TD*%
%TO.C,D4*%
X78500000Y-74950000D03*
X78500000Y-78250000D03*
%TD*%
%TO.C,D5*%
X78500000Y-93950000D03*
X78500000Y-97250000D03*
%TD*%
%TO.C,D6*%
X78500000Y-112950000D03*
X78500000Y-116250000D03*
%TD*%
%TO.C,D7*%
X97500000Y-65450000D03*
X97500000Y-68750000D03*
%TD*%
%TO.C,D8*%
X97500000Y-84450000D03*
X97500000Y-87750000D03*
%TD*%
%TO.C,D9*%
X97500000Y-103450000D03*
X97500000Y-106750000D03*
%TD*%
%TO.C,D10*%
X116500000Y-60700000D03*
X116500000Y-64000000D03*
%TD*%
%TO.C,D11*%
X116500000Y-79700000D03*
X116500000Y-83000000D03*
%TD*%
%TO.C,D12*%
X116500000Y-98700000D03*
X116500000Y-102000000D03*
%TD*%
%TO.C,D13*%
X126000000Y-122450000D03*
X126000000Y-125750000D03*
%TD*%
%TO.C,D14*%
X135500000Y-65450000D03*
X135500000Y-68750000D03*
%TD*%
%TO.C,D15*%
X135500000Y-84450000D03*
X135500000Y-87750000D03*
%TD*%
%TO.C,D16*%
X135500000Y-103450000D03*
X135500000Y-106750000D03*
%TD*%
D11*
%TO.C,D17*%
G36*
X145130138Y-127999180D02*
G01*
X143971027Y-127688597D01*
X144203964Y-126819264D01*
X145363075Y-127129847D01*
X145130138Y-127999180D01*
G37*
G36*
X144276036Y-131186736D02*
G01*
X143116925Y-130876153D01*
X143349862Y-130006820D01*
X144508973Y-130317403D01*
X144276036Y-131186736D01*
G37*
%TD*%
D10*
%TO.C,D18*%
X154500000Y-67825000D03*
X154500000Y-71125000D03*
%TD*%
%TO.C,D19*%
X154500000Y-86825000D03*
X154500000Y-90125000D03*
%TD*%
%TO.C,D20*%
X154500000Y-105825000D03*
X154500000Y-109125000D03*
%TD*%
D11*
%TO.C,D21*%
G36*
X164084615Y-133606769D02*
G01*
X163045385Y-133006769D01*
X163495385Y-132227347D01*
X164534615Y-132827347D01*
X164084615Y-133606769D01*
G37*
G36*
X162434615Y-136464653D02*
G01*
X161395385Y-135864653D01*
X161845385Y-135085231D01*
X162884615Y-135685231D01*
X162434615Y-136464653D01*
G37*
%TD*%
%TO.C,F1*%
G36*
G01*
X163952500Y-90541000D02*
X163952500Y-89291000D01*
G75*
G02*
X164202500Y-89041000I250000J0D01*
G01*
X165127500Y-89041000D01*
G75*
G02*
X165377500Y-89291000I0J-250000D01*
G01*
X165377500Y-90541000D01*
G75*
G02*
X165127500Y-90791000I-250000J0D01*
G01*
X164202500Y-90791000D01*
G75*
G02*
X163952500Y-90541000I0J250000D01*
G01*
G37*
G36*
G01*
X166927500Y-90541000D02*
X166927500Y-89291000D01*
G75*
G02*
X167177500Y-89041000I250000J0D01*
G01*
X168102500Y-89041000D01*
G75*
G02*
X168352500Y-89291000I0J-250000D01*
G01*
X168352500Y-90541000D01*
G75*
G02*
X168102500Y-90791000I-250000J0D01*
G01*
X167177500Y-90791000D01*
G75*
G02*
X166927500Y-90541000I0J250000D01*
G01*
G37*
%TD*%
D12*
%TO.C,J1*%
X164080000Y-83039000D03*
X162080000Y-83039000D03*
X162580000Y-83039000D03*
X163080000Y-83039000D03*
X163580000Y-83039000D03*
X164580000Y-83039000D03*
X165080000Y-83039000D03*
X165580000Y-83039000D03*
D13*
X160580000Y-83039000D03*
X161380000Y-83039000D03*
X166280000Y-83039000D03*
X167080000Y-83039000D03*
X167080000Y-83039000D03*
X166280000Y-83039000D03*
X161380000Y-83039000D03*
X160580000Y-83039000D03*
%TD*%
D14*
%TO.C,K1*%
X57560000Y-66460000D03*
X43710000Y-63920000D03*
%TD*%
%TO.C,K2*%
X57560000Y-85460000D03*
X43710000Y-82920000D03*
%TD*%
%TO.C,K3*%
X57560000Y-104460000D03*
X43710000Y-101920000D03*
%TD*%
%TO.C,K4*%
X76560000Y-66460000D03*
X62710000Y-63920000D03*
%TD*%
%TO.C,K5*%
X76560000Y-85460000D03*
X62710000Y-82920000D03*
%TD*%
%TO.C,K6*%
X76560000Y-104460000D03*
X62710000Y-101920000D03*
%TD*%
%TO.C,K7*%
X95560000Y-56960000D03*
X81710000Y-54420000D03*
%TD*%
%TO.C,K8*%
X95560000Y-75960000D03*
X81710000Y-73420000D03*
%TD*%
%TO.C,K9*%
X95560000Y-94960000D03*
X81710000Y-92420000D03*
%TD*%
%TO.C,K10*%
X114560000Y-52210000D03*
X100710000Y-49670000D03*
%TD*%
%TO.C,K11*%
X114560000Y-71210000D03*
X100710000Y-68670000D03*
%TD*%
%TO.C,K12*%
X114560000Y-90210000D03*
X100710000Y-87670000D03*
%TD*%
%TO.C,K13*%
X124060000Y-113960000D03*
X110210000Y-111420000D03*
%TD*%
%TO.C,K14*%
X133560000Y-56960000D03*
X119710000Y-54420000D03*
%TD*%
%TO.C,K15*%
X133560000Y-75960000D03*
X119710000Y-73420000D03*
%TD*%
%TO.C,K16*%
X133560000Y-94960000D03*
X119710000Y-92420000D03*
%TD*%
D11*
%TO.C,K17*%
G36*
X143435721Y-119583633D02*
G01*
X144082768Y-117168818D01*
X146545879Y-117828807D01*
X145898832Y-120243622D01*
X143435721Y-119583633D01*
G37*
G36*
X130715048Y-113545538D02*
G01*
X131362095Y-111130723D01*
X133825206Y-111790712D01*
X133178159Y-114205527D01*
X130715048Y-113545538D01*
G37*
%TD*%
D14*
%TO.C,K18*%
X152560000Y-59335000D03*
X138710000Y-56795000D03*
%TD*%
%TO.C,K19*%
X152560000Y-78335000D03*
X138710000Y-75795000D03*
%TD*%
%TO.C,K20*%
X152560000Y-97335000D03*
X138710000Y-94795000D03*
%TD*%
D11*
%TO.C,K21*%
G36*
X164625970Y-125039327D02*
G01*
X165875970Y-122874263D01*
X168084334Y-124149263D01*
X166834334Y-126314327D01*
X164625970Y-125039327D01*
G37*
G36*
X153901518Y-115914623D02*
G01*
X155151518Y-113749559D01*
X157359882Y-115024559D01*
X156109882Y-117189623D01*
X153901518Y-115914623D01*
G37*
%TD*%
%TO.C,R1*%
G36*
G01*
X166174000Y-85909999D02*
X166174000Y-86810001D01*
G75*
G02*
X165924001Y-87060000I-249999J0D01*
G01*
X165273999Y-87060000D01*
G75*
G02*
X165024000Y-86810001I0J249999D01*
G01*
X165024000Y-85909999D01*
G75*
G02*
X165273999Y-85660000I249999J0D01*
G01*
X165924001Y-85660000D01*
G75*
G02*
X166174000Y-85909999I0J-249999D01*
G01*
G37*
G36*
G01*
X168224000Y-85909999D02*
X168224000Y-86810001D01*
G75*
G02*
X167974001Y-87060000I-249999J0D01*
G01*
X167323999Y-87060000D01*
G75*
G02*
X167074000Y-86810001I0J249999D01*
G01*
X167074000Y-85909999D01*
G75*
G02*
X167323999Y-85660000I249999J0D01*
G01*
X167974001Y-85660000D01*
G75*
G02*
X168224000Y-85909999I0J-249999D01*
G01*
G37*
%TD*%
%TO.C,R2*%
G36*
G01*
X161477000Y-86810001D02*
X161477000Y-85909999D01*
G75*
G02*
X161726999Y-85660000I249999J0D01*
G01*
X162377001Y-85660000D01*
G75*
G02*
X162627000Y-85909999I0J-249999D01*
G01*
X162627000Y-86810001D01*
G75*
G02*
X162377001Y-87060000I-249999J0D01*
G01*
X161726999Y-87060000D01*
G75*
G02*
X161477000Y-86810001I0J249999D01*
G01*
G37*
G36*
G01*
X159427000Y-86810001D02*
X159427000Y-85909999D01*
G75*
G02*
X159676999Y-85660000I249999J0D01*
G01*
X160327001Y-85660000D01*
G75*
G02*
X160577000Y-85909999I0J-249999D01*
G01*
X160577000Y-86810001D01*
G75*
G02*
X160327001Y-87060000I-249999J0D01*
G01*
X159676999Y-87060000D01*
G75*
G02*
X159427000Y-86810001I0J249999D01*
G01*
G37*
%TD*%
%TO.C,R3*%
G36*
G01*
X161994001Y-94047000D02*
X161093999Y-94047000D01*
G75*
G02*
X160844000Y-93797001I0J249999D01*
G01*
X160844000Y-93146999D01*
G75*
G02*
X161093999Y-92897000I249999J0D01*
G01*
X161994001Y-92897000D01*
G75*
G02*
X162244000Y-93146999I0J-249999D01*
G01*
X162244000Y-93797001D01*
G75*
G02*
X161994001Y-94047000I-249999J0D01*
G01*
G37*
G36*
G01*
X161994001Y-96097000D02*
X161093999Y-96097000D01*
G75*
G02*
X160844000Y-95847001I0J249999D01*
G01*
X160844000Y-95196999D01*
G75*
G02*
X161093999Y-94947000I249999J0D01*
G01*
X161994001Y-94947000D01*
G75*
G02*
X162244000Y-95196999I0J-249999D01*
G01*
X162244000Y-95847001D01*
G75*
G02*
X161994001Y-96097000I-249999J0D01*
G01*
G37*
%TD*%
%TO.C,R4*%
G36*
G01*
X158946001Y-94029000D02*
X158045999Y-94029000D01*
G75*
G02*
X157796000Y-93779001I0J249999D01*
G01*
X157796000Y-93128999D01*
G75*
G02*
X158045999Y-92879000I249999J0D01*
G01*
X158946001Y-92879000D01*
G75*
G02*
X159196000Y-93128999I0J-249999D01*
G01*
X159196000Y-93779001D01*
G75*
G02*
X158946001Y-94029000I-249999J0D01*
G01*
G37*
G36*
G01*
X158946001Y-96079000D02*
X158045999Y-96079000D01*
G75*
G02*
X157796000Y-95829001I0J249999D01*
G01*
X157796000Y-95178999D01*
G75*
G02*
X158045999Y-94929000I249999J0D01*
G01*
X158946001Y-94929000D01*
G75*
G02*
X159196000Y-95178999I0J-249999D01*
G01*
X159196000Y-95829001D01*
G75*
G02*
X158946001Y-96079000I-249999J0D01*
G01*
G37*
%TD*%
%TO.C,R5*%
G36*
G01*
X82247000Y-108146001D02*
X82247000Y-107245999D01*
G75*
G02*
X82496999Y-106996000I249999J0D01*
G01*
X83147001Y-106996000D01*
G75*
G02*
X83397000Y-107245999I0J-249999D01*
G01*
X83397000Y-108146001D01*
G75*
G02*
X83147001Y-108396000I-249999J0D01*
G01*
X82496999Y-108396000D01*
G75*
G02*
X82247000Y-108146001I0J249999D01*
G01*
G37*
G36*
G01*
X80197000Y-108146001D02*
X80197000Y-107245999D01*
G75*
G02*
X80446999Y-106996000I249999J0D01*
G01*
X81097001Y-106996000D01*
G75*
G02*
X81347000Y-107245999I0J-249999D01*
G01*
X81347000Y-108146001D01*
G75*
G02*
X81097001Y-108396000I-249999J0D01*
G01*
X80446999Y-108396000D01*
G75*
G02*
X80197000Y-108146001I0J249999D01*
G01*
G37*
%TD*%
%TO.C,R6*%
G36*
G01*
X105213999Y-116773000D02*
X106114001Y-116773000D01*
G75*
G02*
X106364000Y-117022999I0J-249999D01*
G01*
X106364000Y-117673001D01*
G75*
G02*
X106114001Y-117923000I-249999J0D01*
G01*
X105213999Y-117923000D01*
G75*
G02*
X104964000Y-117673001I0J249999D01*
G01*
X104964000Y-117022999D01*
G75*
G02*
X105213999Y-116773000I249999J0D01*
G01*
G37*
G36*
G01*
X105213999Y-114723000D02*
X106114001Y-114723000D01*
G75*
G02*
X106364000Y-114972999I0J-249999D01*
G01*
X106364000Y-115623001D01*
G75*
G02*
X106114001Y-115873000I-249999J0D01*
G01*
X105213999Y-115873000D01*
G75*
G02*
X104964000Y-115623001I0J249999D01*
G01*
X104964000Y-114972999D01*
G75*
G02*
X105213999Y-114723000I249999J0D01*
G01*
G37*
%TD*%
%TO.C,R7*%
G36*
G01*
X165042001Y-94047000D02*
X164141999Y-94047000D01*
G75*
G02*
X163892000Y-93797001I0J249999D01*
G01*
X163892000Y-93146999D01*
G75*
G02*
X164141999Y-92897000I249999J0D01*
G01*
X165042001Y-92897000D01*
G75*
G02*
X165292000Y-93146999I0J-249999D01*
G01*
X165292000Y-93797001D01*
G75*
G02*
X165042001Y-94047000I-249999J0D01*
G01*
G37*
G36*
G01*
X165042001Y-96097000D02*
X164141999Y-96097000D01*
G75*
G02*
X163892000Y-95847001I0J249999D01*
G01*
X163892000Y-95196999D01*
G75*
G02*
X164141999Y-94947000I249999J0D01*
G01*
X165042001Y-94947000D01*
G75*
G02*
X165292000Y-95196999I0J-249999D01*
G01*
X165292000Y-95847001D01*
G75*
G02*
X165042001Y-96097000I-249999J0D01*
G01*
G37*
%TD*%
%TO.C,R8*%
G36*
G01*
X168090001Y-94047000D02*
X167189999Y-94047000D01*
G75*
G02*
X166940000Y-93797001I0J249999D01*
G01*
X166940000Y-93146999D01*
G75*
G02*
X167189999Y-92897000I249999J0D01*
G01*
X168090001Y-92897000D01*
G75*
G02*
X168340000Y-93146999I0J-249999D01*
G01*
X168340000Y-93797001D01*
G75*
G02*
X168090001Y-94047000I-249999J0D01*
G01*
G37*
G36*
G01*
X168090001Y-96097000D02*
X167189999Y-96097000D01*
G75*
G02*
X166940000Y-95847001I0J249999D01*
G01*
X166940000Y-95196999D01*
G75*
G02*
X167189999Y-94947000I249999J0D01*
G01*
X168090001Y-94947000D01*
G75*
G02*
X168340000Y-95196999I0J-249999D01*
G01*
X168340000Y-95847001D01*
G75*
G02*
X168090001Y-96097000I-249999J0D01*
G01*
G37*
%TD*%
D15*
%TO.C,U1*%
X102220000Y-112332000D03*
X102220000Y-113132000D03*
X102220000Y-113932000D03*
X102220000Y-114732000D03*
X102220000Y-115532000D03*
X102220000Y-116332000D03*
X102220000Y-117132000D03*
X102220000Y-117932000D03*
X102220000Y-118732000D03*
X102220000Y-119532000D03*
X102220000Y-120332000D03*
D16*
X100520000Y-122032000D03*
X99720000Y-122032000D03*
X98920000Y-122032000D03*
X98120000Y-122032000D03*
X97320000Y-122032000D03*
X96520000Y-122032000D03*
X95720000Y-122032000D03*
X94920000Y-122032000D03*
X94120000Y-122032000D03*
X93320000Y-122032000D03*
X92520000Y-122032000D03*
D15*
X90820000Y-120332000D03*
X90820000Y-119532000D03*
X90820000Y-118732000D03*
X90820000Y-117932000D03*
X90820000Y-117132000D03*
X90820000Y-116332000D03*
X90820000Y-115532000D03*
X90820000Y-114732000D03*
X90820000Y-113932000D03*
X90820000Y-113132000D03*
X90820000Y-112332000D03*
D16*
X92520000Y-110632000D03*
X93320000Y-110632000D03*
X94120000Y-110632000D03*
X94920000Y-110632000D03*
X95720000Y-110632000D03*
X96520000Y-110632000D03*
X97320000Y-110632000D03*
X98120000Y-110632000D03*
X98920000Y-110632000D03*
X99720000Y-110632000D03*
X100520000Y-110632000D03*
%TD*%
D17*
%TO.C,X1*%
X83820000Y-114032000D03*
X86720000Y-114032000D03*
X86720000Y-116332000D03*
X83820000Y-116332000D03*
%TD*%
M02*
