%TF.GenerationSoftware,KiCad,Pcbnew,(5.1.10-1-10_14)*%
%TF.CreationDate,2022-01-29T17:31:24-08:00*%
%TF.ProjectId,phase,70686173-652e-46b6-9963-61645f706362,v1.0.1*%
%TF.SameCoordinates,Original*%
%TF.FileFunction,Legend,Top*%
%TF.FilePolarity,Positive*%
%FSLAX46Y46*%
G04 Gerber Fmt 4.6, Leading zero omitted, Abs format (unit mm)*
G04 Created by KiCad (PCBNEW (5.1.10-1-10_14)) date 2022-01-29 17:31:24*
%MOMM*%
%LPD*%
G01*
G04 APERTURE LIST*
%ADD10C,0.200000*%
%ADD11C,0.120000*%
%ADD12C,0.150000*%
G04 APERTURE END LIST*
D10*
X100378619Y-105227380D02*
X100378619Y-104227380D01*
X100759571Y-104227380D01*
X100854809Y-104275000D01*
X100902428Y-104322619D01*
X100950047Y-104417857D01*
X100950047Y-104560714D01*
X100902428Y-104655952D01*
X100854809Y-104703571D01*
X100759571Y-104751190D01*
X100378619Y-104751190D01*
X101378619Y-105227380D02*
X101378619Y-104227380D01*
X101807190Y-105227380D02*
X101807190Y-104703571D01*
X101759571Y-104608333D01*
X101664333Y-104560714D01*
X101521476Y-104560714D01*
X101426238Y-104608333D01*
X101378619Y-104655952D01*
X102711952Y-105227380D02*
X102711952Y-104703571D01*
X102664333Y-104608333D01*
X102569095Y-104560714D01*
X102378619Y-104560714D01*
X102283380Y-104608333D01*
X102711952Y-105179761D02*
X102616714Y-105227380D01*
X102378619Y-105227380D01*
X102283380Y-105179761D01*
X102235761Y-105084523D01*
X102235761Y-104989285D01*
X102283380Y-104894047D01*
X102378619Y-104846428D01*
X102616714Y-104846428D01*
X102711952Y-104798809D01*
X103140523Y-105179761D02*
X103235761Y-105227380D01*
X103426238Y-105227380D01*
X103521476Y-105179761D01*
X103569095Y-105084523D01*
X103569095Y-105036904D01*
X103521476Y-104941666D01*
X103426238Y-104894047D01*
X103283380Y-104894047D01*
X103188142Y-104846428D01*
X103140523Y-104751190D01*
X103140523Y-104703571D01*
X103188142Y-104608333D01*
X103283380Y-104560714D01*
X103426238Y-104560714D01*
X103521476Y-104608333D01*
X104378619Y-105179761D02*
X104283380Y-105227380D01*
X104092904Y-105227380D01*
X103997666Y-105179761D01*
X103950047Y-105084523D01*
X103950047Y-104703571D01*
X103997666Y-104608333D01*
X104092904Y-104560714D01*
X104283380Y-104560714D01*
X104378619Y-104608333D01*
X104426238Y-104703571D01*
X104426238Y-104798809D01*
X103950047Y-104894047D01*
X105521476Y-104560714D02*
X105759571Y-105227380D01*
X105997666Y-104560714D01*
X106902428Y-105227380D02*
X106331000Y-105227380D01*
X106616714Y-105227380D02*
X106616714Y-104227380D01*
X106521476Y-104370238D01*
X106426238Y-104465476D01*
X106331000Y-104513095D01*
X107331000Y-105132142D02*
X107378619Y-105179761D01*
X107331000Y-105227380D01*
X107283380Y-105179761D01*
X107331000Y-105132142D01*
X107331000Y-105227380D01*
X107997666Y-104227380D02*
X108092904Y-104227380D01*
X108188142Y-104275000D01*
X108235761Y-104322619D01*
X108283380Y-104417857D01*
X108331000Y-104608333D01*
X108331000Y-104846428D01*
X108283380Y-105036904D01*
X108235761Y-105132142D01*
X108188142Y-105179761D01*
X108092904Y-105227380D01*
X107997666Y-105227380D01*
X107902428Y-105179761D01*
X107854809Y-105132142D01*
X107807190Y-105036904D01*
X107759571Y-104846428D01*
X107759571Y-104608333D01*
X107807190Y-104417857D01*
X107854809Y-104322619D01*
X107902428Y-104275000D01*
X107997666Y-104227380D01*
X108759571Y-105132142D02*
X108807190Y-105179761D01*
X108759571Y-105227380D01*
X108711952Y-105179761D01*
X108759571Y-105132142D01*
X108759571Y-105227380D01*
X109759571Y-105227380D02*
X109188142Y-105227380D01*
X109473857Y-105227380D02*
X109473857Y-104227380D01*
X109378619Y-104370238D01*
X109283380Y-104465476D01*
X109188142Y-104513095D01*
X110950047Y-105227380D02*
X110950047Y-104560714D01*
X110950047Y-104655952D02*
X110997666Y-104608333D01*
X111092904Y-104560714D01*
X111235761Y-104560714D01*
X111331000Y-104608333D01*
X111378619Y-104703571D01*
X111378619Y-105227380D01*
X111378619Y-104703571D02*
X111426238Y-104608333D01*
X111521476Y-104560714D01*
X111664333Y-104560714D01*
X111759571Y-104608333D01*
X111807190Y-104703571D01*
X111807190Y-105227380D01*
X112283380Y-104560714D02*
X112283380Y-105417857D01*
X112235761Y-105513095D01*
X112140523Y-105560714D01*
X112092904Y-105560714D01*
X112283380Y-104227380D02*
X112235761Y-104275000D01*
X112283380Y-104322619D01*
X112331000Y-104275000D01*
X112283380Y-104227380D01*
X112283380Y-104322619D01*
X112759571Y-104560714D02*
X112759571Y-105560714D01*
X112759571Y-104608333D02*
X112854809Y-104560714D01*
X113045285Y-104560714D01*
X113140523Y-104608333D01*
X113188142Y-104655952D01*
X113235761Y-104751190D01*
X113235761Y-105036904D01*
X113188142Y-105132142D01*
X113140523Y-105179761D01*
X113045285Y-105227380D01*
X112854809Y-105227380D01*
X112759571Y-105179761D01*
X114092904Y-105227380D02*
X114092904Y-104703571D01*
X114045285Y-104608333D01*
X113950047Y-104560714D01*
X113759571Y-104560714D01*
X113664333Y-104608333D01*
X114092904Y-105179761D02*
X113997666Y-105227380D01*
X113759571Y-105227380D01*
X113664333Y-105179761D01*
X113616714Y-105084523D01*
X113616714Y-104989285D01*
X113664333Y-104894047D01*
X113759571Y-104846428D01*
X113997666Y-104846428D01*
X114092904Y-104798809D01*
X114997666Y-104560714D02*
X114997666Y-105227380D01*
X114569095Y-104560714D02*
X114569095Y-105084523D01*
X114616714Y-105179761D01*
X114711952Y-105227380D01*
X114854809Y-105227380D01*
X114950047Y-105179761D01*
X114997666Y-105132142D01*
X115616714Y-105227380D02*
X115521476Y-105179761D01*
X115473857Y-105084523D01*
X115473857Y-104227380D01*
X115902428Y-104560714D02*
X116140523Y-105227380D01*
X116378619Y-104560714D02*
X116140523Y-105227380D01*
X116045285Y-105465476D01*
X115997666Y-105513095D01*
X115902428Y-105560714D01*
D11*
%TO.C,D1*%
X58500000Y-78850000D02*
X58500000Y-74950000D01*
X60500000Y-78850000D02*
X60500000Y-74950000D01*
X58500000Y-78850000D02*
X60500000Y-78850000D01*
%TO.C,D2*%
X58500000Y-97850000D02*
X58500000Y-93950000D01*
X60500000Y-97850000D02*
X60500000Y-93950000D01*
X58500000Y-97850000D02*
X60500000Y-97850000D01*
%TO.C,D3*%
X58500000Y-116850000D02*
X58500000Y-112950000D01*
X60500000Y-116850000D02*
X60500000Y-112950000D01*
X58500000Y-116850000D02*
X60500000Y-116850000D01*
%TO.C,D4*%
X77500000Y-78850000D02*
X77500000Y-74950000D01*
X79500000Y-78850000D02*
X79500000Y-74950000D01*
X77500000Y-78850000D02*
X79500000Y-78850000D01*
%TO.C,D5*%
X77500000Y-97850000D02*
X77500000Y-93950000D01*
X79500000Y-97850000D02*
X79500000Y-93950000D01*
X77500000Y-97850000D02*
X79500000Y-97850000D01*
%TO.C,D6*%
X77500000Y-116850000D02*
X77500000Y-112950000D01*
X79500000Y-116850000D02*
X79500000Y-112950000D01*
X77500000Y-116850000D02*
X79500000Y-116850000D01*
%TO.C,D7*%
X96500000Y-69350000D02*
X96500000Y-65450000D01*
X98500000Y-69350000D02*
X98500000Y-65450000D01*
X96500000Y-69350000D02*
X98500000Y-69350000D01*
%TO.C,D8*%
X96500000Y-88350000D02*
X96500000Y-84450000D01*
X98500000Y-88350000D02*
X98500000Y-84450000D01*
X96500000Y-88350000D02*
X98500000Y-88350000D01*
%TO.C,D9*%
X96500000Y-107350000D02*
X96500000Y-103450000D01*
X98500000Y-107350000D02*
X98500000Y-103450000D01*
X96500000Y-107350000D02*
X98500000Y-107350000D01*
%TO.C,D10*%
X115500000Y-64600000D02*
X115500000Y-60700000D01*
X117500000Y-64600000D02*
X117500000Y-60700000D01*
X115500000Y-64600000D02*
X117500000Y-64600000D01*
%TO.C,D11*%
X115500000Y-83600000D02*
X115500000Y-79700000D01*
X117500000Y-83600000D02*
X117500000Y-79700000D01*
X115500000Y-83600000D02*
X117500000Y-83600000D01*
%TO.C,D12*%
X115500000Y-102600000D02*
X115500000Y-98700000D01*
X117500000Y-102600000D02*
X117500000Y-98700000D01*
X115500000Y-102600000D02*
X117500000Y-102600000D01*
%TO.C,D13*%
X125000000Y-126350000D02*
X125000000Y-122450000D01*
X127000000Y-126350000D02*
X127000000Y-122450000D01*
X125000000Y-126350000D02*
X127000000Y-126350000D01*
%TO.C,D14*%
X134500000Y-69350000D02*
X134500000Y-65450000D01*
X136500000Y-69350000D02*
X136500000Y-65450000D01*
X134500000Y-69350000D02*
X136500000Y-69350000D01*
%TO.C,D15*%
X134500000Y-88350000D02*
X134500000Y-84450000D01*
X136500000Y-88350000D02*
X136500000Y-84450000D01*
X134500000Y-88350000D02*
X136500000Y-88350000D01*
%TO.C,D16*%
X134500000Y-107350000D02*
X134500000Y-103450000D01*
X136500000Y-107350000D02*
X136500000Y-103450000D01*
X134500000Y-107350000D02*
X136500000Y-107350000D01*
%TO.C,D17*%
X142691731Y-130917514D02*
X143701126Y-127150403D01*
X144623583Y-131435152D02*
X145632977Y-127668041D01*
X142691731Y-130917514D02*
X144623583Y-131435152D01*
%TO.C,D18*%
X153500000Y-71725000D02*
X153500000Y-67825000D01*
X155500000Y-71725000D02*
X155500000Y-67825000D01*
X153500000Y-71725000D02*
X155500000Y-71725000D01*
%TO.C,D19*%
X153500000Y-90725000D02*
X153500000Y-86825000D01*
X155500000Y-90725000D02*
X155500000Y-86825000D01*
X153500000Y-90725000D02*
X155500000Y-90725000D01*
%TO.C,D20*%
X153500000Y-109725000D02*
X153500000Y-105825000D01*
X155500000Y-109725000D02*
X155500000Y-105825000D01*
X153500000Y-109725000D02*
X155500000Y-109725000D01*
%TO.C,D21*%
X160973975Y-135794557D02*
X162923975Y-132417058D01*
X162706025Y-136794557D02*
X164656025Y-133417058D01*
X160973975Y-135794557D02*
X162706025Y-136794557D01*
%TO.C,SW1*%
X82058252Y-111454000D02*
X81535748Y-111454000D01*
X82058252Y-110034000D02*
X81535748Y-110034000D01*
D12*
%TO.C,J2*%
X169164000Y-103874000D02*
X169164000Y-97774000D01*
X157064000Y-103874000D02*
X157064000Y-97774000D01*
X169164000Y-103874000D02*
X157064000Y-103874000D01*
X169164000Y-97774000D02*
X157064000Y-97774000D01*
X169164000Y-103624000D02*
X171164000Y-103624000D01*
X169164000Y-98024000D02*
X171164000Y-98024000D01*
X171164000Y-103624000D02*
X171164000Y-98024000D01*
D11*
%TO.C,C1*%
X83041748Y-118670000D02*
X83564252Y-118670000D01*
X83041748Y-120090000D02*
X83564252Y-120090000D01*
%TO.C,C2*%
X86612252Y-111454000D02*
X86089748Y-111454000D01*
X86612252Y-110034000D02*
X86089748Y-110034000D01*
%TO.C,C3*%
X106374000Y-120642748D02*
X106374000Y-121165252D01*
X104954000Y-120642748D02*
X104954000Y-121165252D01*
%TO.C,C4*%
X88086000Y-120125748D02*
X88086000Y-120648252D01*
X86666000Y-120125748D02*
X86666000Y-120648252D01*
%TO.C,C5*%
X86089748Y-106986000D02*
X86612252Y-106986000D01*
X86089748Y-108406000D02*
X86612252Y-108406000D01*
%TO.C,C6*%
X101852252Y-107898000D02*
X101329748Y-107898000D01*
X101852252Y-106478000D02*
X101329748Y-106478000D01*
%TO.C,C7*%
X104954000Y-112021252D02*
X104954000Y-111498748D01*
X106374000Y-112021252D02*
X106374000Y-111498748D01*
%TO.C,C8*%
X93742252Y-107898000D02*
X93219748Y-107898000D01*
X93742252Y-106478000D02*
X93219748Y-106478000D01*
%TO.C,F1*%
X165550436Y-90826000D02*
X166754564Y-90826000D01*
X165550436Y-89006000D02*
X166754564Y-89006000D01*
%TO.C,J1*%
X168530000Y-75094000D02*
X159130000Y-75094000D01*
X159130000Y-80894000D02*
X159130000Y-78894000D01*
X159130000Y-76994000D02*
X159130000Y-75094000D01*
X168530000Y-80894000D02*
X168530000Y-78894000D01*
X168530000Y-76994000D02*
X168530000Y-75094000D01*
D12*
%TO.C,K1*%
X43000000Y-62396000D02*
X43000000Y-62000000D01*
X43000000Y-62000000D02*
X44000000Y-62000000D01*
X44000000Y-76000000D02*
X43000000Y-76000000D01*
X43000000Y-76000000D02*
X43000000Y-75000000D01*
X57000000Y-75000000D02*
X57000000Y-76000000D01*
X57000000Y-76000000D02*
X56000000Y-76000000D01*
X56000000Y-62000000D02*
X57000000Y-62000000D01*
X57000000Y-62000000D02*
X57000000Y-63000000D01*
X53810000Y-62015000D02*
X44920000Y-62015000D01*
X44920000Y-62015000D02*
X44920000Y-62396000D01*
X44920000Y-65444000D02*
X44920000Y-65825000D01*
X47714000Y-66460000D02*
X50000000Y-66460000D01*
X52540000Y-68365000D02*
X54191000Y-68365000D01*
X55969000Y-68365000D02*
X56350000Y-68365000D01*
X56350000Y-68365000D02*
X56350000Y-67984000D01*
X56350000Y-64555000D02*
X56350000Y-64936000D01*
X50000001Y-66381829D02*
G75*
G02*
X52539999Y-68365001I-1J-2618171D01*
G01*
X53810000Y-62015000D02*
G75*
G02*
X56350000Y-64555000I0J-2540000D01*
G01*
%TO.C,K2*%
X43000000Y-81396000D02*
X43000000Y-81000000D01*
X43000000Y-81000000D02*
X44000000Y-81000000D01*
X44000000Y-95000000D02*
X43000000Y-95000000D01*
X43000000Y-95000000D02*
X43000000Y-94000000D01*
X57000000Y-94000000D02*
X57000000Y-95000000D01*
X57000000Y-95000000D02*
X56000000Y-95000000D01*
X56000000Y-81000000D02*
X57000000Y-81000000D01*
X57000000Y-81000000D02*
X57000000Y-82000000D01*
X53810000Y-81015000D02*
X44920000Y-81015000D01*
X44920000Y-81015000D02*
X44920000Y-81396000D01*
X44920000Y-84444000D02*
X44920000Y-84825000D01*
X47714000Y-85460000D02*
X50000000Y-85460000D01*
X52540000Y-87365000D02*
X54191000Y-87365000D01*
X55969000Y-87365000D02*
X56350000Y-87365000D01*
X56350000Y-87365000D02*
X56350000Y-86984000D01*
X56350000Y-83555000D02*
X56350000Y-83936000D01*
X50000001Y-85381829D02*
G75*
G02*
X52539999Y-87365001I-1J-2618171D01*
G01*
X53810000Y-81015000D02*
G75*
G02*
X56350000Y-83555000I0J-2540000D01*
G01*
%TO.C,K3*%
X43000000Y-100396000D02*
X43000000Y-100000000D01*
X43000000Y-100000000D02*
X44000000Y-100000000D01*
X44000000Y-114000000D02*
X43000000Y-114000000D01*
X43000000Y-114000000D02*
X43000000Y-113000000D01*
X57000000Y-113000000D02*
X57000000Y-114000000D01*
X57000000Y-114000000D02*
X56000000Y-114000000D01*
X56000000Y-100000000D02*
X57000000Y-100000000D01*
X57000000Y-100000000D02*
X57000000Y-101000000D01*
X53810000Y-100015000D02*
X44920000Y-100015000D01*
X44920000Y-100015000D02*
X44920000Y-100396000D01*
X44920000Y-103444000D02*
X44920000Y-103825000D01*
X47714000Y-104460000D02*
X50000000Y-104460000D01*
X52540000Y-106365000D02*
X54191000Y-106365000D01*
X55969000Y-106365000D02*
X56350000Y-106365000D01*
X56350000Y-106365000D02*
X56350000Y-105984000D01*
X56350000Y-102555000D02*
X56350000Y-102936000D01*
X50000001Y-104381829D02*
G75*
G02*
X52539999Y-106365001I-1J-2618171D01*
G01*
X53810000Y-100015000D02*
G75*
G02*
X56350000Y-102555000I0J-2540000D01*
G01*
%TO.C,K4*%
X62000000Y-62396000D02*
X62000000Y-62000000D01*
X62000000Y-62000000D02*
X63000000Y-62000000D01*
X63000000Y-76000000D02*
X62000000Y-76000000D01*
X62000000Y-76000000D02*
X62000000Y-75000000D01*
X76000000Y-75000000D02*
X76000000Y-76000000D01*
X76000000Y-76000000D02*
X75000000Y-76000000D01*
X75000000Y-62000000D02*
X76000000Y-62000000D01*
X76000000Y-62000000D02*
X76000000Y-63000000D01*
X72810000Y-62015000D02*
X63920000Y-62015000D01*
X63920000Y-62015000D02*
X63920000Y-62396000D01*
X63920000Y-65444000D02*
X63920000Y-65825000D01*
X66714000Y-66460000D02*
X69000000Y-66460000D01*
X71540000Y-68365000D02*
X73191000Y-68365000D01*
X74969000Y-68365000D02*
X75350000Y-68365000D01*
X75350000Y-68365000D02*
X75350000Y-67984000D01*
X75350000Y-64555000D02*
X75350000Y-64936000D01*
X69000001Y-66381829D02*
G75*
G02*
X71539999Y-68365001I-1J-2618171D01*
G01*
X72810000Y-62015000D02*
G75*
G02*
X75350000Y-64555000I0J-2540000D01*
G01*
%TO.C,K5*%
X62000000Y-81396000D02*
X62000000Y-81000000D01*
X62000000Y-81000000D02*
X63000000Y-81000000D01*
X63000000Y-95000000D02*
X62000000Y-95000000D01*
X62000000Y-95000000D02*
X62000000Y-94000000D01*
X76000000Y-94000000D02*
X76000000Y-95000000D01*
X76000000Y-95000000D02*
X75000000Y-95000000D01*
X75000000Y-81000000D02*
X76000000Y-81000000D01*
X76000000Y-81000000D02*
X76000000Y-82000000D01*
X72810000Y-81015000D02*
X63920000Y-81015000D01*
X63920000Y-81015000D02*
X63920000Y-81396000D01*
X63920000Y-84444000D02*
X63920000Y-84825000D01*
X66714000Y-85460000D02*
X69000000Y-85460000D01*
X71540000Y-87365000D02*
X73191000Y-87365000D01*
X74969000Y-87365000D02*
X75350000Y-87365000D01*
X75350000Y-87365000D02*
X75350000Y-86984000D01*
X75350000Y-83555000D02*
X75350000Y-83936000D01*
X69000001Y-85381829D02*
G75*
G02*
X71539999Y-87365001I-1J-2618171D01*
G01*
X72810000Y-81015000D02*
G75*
G02*
X75350000Y-83555000I0J-2540000D01*
G01*
%TO.C,K6*%
X62000000Y-100396000D02*
X62000000Y-100000000D01*
X62000000Y-100000000D02*
X63000000Y-100000000D01*
X63000000Y-114000000D02*
X62000000Y-114000000D01*
X62000000Y-114000000D02*
X62000000Y-113000000D01*
X76000000Y-113000000D02*
X76000000Y-114000000D01*
X76000000Y-114000000D02*
X75000000Y-114000000D01*
X75000000Y-100000000D02*
X76000000Y-100000000D01*
X76000000Y-100000000D02*
X76000000Y-101000000D01*
X72810000Y-100015000D02*
X63920000Y-100015000D01*
X63920000Y-100015000D02*
X63920000Y-100396000D01*
X63920000Y-103444000D02*
X63920000Y-103825000D01*
X66714000Y-104460000D02*
X69000000Y-104460000D01*
X71540000Y-106365000D02*
X73191000Y-106365000D01*
X74969000Y-106365000D02*
X75350000Y-106365000D01*
X75350000Y-106365000D02*
X75350000Y-105984000D01*
X75350000Y-102555000D02*
X75350000Y-102936000D01*
X69000001Y-104381829D02*
G75*
G02*
X71539999Y-106365001I-1J-2618171D01*
G01*
X72810000Y-100015000D02*
G75*
G02*
X75350000Y-102555000I0J-2540000D01*
G01*
%TO.C,K7*%
X81000000Y-52896000D02*
X81000000Y-52500000D01*
X81000000Y-52500000D02*
X82000000Y-52500000D01*
X82000000Y-66500000D02*
X81000000Y-66500000D01*
X81000000Y-66500000D02*
X81000000Y-65500000D01*
X95000000Y-65500000D02*
X95000000Y-66500000D01*
X95000000Y-66500000D02*
X94000000Y-66500000D01*
X94000000Y-52500000D02*
X95000000Y-52500000D01*
X95000000Y-52500000D02*
X95000000Y-53500000D01*
X91810000Y-52515000D02*
X82920000Y-52515000D01*
X82920000Y-52515000D02*
X82920000Y-52896000D01*
X82920000Y-55944000D02*
X82920000Y-56325000D01*
X85714000Y-56960000D02*
X88000000Y-56960000D01*
X90540000Y-58865000D02*
X92191000Y-58865000D01*
X93969000Y-58865000D02*
X94350000Y-58865000D01*
X94350000Y-58865000D02*
X94350000Y-58484000D01*
X94350000Y-55055000D02*
X94350000Y-55436000D01*
X88000001Y-56881829D02*
G75*
G02*
X90539999Y-58865001I-1J-2618171D01*
G01*
X91810000Y-52515000D02*
G75*
G02*
X94350000Y-55055000I0J-2540000D01*
G01*
%TO.C,K8*%
X81000000Y-71896000D02*
X81000000Y-71500000D01*
X81000000Y-71500000D02*
X82000000Y-71500000D01*
X82000000Y-85500000D02*
X81000000Y-85500000D01*
X81000000Y-85500000D02*
X81000000Y-84500000D01*
X95000000Y-84500000D02*
X95000000Y-85500000D01*
X95000000Y-85500000D02*
X94000000Y-85500000D01*
X94000000Y-71500000D02*
X95000000Y-71500000D01*
X95000000Y-71500000D02*
X95000000Y-72500000D01*
X91810000Y-71515000D02*
X82920000Y-71515000D01*
X82920000Y-71515000D02*
X82920000Y-71896000D01*
X82920000Y-74944000D02*
X82920000Y-75325000D01*
X85714000Y-75960000D02*
X88000000Y-75960000D01*
X90540000Y-77865000D02*
X92191000Y-77865000D01*
X93969000Y-77865000D02*
X94350000Y-77865000D01*
X94350000Y-77865000D02*
X94350000Y-77484000D01*
X94350000Y-74055000D02*
X94350000Y-74436000D01*
X88000001Y-75881829D02*
G75*
G02*
X90539999Y-77865001I-1J-2618171D01*
G01*
X91810000Y-71515000D02*
G75*
G02*
X94350000Y-74055000I0J-2540000D01*
G01*
%TO.C,K9*%
X81000000Y-90896000D02*
X81000000Y-90500000D01*
X81000000Y-90500000D02*
X82000000Y-90500000D01*
X82000000Y-104500000D02*
X81000000Y-104500000D01*
X81000000Y-104500000D02*
X81000000Y-103500000D01*
X95000000Y-103500000D02*
X95000000Y-104500000D01*
X95000000Y-104500000D02*
X94000000Y-104500000D01*
X94000000Y-90500000D02*
X95000000Y-90500000D01*
X95000000Y-90500000D02*
X95000000Y-91500000D01*
X91810000Y-90515000D02*
X82920000Y-90515000D01*
X82920000Y-90515000D02*
X82920000Y-90896000D01*
X82920000Y-93944000D02*
X82920000Y-94325000D01*
X85714000Y-94960000D02*
X88000000Y-94960000D01*
X90540000Y-96865000D02*
X92191000Y-96865000D01*
X93969000Y-96865000D02*
X94350000Y-96865000D01*
X94350000Y-96865000D02*
X94350000Y-96484000D01*
X94350000Y-93055000D02*
X94350000Y-93436000D01*
X88000001Y-94881829D02*
G75*
G02*
X90539999Y-96865001I-1J-2618171D01*
G01*
X91810000Y-90515000D02*
G75*
G02*
X94350000Y-93055000I0J-2540000D01*
G01*
%TO.C,K10*%
X100000000Y-48146000D02*
X100000000Y-47750000D01*
X100000000Y-47750000D02*
X101000000Y-47750000D01*
X101000000Y-61750000D02*
X100000000Y-61750000D01*
X100000000Y-61750000D02*
X100000000Y-60750000D01*
X114000000Y-60750000D02*
X114000000Y-61750000D01*
X114000000Y-61750000D02*
X113000000Y-61750000D01*
X113000000Y-47750000D02*
X114000000Y-47750000D01*
X114000000Y-47750000D02*
X114000000Y-48750000D01*
X110810000Y-47765000D02*
X101920000Y-47765000D01*
X101920000Y-47765000D02*
X101920000Y-48146000D01*
X101920000Y-51194000D02*
X101920000Y-51575000D01*
X104714000Y-52210000D02*
X107000000Y-52210000D01*
X109540000Y-54115000D02*
X111191000Y-54115000D01*
X112969000Y-54115000D02*
X113350000Y-54115000D01*
X113350000Y-54115000D02*
X113350000Y-53734000D01*
X113350000Y-50305000D02*
X113350000Y-50686000D01*
X107000001Y-52131829D02*
G75*
G02*
X109539999Y-54115001I-1J-2618171D01*
G01*
X110810000Y-47765000D02*
G75*
G02*
X113350000Y-50305000I0J-2540000D01*
G01*
%TO.C,K11*%
X100000000Y-67146000D02*
X100000000Y-66750000D01*
X100000000Y-66750000D02*
X101000000Y-66750000D01*
X101000000Y-80750000D02*
X100000000Y-80750000D01*
X100000000Y-80750000D02*
X100000000Y-79750000D01*
X114000000Y-79750000D02*
X114000000Y-80750000D01*
X114000000Y-80750000D02*
X113000000Y-80750000D01*
X113000000Y-66750000D02*
X114000000Y-66750000D01*
X114000000Y-66750000D02*
X114000000Y-67750000D01*
X110810000Y-66765000D02*
X101920000Y-66765000D01*
X101920000Y-66765000D02*
X101920000Y-67146000D01*
X101920000Y-70194000D02*
X101920000Y-70575000D01*
X104714000Y-71210000D02*
X107000000Y-71210000D01*
X109540000Y-73115000D02*
X111191000Y-73115000D01*
X112969000Y-73115000D02*
X113350000Y-73115000D01*
X113350000Y-73115000D02*
X113350000Y-72734000D01*
X113350000Y-69305000D02*
X113350000Y-69686000D01*
X107000001Y-71131829D02*
G75*
G02*
X109539999Y-73115001I-1J-2618171D01*
G01*
X110810000Y-66765000D02*
G75*
G02*
X113350000Y-69305000I0J-2540000D01*
G01*
%TO.C,K12*%
X100000000Y-86146000D02*
X100000000Y-85750000D01*
X100000000Y-85750000D02*
X101000000Y-85750000D01*
X101000000Y-99750000D02*
X100000000Y-99750000D01*
X100000000Y-99750000D02*
X100000000Y-98750000D01*
X114000000Y-98750000D02*
X114000000Y-99750000D01*
X114000000Y-99750000D02*
X113000000Y-99750000D01*
X113000000Y-85750000D02*
X114000000Y-85750000D01*
X114000000Y-85750000D02*
X114000000Y-86750000D01*
X110810000Y-85765000D02*
X101920000Y-85765000D01*
X101920000Y-85765000D02*
X101920000Y-86146000D01*
X101920000Y-89194000D02*
X101920000Y-89575000D01*
X104714000Y-90210000D02*
X107000000Y-90210000D01*
X109540000Y-92115000D02*
X111191000Y-92115000D01*
X112969000Y-92115000D02*
X113350000Y-92115000D01*
X113350000Y-92115000D02*
X113350000Y-91734000D01*
X113350000Y-88305000D02*
X113350000Y-88686000D01*
X107000001Y-90131829D02*
G75*
G02*
X109539999Y-92115001I-1J-2618171D01*
G01*
X110810000Y-85765000D02*
G75*
G02*
X113350000Y-88305000I0J-2540000D01*
G01*
%TO.C,K13*%
X109500000Y-109896000D02*
X109500000Y-109500000D01*
X109500000Y-109500000D02*
X110500000Y-109500000D01*
X110500000Y-123500000D02*
X109500000Y-123500000D01*
X109500000Y-123500000D02*
X109500000Y-122500000D01*
X123500000Y-122500000D02*
X123500000Y-123500000D01*
X123500000Y-123500000D02*
X122500000Y-123500000D01*
X122500000Y-109500000D02*
X123500000Y-109500000D01*
X123500000Y-109500000D02*
X123500000Y-110500000D01*
X120310000Y-109515000D02*
X111420000Y-109515000D01*
X111420000Y-109515000D02*
X111420000Y-109896000D01*
X111420000Y-112944000D02*
X111420000Y-113325000D01*
X114214000Y-113960000D02*
X116500000Y-113960000D01*
X119040000Y-115865000D02*
X120691000Y-115865000D01*
X122469000Y-115865000D02*
X122850000Y-115865000D01*
X122850000Y-115865000D02*
X122850000Y-115484000D01*
X122850000Y-112055000D02*
X122850000Y-112436000D01*
X116500001Y-113881829D02*
G75*
G02*
X119039999Y-115865001I-1J-2618171D01*
G01*
X120310000Y-109515000D02*
G75*
G02*
X122850000Y-112055000I0J-2540000D01*
G01*
%TO.C,K14*%
X119000000Y-52896000D02*
X119000000Y-52500000D01*
X119000000Y-52500000D02*
X120000000Y-52500000D01*
X120000000Y-66500000D02*
X119000000Y-66500000D01*
X119000000Y-66500000D02*
X119000000Y-65500000D01*
X133000000Y-65500000D02*
X133000000Y-66500000D01*
X133000000Y-66500000D02*
X132000000Y-66500000D01*
X132000000Y-52500000D02*
X133000000Y-52500000D01*
X133000000Y-52500000D02*
X133000000Y-53500000D01*
X129810000Y-52515000D02*
X120920000Y-52515000D01*
X120920000Y-52515000D02*
X120920000Y-52896000D01*
X120920000Y-55944000D02*
X120920000Y-56325000D01*
X123714000Y-56960000D02*
X126000000Y-56960000D01*
X128540000Y-58865000D02*
X130191000Y-58865000D01*
X131969000Y-58865000D02*
X132350000Y-58865000D01*
X132350000Y-58865000D02*
X132350000Y-58484000D01*
X132350000Y-55055000D02*
X132350000Y-55436000D01*
X126000001Y-56881829D02*
G75*
G02*
X128539999Y-58865001I-1J-2618171D01*
G01*
X129810000Y-52515000D02*
G75*
G02*
X132350000Y-55055000I0J-2540000D01*
G01*
%TO.C,K15*%
X119000000Y-71896000D02*
X119000000Y-71500000D01*
X119000000Y-71500000D02*
X120000000Y-71500000D01*
X120000000Y-85500000D02*
X119000000Y-85500000D01*
X119000000Y-85500000D02*
X119000000Y-84500000D01*
X133000000Y-84500000D02*
X133000000Y-85500000D01*
X133000000Y-85500000D02*
X132000000Y-85500000D01*
X132000000Y-71500000D02*
X133000000Y-71500000D01*
X133000000Y-71500000D02*
X133000000Y-72500000D01*
X129810000Y-71515000D02*
X120920000Y-71515000D01*
X120920000Y-71515000D02*
X120920000Y-71896000D01*
X120920000Y-74944000D02*
X120920000Y-75325000D01*
X123714000Y-75960000D02*
X126000000Y-75960000D01*
X128540000Y-77865000D02*
X130191000Y-77865000D01*
X131969000Y-77865000D02*
X132350000Y-77865000D01*
X132350000Y-77865000D02*
X132350000Y-77484000D01*
X132350000Y-74055000D02*
X132350000Y-74436000D01*
X126000001Y-75881829D02*
G75*
G02*
X128539999Y-77865001I-1J-2618171D01*
G01*
X129810000Y-71515000D02*
G75*
G02*
X132350000Y-74055000I0J-2540000D01*
G01*
%TO.C,K16*%
X119000000Y-90896000D02*
X119000000Y-90500000D01*
X119000000Y-90500000D02*
X120000000Y-90500000D01*
X120000000Y-104500000D02*
X119000000Y-104500000D01*
X119000000Y-104500000D02*
X119000000Y-103500000D01*
X133000000Y-103500000D02*
X133000000Y-104500000D01*
X133000000Y-104500000D02*
X132000000Y-104500000D01*
X132000000Y-90500000D02*
X133000000Y-90500000D01*
X133000000Y-90500000D02*
X133000000Y-91500000D01*
X129810000Y-90515000D02*
X120920000Y-90515000D01*
X120920000Y-90515000D02*
X120920000Y-90896000D01*
X120920000Y-93944000D02*
X120920000Y-94325000D01*
X123714000Y-94960000D02*
X126000000Y-94960000D01*
X128540000Y-96865000D02*
X130191000Y-96865000D01*
X131969000Y-96865000D02*
X132350000Y-96865000D01*
X132350000Y-96865000D02*
X132350000Y-96484000D01*
X132350000Y-93055000D02*
X132350000Y-93436000D01*
X126000001Y-94881829D02*
G75*
G02*
X128539999Y-96865001I-1J-2618171D01*
G01*
X129810000Y-90515000D02*
G75*
G02*
X132350000Y-93055000I0J-2540000D01*
G01*
%TO.C,K17*%
X131978760Y-111012293D02*
X132081253Y-110629786D01*
X132081253Y-110629786D02*
X133047178Y-110888605D01*
X129423712Y-124411567D02*
X128457786Y-124152747D01*
X128457786Y-124152747D02*
X128716605Y-123186822D01*
X142239567Y-126810288D02*
X141980747Y-127776214D01*
X141980747Y-127776214D02*
X141014822Y-127517395D01*
X144638288Y-113994433D02*
X145604214Y-114253253D01*
X145604214Y-114253253D02*
X145345395Y-115219178D01*
X142519028Y-113442109D02*
X133931948Y-111141207D01*
X133931948Y-111141207D02*
X133833338Y-111509225D01*
X133044457Y-114453367D02*
X132945847Y-114821385D01*
X135480294Y-116157888D02*
X137688400Y-116749548D01*
X139648802Y-119247037D02*
X141243545Y-119674348D01*
X142960961Y-120134528D02*
X143328979Y-120233138D01*
X143328979Y-120233138D02*
X143427589Y-119865120D01*
X144315080Y-116552961D02*
X144216470Y-116920978D01*
X137708633Y-116674042D02*
G75*
G02*
X139648800Y-119247038I-677633J-2528958D01*
G01*
X142519029Y-113442108D02*
G75*
G02*
X144315080Y-116552961I-657401J-2453452D01*
G01*
%TO.C,K18*%
X138000000Y-55271000D02*
X138000000Y-54875000D01*
X138000000Y-54875000D02*
X139000000Y-54875000D01*
X139000000Y-68875000D02*
X138000000Y-68875000D01*
X138000000Y-68875000D02*
X138000000Y-67875000D01*
X152000000Y-67875000D02*
X152000000Y-68875000D01*
X152000000Y-68875000D02*
X151000000Y-68875000D01*
X151000000Y-54875000D02*
X152000000Y-54875000D01*
X152000000Y-54875000D02*
X152000000Y-55875000D01*
X148810000Y-54890000D02*
X139920000Y-54890000D01*
X139920000Y-54890000D02*
X139920000Y-55271000D01*
X139920000Y-58319000D02*
X139920000Y-58700000D01*
X142714000Y-59335000D02*
X145000000Y-59335000D01*
X147540000Y-61240000D02*
X149191000Y-61240000D01*
X150969000Y-61240000D02*
X151350000Y-61240000D01*
X151350000Y-61240000D02*
X151350000Y-60859000D01*
X151350000Y-57430000D02*
X151350000Y-57811000D01*
X145000001Y-59256829D02*
G75*
G02*
X147539999Y-61240001I-1J-2618171D01*
G01*
X148810000Y-54890000D02*
G75*
G02*
X151350000Y-57430000I0J-2540000D01*
G01*
%TO.C,K19*%
X138000000Y-74271000D02*
X138000000Y-73875000D01*
X138000000Y-73875000D02*
X139000000Y-73875000D01*
X139000000Y-87875000D02*
X138000000Y-87875000D01*
X138000000Y-87875000D02*
X138000000Y-86875000D01*
X152000000Y-86875000D02*
X152000000Y-87875000D01*
X152000000Y-87875000D02*
X151000000Y-87875000D01*
X151000000Y-73875000D02*
X152000000Y-73875000D01*
X152000000Y-73875000D02*
X152000000Y-74875000D01*
X148810000Y-73890000D02*
X139920000Y-73890000D01*
X139920000Y-73890000D02*
X139920000Y-74271000D01*
X139920000Y-77319000D02*
X139920000Y-77700000D01*
X142714000Y-78335000D02*
X145000000Y-78335000D01*
X147540000Y-80240000D02*
X149191000Y-80240000D01*
X150969000Y-80240000D02*
X151350000Y-80240000D01*
X151350000Y-80240000D02*
X151350000Y-79859000D01*
X151350000Y-76430000D02*
X151350000Y-76811000D01*
X145000001Y-78256829D02*
G75*
G02*
X147539999Y-80240001I-1J-2618171D01*
G01*
X148810000Y-73890000D02*
G75*
G02*
X151350000Y-76430000I0J-2540000D01*
G01*
%TO.C,K20*%
X138000000Y-93271000D02*
X138000000Y-92875000D01*
X138000000Y-92875000D02*
X139000000Y-92875000D01*
X139000000Y-106875000D02*
X138000000Y-106875000D01*
X138000000Y-106875000D02*
X138000000Y-105875000D01*
X152000000Y-105875000D02*
X152000000Y-106875000D01*
X152000000Y-106875000D02*
X151000000Y-106875000D01*
X151000000Y-92875000D02*
X152000000Y-92875000D01*
X152000000Y-92875000D02*
X152000000Y-93875000D01*
X148810000Y-92890000D02*
X139920000Y-92890000D01*
X139920000Y-92890000D02*
X139920000Y-93271000D01*
X139920000Y-96319000D02*
X139920000Y-96700000D01*
X142714000Y-97335000D02*
X145000000Y-97335000D01*
X147540000Y-99240000D02*
X149191000Y-99240000D01*
X150969000Y-99240000D02*
X151350000Y-99240000D01*
X151350000Y-99240000D02*
X151350000Y-98859000D01*
X151350000Y-95430000D02*
X151350000Y-95811000D01*
X145000001Y-97256829D02*
G75*
G02*
X147539999Y-99240001I-1J-2618171D01*
G01*
X148810000Y-92890000D02*
G75*
G02*
X151350000Y-95430000I0J-2540000D01*
G01*
%TO.C,K21*%
X155777822Y-113794768D02*
X155975822Y-113451822D01*
X155975822Y-113451822D02*
X156841848Y-113951822D01*
X149841848Y-126076178D02*
X148975822Y-125576178D01*
X148975822Y-125576178D02*
X149475822Y-124710152D01*
X161600178Y-131710152D02*
X161100178Y-132576178D01*
X161100178Y-132576178D02*
X160234152Y-132076178D01*
X167234152Y-119951822D02*
X168100178Y-120451822D01*
X168100178Y-120451822D02*
X167600178Y-121317848D01*
X165330057Y-118869813D02*
X157631091Y-114424813D01*
X157631091Y-114424813D02*
X157440591Y-114754768D01*
X155916591Y-117394414D02*
X155726091Y-117724369D01*
X157828266Y-119671295D02*
X159808000Y-120814295D01*
X161055205Y-123734074D02*
X162485012Y-124559574D01*
X164024806Y-125448574D02*
X164354761Y-125639074D01*
X164354761Y-125639074D02*
X164545261Y-125309118D01*
X166259761Y-122339517D02*
X166069261Y-122669473D01*
X159847086Y-120746598D02*
G75*
G02*
X161055203Y-123734074I-1309086J-2267402D01*
G01*
X165330057Y-118869813D02*
G75*
G02*
X166259761Y-122339517I-1270000J-2199704D01*
G01*
D11*
%TO.C,R1*%
X166885252Y-87070000D02*
X166362748Y-87070000D01*
X166885252Y-85650000D02*
X166362748Y-85650000D01*
%TO.C,R2*%
X160765748Y-85650000D02*
X161288252Y-85650000D01*
X160765748Y-87070000D02*
X161288252Y-87070000D01*
%TO.C,R3*%
X160834000Y-94758252D02*
X160834000Y-94235748D01*
X162254000Y-94758252D02*
X162254000Y-94235748D01*
%TO.C,R4*%
X157786000Y-94740252D02*
X157786000Y-94217748D01*
X159206000Y-94740252D02*
X159206000Y-94217748D01*
%TO.C,R5*%
X81535748Y-106986000D02*
X82058252Y-106986000D01*
X81535748Y-108406000D02*
X82058252Y-108406000D01*
%TO.C,R6*%
X106374000Y-116061748D02*
X106374000Y-116584252D01*
X104954000Y-116061748D02*
X104954000Y-116584252D01*
%TO.C,R7*%
X163882000Y-94758252D02*
X163882000Y-94235748D01*
X165302000Y-94758252D02*
X165302000Y-94235748D01*
%TO.C,R8*%
X166930000Y-94758252D02*
X166930000Y-94235748D01*
X168350000Y-94758252D02*
X168350000Y-94235748D01*
D12*
%TO.C,U1*%
X101695000Y-111157000D02*
X101120000Y-111157000D01*
X101695000Y-121507000D02*
X101020000Y-121507000D01*
X91345000Y-121507000D02*
X92020000Y-121507000D01*
X91345000Y-111157000D02*
X92020000Y-111157000D01*
X101695000Y-111157000D02*
X101695000Y-111832000D01*
X91345000Y-111157000D02*
X91345000Y-111832000D01*
X91345000Y-121507000D02*
X91345000Y-120832000D01*
X101695000Y-121507000D02*
X101695000Y-120832000D01*
X101120000Y-111157000D02*
X101120000Y-109882000D01*
D11*
%TO.C,X1*%
X82570000Y-112932000D02*
X82570000Y-117432000D01*
X82570000Y-117432000D02*
X87970000Y-117432000D01*
%TO.C,SW1*%
D12*
X81216666Y-109624761D02*
X81359523Y-109672380D01*
X81597619Y-109672380D01*
X81692857Y-109624761D01*
X81740476Y-109577142D01*
X81788095Y-109481904D01*
X81788095Y-109386666D01*
X81740476Y-109291428D01*
X81692857Y-109243809D01*
X81597619Y-109196190D01*
X81407142Y-109148571D01*
X81311904Y-109100952D01*
X81264285Y-109053333D01*
X81216666Y-108958095D01*
X81216666Y-108862857D01*
X81264285Y-108767619D01*
X81311904Y-108720000D01*
X81407142Y-108672380D01*
X81645238Y-108672380D01*
X81788095Y-108720000D01*
X82121428Y-108672380D02*
X82359523Y-109672380D01*
X82550000Y-108958095D01*
X82740476Y-109672380D01*
X82978571Y-108672380D01*
X83883333Y-109672380D02*
X83311904Y-109672380D01*
X83597619Y-109672380D02*
X83597619Y-108672380D01*
X83502380Y-108815238D01*
X83407142Y-108910476D01*
X83311904Y-108958095D01*
%TO.C,C1*%
X83780333Y-121388142D02*
X83732714Y-121435761D01*
X83589857Y-121483380D01*
X83494619Y-121483380D01*
X83351761Y-121435761D01*
X83256523Y-121340523D01*
X83208904Y-121245285D01*
X83161285Y-121054809D01*
X83161285Y-120911952D01*
X83208904Y-120721476D01*
X83256523Y-120626238D01*
X83351761Y-120531000D01*
X83494619Y-120483380D01*
X83589857Y-120483380D01*
X83732714Y-120531000D01*
X83780333Y-120578619D01*
X84732714Y-121483380D02*
X84161285Y-121483380D01*
X84447000Y-121483380D02*
X84447000Y-120483380D01*
X84351761Y-120626238D01*
X84256523Y-120721476D01*
X84161285Y-120769095D01*
%TO.C,C2*%
X87463333Y-109704142D02*
X87415714Y-109751761D01*
X87272857Y-109799380D01*
X87177619Y-109799380D01*
X87034761Y-109751761D01*
X86939523Y-109656523D01*
X86891904Y-109561285D01*
X86844285Y-109370809D01*
X86844285Y-109227952D01*
X86891904Y-109037476D01*
X86939523Y-108942238D01*
X87034761Y-108847000D01*
X87177619Y-108799380D01*
X87272857Y-108799380D01*
X87415714Y-108847000D01*
X87463333Y-108894619D01*
X87844285Y-108894619D02*
X87891904Y-108847000D01*
X87987142Y-108799380D01*
X88225238Y-108799380D01*
X88320476Y-108847000D01*
X88368095Y-108894619D01*
X88415714Y-108989857D01*
X88415714Y-109085095D01*
X88368095Y-109227952D01*
X87796666Y-109799380D01*
X88415714Y-109799380D01*
%TO.C,C3*%
X107671142Y-121070666D02*
X107718761Y-121118285D01*
X107766380Y-121261142D01*
X107766380Y-121356380D01*
X107718761Y-121499238D01*
X107623523Y-121594476D01*
X107528285Y-121642095D01*
X107337809Y-121689714D01*
X107194952Y-121689714D01*
X107004476Y-121642095D01*
X106909238Y-121594476D01*
X106814000Y-121499238D01*
X106766380Y-121356380D01*
X106766380Y-121261142D01*
X106814000Y-121118285D01*
X106861619Y-121070666D01*
X106766380Y-120737333D02*
X106766380Y-120118285D01*
X107147333Y-120451619D01*
X107147333Y-120308761D01*
X107194952Y-120213523D01*
X107242571Y-120165904D01*
X107337809Y-120118285D01*
X107575904Y-120118285D01*
X107671142Y-120165904D01*
X107718761Y-120213523D01*
X107766380Y-120308761D01*
X107766380Y-120594476D01*
X107718761Y-120689714D01*
X107671142Y-120737333D01*
%TO.C,C4*%
X89511142Y-121578666D02*
X89558761Y-121626285D01*
X89606380Y-121769142D01*
X89606380Y-121864380D01*
X89558761Y-122007238D01*
X89463523Y-122102476D01*
X89368285Y-122150095D01*
X89177809Y-122197714D01*
X89034952Y-122197714D01*
X88844476Y-122150095D01*
X88749238Y-122102476D01*
X88654000Y-122007238D01*
X88606380Y-121864380D01*
X88606380Y-121769142D01*
X88654000Y-121626285D01*
X88701619Y-121578666D01*
X88939714Y-120721523D02*
X89606380Y-120721523D01*
X88558761Y-120959619D02*
X89273047Y-121197714D01*
X89273047Y-120578666D01*
%TO.C,C5*%
X87336333Y-106275142D02*
X87288714Y-106322761D01*
X87145857Y-106370380D01*
X87050619Y-106370380D01*
X86907761Y-106322761D01*
X86812523Y-106227523D01*
X86764904Y-106132285D01*
X86717285Y-105941809D01*
X86717285Y-105798952D01*
X86764904Y-105608476D01*
X86812523Y-105513238D01*
X86907761Y-105418000D01*
X87050619Y-105370380D01*
X87145857Y-105370380D01*
X87288714Y-105418000D01*
X87336333Y-105465619D01*
X88241095Y-105370380D02*
X87764904Y-105370380D01*
X87717285Y-105846571D01*
X87764904Y-105798952D01*
X87860142Y-105751333D01*
X88098238Y-105751333D01*
X88193476Y-105798952D01*
X88241095Y-105846571D01*
X88288714Y-105941809D01*
X88288714Y-106179904D01*
X88241095Y-106275142D01*
X88193476Y-106322761D01*
X88098238Y-106370380D01*
X87860142Y-106370380D01*
X87764904Y-106322761D01*
X87717285Y-106275142D01*
%TO.C,C6*%
X104354333Y-107672142D02*
X104306714Y-107719761D01*
X104163857Y-107767380D01*
X104068619Y-107767380D01*
X103925761Y-107719761D01*
X103830523Y-107624523D01*
X103782904Y-107529285D01*
X103735285Y-107338809D01*
X103735285Y-107195952D01*
X103782904Y-107005476D01*
X103830523Y-106910238D01*
X103925761Y-106815000D01*
X104068619Y-106767380D01*
X104163857Y-106767380D01*
X104306714Y-106815000D01*
X104354333Y-106862619D01*
X105211476Y-106767380D02*
X105021000Y-106767380D01*
X104925761Y-106815000D01*
X104878142Y-106862619D01*
X104782904Y-107005476D01*
X104735285Y-107195952D01*
X104735285Y-107576904D01*
X104782904Y-107672142D01*
X104830523Y-107719761D01*
X104925761Y-107767380D01*
X105116238Y-107767380D01*
X105211476Y-107719761D01*
X105259095Y-107672142D01*
X105306714Y-107576904D01*
X105306714Y-107338809D01*
X105259095Y-107243571D01*
X105211476Y-107195952D01*
X105116238Y-107148333D01*
X104925761Y-107148333D01*
X104830523Y-107195952D01*
X104782904Y-107243571D01*
X104735285Y-107338809D01*
%TO.C,C7*%
X107672142Y-111926666D02*
X107719761Y-111974285D01*
X107767380Y-112117142D01*
X107767380Y-112212380D01*
X107719761Y-112355238D01*
X107624523Y-112450476D01*
X107529285Y-112498095D01*
X107338809Y-112545714D01*
X107195952Y-112545714D01*
X107005476Y-112498095D01*
X106910238Y-112450476D01*
X106815000Y-112355238D01*
X106767380Y-112212380D01*
X106767380Y-112117142D01*
X106815000Y-111974285D01*
X106862619Y-111926666D01*
X106767380Y-111593333D02*
X106767380Y-110926666D01*
X107767380Y-111355238D01*
%TO.C,C8*%
X93305333Y-106021142D02*
X93257714Y-106068761D01*
X93114857Y-106116380D01*
X93019619Y-106116380D01*
X92876761Y-106068761D01*
X92781523Y-105973523D01*
X92733904Y-105878285D01*
X92686285Y-105687809D01*
X92686285Y-105544952D01*
X92733904Y-105354476D01*
X92781523Y-105259238D01*
X92876761Y-105164000D01*
X93019619Y-105116380D01*
X93114857Y-105116380D01*
X93257714Y-105164000D01*
X93305333Y-105211619D01*
X93876761Y-105544952D02*
X93781523Y-105497333D01*
X93733904Y-105449714D01*
X93686285Y-105354476D01*
X93686285Y-105306857D01*
X93733904Y-105211619D01*
X93781523Y-105164000D01*
X93876761Y-105116380D01*
X94067238Y-105116380D01*
X94162476Y-105164000D01*
X94210095Y-105211619D01*
X94257714Y-105306857D01*
X94257714Y-105354476D01*
X94210095Y-105449714D01*
X94162476Y-105497333D01*
X94067238Y-105544952D01*
X93876761Y-105544952D01*
X93781523Y-105592571D01*
X93733904Y-105640190D01*
X93686285Y-105735428D01*
X93686285Y-105925904D01*
X93733904Y-106021142D01*
X93781523Y-106068761D01*
X93876761Y-106116380D01*
X94067238Y-106116380D01*
X94162476Y-106068761D01*
X94210095Y-106021142D01*
X94257714Y-105925904D01*
X94257714Y-105735428D01*
X94210095Y-105640190D01*
X94162476Y-105592571D01*
X94067238Y-105544952D01*
%TO.C,F1*%
X162353666Y-90479571D02*
X162020333Y-90479571D01*
X162020333Y-91003380D02*
X162020333Y-90003380D01*
X162496523Y-90003380D01*
X163401285Y-91003380D02*
X162829857Y-91003380D01*
X163115571Y-91003380D02*
X163115571Y-90003380D01*
X163020333Y-90146238D01*
X162925095Y-90241476D01*
X162829857Y-90289095D01*
%TO.C,J1*%
X162734666Y-84161380D02*
X162734666Y-84875666D01*
X162687047Y-85018523D01*
X162591809Y-85113761D01*
X162448952Y-85161380D01*
X162353714Y-85161380D01*
X163734666Y-85161380D02*
X163163238Y-85161380D01*
X163448952Y-85161380D02*
X163448952Y-84161380D01*
X163353714Y-84304238D01*
X163258476Y-84399476D01*
X163163238Y-84447095D01*
%TO.C,R1*%
X166203333Y-88462380D02*
X165870000Y-87986190D01*
X165631904Y-88462380D02*
X165631904Y-87462380D01*
X166012857Y-87462380D01*
X166108095Y-87510000D01*
X166155714Y-87557619D01*
X166203333Y-87652857D01*
X166203333Y-87795714D01*
X166155714Y-87890952D01*
X166108095Y-87938571D01*
X166012857Y-87986190D01*
X165631904Y-87986190D01*
X167155714Y-88462380D02*
X166584285Y-88462380D01*
X166870000Y-88462380D02*
X166870000Y-87462380D01*
X166774761Y-87605238D01*
X166679523Y-87700476D01*
X166584285Y-87748095D01*
%TO.C,R2*%
X160860333Y-88590380D02*
X160527000Y-88114190D01*
X160288904Y-88590380D02*
X160288904Y-87590380D01*
X160669857Y-87590380D01*
X160765095Y-87638000D01*
X160812714Y-87685619D01*
X160860333Y-87780857D01*
X160860333Y-87923714D01*
X160812714Y-88018952D01*
X160765095Y-88066571D01*
X160669857Y-88114190D01*
X160288904Y-88114190D01*
X161241285Y-87685619D02*
X161288904Y-87638000D01*
X161384142Y-87590380D01*
X161622238Y-87590380D01*
X161717476Y-87638000D01*
X161765095Y-87685619D01*
X161812714Y-87780857D01*
X161812714Y-87876095D01*
X161765095Y-88018952D01*
X161193666Y-88590380D01*
X161812714Y-88590380D01*
%TO.C,R3*%
X160488333Y-92400380D02*
X160155000Y-91924190D01*
X159916904Y-92400380D02*
X159916904Y-91400380D01*
X160297857Y-91400380D01*
X160393095Y-91448000D01*
X160440714Y-91495619D01*
X160488333Y-91590857D01*
X160488333Y-91733714D01*
X160440714Y-91828952D01*
X160393095Y-91876571D01*
X160297857Y-91924190D01*
X159916904Y-91924190D01*
X160821666Y-91400380D02*
X161440714Y-91400380D01*
X161107380Y-91781333D01*
X161250238Y-91781333D01*
X161345476Y-91828952D01*
X161393095Y-91876571D01*
X161440714Y-91971809D01*
X161440714Y-92209904D01*
X161393095Y-92305142D01*
X161345476Y-92352761D01*
X161250238Y-92400380D01*
X160964523Y-92400380D01*
X160869285Y-92352761D01*
X160821666Y-92305142D01*
%TO.C,R4*%
X157059333Y-92400380D02*
X156726000Y-91924190D01*
X156487904Y-92400380D02*
X156487904Y-91400380D01*
X156868857Y-91400380D01*
X156964095Y-91448000D01*
X157011714Y-91495619D01*
X157059333Y-91590857D01*
X157059333Y-91733714D01*
X157011714Y-91828952D01*
X156964095Y-91876571D01*
X156868857Y-91924190D01*
X156487904Y-91924190D01*
X157916476Y-91733714D02*
X157916476Y-92400380D01*
X157678380Y-91352761D02*
X157440285Y-92067047D01*
X158059333Y-92067047D01*
%TO.C,R5*%
X82002333Y-106498380D02*
X81669000Y-106022190D01*
X81430904Y-106498380D02*
X81430904Y-105498380D01*
X81811857Y-105498380D01*
X81907095Y-105546000D01*
X81954714Y-105593619D01*
X82002333Y-105688857D01*
X82002333Y-105831714D01*
X81954714Y-105926952D01*
X81907095Y-105974571D01*
X81811857Y-106022190D01*
X81430904Y-106022190D01*
X82907095Y-105498380D02*
X82430904Y-105498380D01*
X82383285Y-105974571D01*
X82430904Y-105926952D01*
X82526142Y-105879333D01*
X82764238Y-105879333D01*
X82859476Y-105926952D01*
X82907095Y-105974571D01*
X82954714Y-106069809D01*
X82954714Y-106307904D01*
X82907095Y-106403142D01*
X82859476Y-106450761D01*
X82764238Y-106498380D01*
X82526142Y-106498380D01*
X82430904Y-106450761D01*
X82383285Y-106403142D01*
%TO.C,R6*%
X107766380Y-116489666D02*
X107290190Y-116823000D01*
X107766380Y-117061095D02*
X106766380Y-117061095D01*
X106766380Y-116680142D01*
X106814000Y-116584904D01*
X106861619Y-116537285D01*
X106956857Y-116489666D01*
X107099714Y-116489666D01*
X107194952Y-116537285D01*
X107242571Y-116584904D01*
X107290190Y-116680142D01*
X107290190Y-117061095D01*
X106766380Y-115632523D02*
X106766380Y-115823000D01*
X106814000Y-115918238D01*
X106861619Y-115965857D01*
X107004476Y-116061095D01*
X107194952Y-116108714D01*
X107575904Y-116108714D01*
X107671142Y-116061095D01*
X107718761Y-116013476D01*
X107766380Y-115918238D01*
X107766380Y-115727761D01*
X107718761Y-115632523D01*
X107671142Y-115584904D01*
X107575904Y-115537285D01*
X107337809Y-115537285D01*
X107242571Y-115584904D01*
X107194952Y-115632523D01*
X107147333Y-115727761D01*
X107147333Y-115918238D01*
X107194952Y-116013476D01*
X107242571Y-116061095D01*
X107337809Y-116108714D01*
%TO.C,R7*%
X163155333Y-92400380D02*
X162822000Y-91924190D01*
X162583904Y-92400380D02*
X162583904Y-91400380D01*
X162964857Y-91400380D01*
X163060095Y-91448000D01*
X163107714Y-91495619D01*
X163155333Y-91590857D01*
X163155333Y-91733714D01*
X163107714Y-91828952D01*
X163060095Y-91876571D01*
X162964857Y-91924190D01*
X162583904Y-91924190D01*
X163488666Y-91400380D02*
X164155333Y-91400380D01*
X163726761Y-92400380D01*
%TO.C,R8*%
X167473333Y-92400380D02*
X167140000Y-91924190D01*
X166901904Y-92400380D02*
X166901904Y-91400380D01*
X167282857Y-91400380D01*
X167378095Y-91448000D01*
X167425714Y-91495619D01*
X167473333Y-91590857D01*
X167473333Y-91733714D01*
X167425714Y-91828952D01*
X167378095Y-91876571D01*
X167282857Y-91924190D01*
X166901904Y-91924190D01*
X168044761Y-91828952D02*
X167949523Y-91781333D01*
X167901904Y-91733714D01*
X167854285Y-91638476D01*
X167854285Y-91590857D01*
X167901904Y-91495619D01*
X167949523Y-91448000D01*
X168044761Y-91400380D01*
X168235238Y-91400380D01*
X168330476Y-91448000D01*
X168378095Y-91495619D01*
X168425714Y-91590857D01*
X168425714Y-91638476D01*
X168378095Y-91733714D01*
X168330476Y-91781333D01*
X168235238Y-91828952D01*
X168044761Y-91828952D01*
X167949523Y-91876571D01*
X167901904Y-91924190D01*
X167854285Y-92019428D01*
X167854285Y-92209904D01*
X167901904Y-92305142D01*
X167949523Y-92352761D01*
X168044761Y-92400380D01*
X168235238Y-92400380D01*
X168330476Y-92352761D01*
X168378095Y-92305142D01*
X168425714Y-92209904D01*
X168425714Y-92019428D01*
X168378095Y-91924190D01*
X168330476Y-91876571D01*
X168235238Y-91828952D01*
%TO.C,U1*%
X102108095Y-121372380D02*
X102108095Y-122181904D01*
X102155714Y-122277142D01*
X102203333Y-122324761D01*
X102298571Y-122372380D01*
X102489047Y-122372380D01*
X102584285Y-122324761D01*
X102631904Y-122277142D01*
X102679523Y-122181904D01*
X102679523Y-121372380D01*
X103679523Y-122372380D02*
X103108095Y-122372380D01*
X103393809Y-122372380D02*
X103393809Y-121372380D01*
X103298571Y-121515238D01*
X103203333Y-121610476D01*
X103108095Y-121658095D01*
%TO.C,X1*%
X81240380Y-115871523D02*
X82240380Y-115204857D01*
X81240380Y-115204857D02*
X82240380Y-115871523D01*
X82240380Y-114300095D02*
X82240380Y-114871523D01*
X82240380Y-114585809D02*
X81240380Y-114585809D01*
X81383238Y-114681047D01*
X81478476Y-114776285D01*
X81526095Y-114871523D01*
%TD*%
M02*
