M48
; DRILL file {KiCad (5.1.10-1-10_14)} date Saturday, January 29, 2022 at 05:31:26 PM
; FORMAT={-:-/ absolute / inch / decimal}
; #@! TF.CreationDate,2022-01-29T17:31:26-08:00
; #@! TF.GenerationSoftware,Kicad,Pcbnew,(5.1.10-1-10_14)
; #@! TF.FileFunction,Plated,1,2,PTH
FMAT,2
INCH
T1C0.0157
T2C0.0236
T3C0.0354
T4C0.0590
%
G90
G05
T1
X1.675Y-3.05
X1.7Y-4.15
X2.2Y-4.55
X2.3Y-4.0
X2.4113Y-3.8287
X2.4193Y-3.0807
X2.4232Y-4.5768
X3.085Y-3.93
X3.1Y-2.4
X3.1Y-4.16
X3.127Y-3.0442
X3.127Y-4.5403
X3.1296Y-3.7896
X3.14Y-4.14
X3.15Y-4.65
X3.18Y-4.42
X3.36Y-4.42
X3.49Y-4.655
X3.505Y-4.83
X3.515Y-4.695
X3.54Y-4.22
X3.54Y-4.26
X3.54Y-4.3
X3.54Y-4.36
X3.56Y-4.12
X3.58Y-4.8539
X3.6203Y-4.5196
X3.6231Y-4.7636
X3.7247Y-4.2948
X3.74Y-4.74
X3.7528Y-4.62
X3.79Y-4.26
X3.7987Y-4.5386
X3.82Y-4.43
X3.82Y-4.48
X3.84Y-4.56
X3.84Y-4.6
X3.8493Y-4.6502
X3.8568Y-4.1568
X3.8726Y-2.6726
X3.8767Y-3.4167
X3.96Y-4.74
X4.04Y-4.29
X4.1Y-4.455
X4.1Y-4.74
X4.1196Y-4.5797
X4.16Y-4.3
X4.205Y-4.18
X4.22Y-4.91
X4.2291Y-4.68
X4.2577Y-4.7492
X4.29Y-4.07
X4.51Y-4.26
X4.59Y-4.35
X4.6235Y-2.5565
X4.6254Y-4.0546
X4.6294Y-3.3106
X4.835Y-4.94
X5.0292Y-4.9508
X5.2859Y-4.1541
X5.374Y-2.746
X5.38Y-3.5
X5.5Y-5.05
X5.7384Y-5.1416
X5.9Y-2.8
X6.0118Y-3.5482
X6.0198Y-2.8002
X6.0432Y-4.2568
X6.15Y-5.25
X6.3Y-4.34
X6.349Y-5.311
X6.36Y-4.34
X6.6Y-3.46
X6.6Y-5.05
T4
X1.8185Y-2.6165
X1.8185Y-2.8165
X1.8185Y-3.3646
X1.8185Y-3.5646
X1.8185Y-4.1126
X1.8185Y-4.3126
X2.0685Y-2.5165
X2.0685Y-2.9165
X2.0685Y-3.2646
X2.0685Y-3.6646
X2.0685Y-4.0126
X2.0685Y-4.4126
X2.5665Y-2.6165
X2.5665Y-2.8165
X2.5665Y-3.3646
X2.5665Y-3.5646
X2.5665Y-4.1126
X2.5665Y-4.3126
X2.8165Y-2.5165
X2.8165Y-2.9165
X2.8165Y-3.2646
X2.8165Y-3.6646
X2.8165Y-4.0126
X2.8165Y-4.4126
X3.3146Y-2.2425
X3.3146Y-2.4425
X3.3146Y-2.9906
X3.3146Y-3.1906
X3.3146Y-3.7386
X3.3146Y-3.9386
X3.5646Y-2.1425
X3.5646Y-2.5425
X3.5646Y-2.8906
X3.5646Y-3.2906
X3.5646Y-3.6386
X3.5646Y-4.0386
X4.0626Y-2.0555
X4.0626Y-2.2555
X4.0626Y-2.8035
X4.0626Y-3.0035
X4.0626Y-3.5516
X4.0626Y-3.7516
X4.3126Y-1.9555
X4.3126Y-2.3555
X4.3126Y-2.7035
X4.3126Y-3.1035
X4.3126Y-3.4516
X4.3126Y-3.8516
X4.4366Y-4.4866
X4.4366Y-4.6866
X4.6866Y-4.3866
X4.6866Y-4.7866
X4.8106Y-2.2425
X4.8106Y-2.4425
X4.8106Y-2.9906
X4.8106Y-3.1906
X4.8106Y-3.7386
X4.8106Y-3.9386
X5.0606Y-2.1425
X5.0606Y-2.5425
X5.0606Y-2.8906
X5.0606Y-3.2906
X5.0606Y-3.6386
X5.0606Y-4.0386
X5.2242Y-4.7508
X5.2759Y-4.5576
X5.4398Y-4.9121
X5.5433Y-4.5257
X5.5587Y-2.336
X5.5587Y-2.536
X5.5587Y-3.0841
X5.5587Y-3.2841
X5.5587Y-3.8321
X5.5587Y-4.0321
X5.8087Y-2.236
X5.8087Y-2.636
X5.8087Y-2.9841
X5.8087Y-3.3841
X5.8087Y-3.7321
X5.8087Y-4.1321
X6.0617Y-4.8547
X6.1617Y-4.6815
X6.2283Y-5.0663
X6.4283Y-4.7199
T2
G00X6.2799Y-3.0805
M15
G01X6.2799Y-3.0569
M16
G05
G00X6.2799Y-3.2549
M15
G01X6.2799Y-3.2116
M16
G05
G00X6.6201Y-3.0805
M15
G01X6.6201Y-3.0569
M16
G05
G00X6.6201Y-3.2549
M15
G01X6.6201Y-3.2116
M16
G05
T3
G00X6.2269Y-3.8789
M15
G01X6.2033Y-3.8789
M16
G05
G00X6.2269Y-4.2411
M15
G01X6.2033Y-4.2411
M16
G05
G00X6.2702Y-4.06
M15
G01X6.2466Y-4.06
M16
G05
G00X6.4277Y-4.06
M15
G01X6.4041Y-4.06
M16
G05
G00X6.5458Y-4.06
M15
G01X6.5222Y-4.06
M16
G05
T0
M30
