%TF.GenerationSoftware,KiCad,Pcbnew,(5.1.10-1-10_14)*%
%TF.CreationDate,2022-01-29T17:31:24-08:00*%
%TF.ProjectId,phase,70686173-652e-46b6-9963-61645f706362,v1.0.1*%
%TF.SameCoordinates,Original*%
%TF.FileFunction,Soldermask,Bot*%
%TF.FilePolarity,Negative*%
%FSLAX46Y46*%
G04 Gerber Fmt 4.6, Leading zero omitted, Abs format (unit mm)*
G04 Created by KiCad (PCBNEW (5.1.10-1-10_14)) date 2022-01-29 17:31:24*
%MOMM*%
%LPD*%
G01*
G04 APERTURE LIST*
%ADD10C,2.800000*%
%ADD11C,1.600000*%
%ADD12O,2.300000X1.700000*%
%ADD13O,1.100000X1.700000*%
%ADD14C,0.750000*%
%ADD15O,1.100000X2.200000*%
%ADD16C,1.801800*%
%ADD17C,2.386000*%
%ADD18C,4.087800*%
%ADD19C,3.100000*%
G04 APERTURE END LIST*
%TO.C,D1*%
G36*
G01*
X60100000Y-75450000D02*
X58900000Y-75450000D01*
G75*
G02*
X58850000Y-75400000I0J50000D01*
G01*
X58850000Y-74500000D01*
G75*
G02*
X58900000Y-74450000I50000J0D01*
G01*
X60100000Y-74450000D01*
G75*
G02*
X60150000Y-74500000I0J-50000D01*
G01*
X60150000Y-75400000D01*
G75*
G02*
X60100000Y-75450000I-50000J0D01*
G01*
G37*
G36*
G01*
X60100000Y-78750000D02*
X58900000Y-78750000D01*
G75*
G02*
X58850000Y-78700000I0J50000D01*
G01*
X58850000Y-77800000D01*
G75*
G02*
X58900000Y-77750000I50000J0D01*
G01*
X60100000Y-77750000D01*
G75*
G02*
X60150000Y-77800000I0J-50000D01*
G01*
X60150000Y-78700000D01*
G75*
G02*
X60100000Y-78750000I-50000J0D01*
G01*
G37*
%TD*%
%TO.C,D2*%
G36*
G01*
X60100000Y-94450000D02*
X58900000Y-94450000D01*
G75*
G02*
X58850000Y-94400000I0J50000D01*
G01*
X58850000Y-93500000D01*
G75*
G02*
X58900000Y-93450000I50000J0D01*
G01*
X60100000Y-93450000D01*
G75*
G02*
X60150000Y-93500000I0J-50000D01*
G01*
X60150000Y-94400000D01*
G75*
G02*
X60100000Y-94450000I-50000J0D01*
G01*
G37*
G36*
G01*
X60100000Y-97750000D02*
X58900000Y-97750000D01*
G75*
G02*
X58850000Y-97700000I0J50000D01*
G01*
X58850000Y-96800000D01*
G75*
G02*
X58900000Y-96750000I50000J0D01*
G01*
X60100000Y-96750000D01*
G75*
G02*
X60150000Y-96800000I0J-50000D01*
G01*
X60150000Y-97700000D01*
G75*
G02*
X60100000Y-97750000I-50000J0D01*
G01*
G37*
%TD*%
%TO.C,D3*%
G36*
G01*
X60100000Y-113450000D02*
X58900000Y-113450000D01*
G75*
G02*
X58850000Y-113400000I0J50000D01*
G01*
X58850000Y-112500000D01*
G75*
G02*
X58900000Y-112450000I50000J0D01*
G01*
X60100000Y-112450000D01*
G75*
G02*
X60150000Y-112500000I0J-50000D01*
G01*
X60150000Y-113400000D01*
G75*
G02*
X60100000Y-113450000I-50000J0D01*
G01*
G37*
G36*
G01*
X60100000Y-116750000D02*
X58900000Y-116750000D01*
G75*
G02*
X58850000Y-116700000I0J50000D01*
G01*
X58850000Y-115800000D01*
G75*
G02*
X58900000Y-115750000I50000J0D01*
G01*
X60100000Y-115750000D01*
G75*
G02*
X60150000Y-115800000I0J-50000D01*
G01*
X60150000Y-116700000D01*
G75*
G02*
X60100000Y-116750000I-50000J0D01*
G01*
G37*
%TD*%
%TO.C,D4*%
G36*
G01*
X79100000Y-75450000D02*
X77900000Y-75450000D01*
G75*
G02*
X77850000Y-75400000I0J50000D01*
G01*
X77850000Y-74500000D01*
G75*
G02*
X77900000Y-74450000I50000J0D01*
G01*
X79100000Y-74450000D01*
G75*
G02*
X79150000Y-74500000I0J-50000D01*
G01*
X79150000Y-75400000D01*
G75*
G02*
X79100000Y-75450000I-50000J0D01*
G01*
G37*
G36*
G01*
X79100000Y-78750000D02*
X77900000Y-78750000D01*
G75*
G02*
X77850000Y-78700000I0J50000D01*
G01*
X77850000Y-77800000D01*
G75*
G02*
X77900000Y-77750000I50000J0D01*
G01*
X79100000Y-77750000D01*
G75*
G02*
X79150000Y-77800000I0J-50000D01*
G01*
X79150000Y-78700000D01*
G75*
G02*
X79100000Y-78750000I-50000J0D01*
G01*
G37*
%TD*%
%TO.C,D5*%
G36*
G01*
X79100000Y-94450000D02*
X77900000Y-94450000D01*
G75*
G02*
X77850000Y-94400000I0J50000D01*
G01*
X77850000Y-93500000D01*
G75*
G02*
X77900000Y-93450000I50000J0D01*
G01*
X79100000Y-93450000D01*
G75*
G02*
X79150000Y-93500000I0J-50000D01*
G01*
X79150000Y-94400000D01*
G75*
G02*
X79100000Y-94450000I-50000J0D01*
G01*
G37*
G36*
G01*
X79100000Y-97750000D02*
X77900000Y-97750000D01*
G75*
G02*
X77850000Y-97700000I0J50000D01*
G01*
X77850000Y-96800000D01*
G75*
G02*
X77900000Y-96750000I50000J0D01*
G01*
X79100000Y-96750000D01*
G75*
G02*
X79150000Y-96800000I0J-50000D01*
G01*
X79150000Y-97700000D01*
G75*
G02*
X79100000Y-97750000I-50000J0D01*
G01*
G37*
%TD*%
%TO.C,D6*%
G36*
G01*
X79100000Y-113450000D02*
X77900000Y-113450000D01*
G75*
G02*
X77850000Y-113400000I0J50000D01*
G01*
X77850000Y-112500000D01*
G75*
G02*
X77900000Y-112450000I50000J0D01*
G01*
X79100000Y-112450000D01*
G75*
G02*
X79150000Y-112500000I0J-50000D01*
G01*
X79150000Y-113400000D01*
G75*
G02*
X79100000Y-113450000I-50000J0D01*
G01*
G37*
G36*
G01*
X79100000Y-116750000D02*
X77900000Y-116750000D01*
G75*
G02*
X77850000Y-116700000I0J50000D01*
G01*
X77850000Y-115800000D01*
G75*
G02*
X77900000Y-115750000I50000J0D01*
G01*
X79100000Y-115750000D01*
G75*
G02*
X79150000Y-115800000I0J-50000D01*
G01*
X79150000Y-116700000D01*
G75*
G02*
X79100000Y-116750000I-50000J0D01*
G01*
G37*
%TD*%
%TO.C,D7*%
G36*
G01*
X98100000Y-65950000D02*
X96900000Y-65950000D01*
G75*
G02*
X96850000Y-65900000I0J50000D01*
G01*
X96850000Y-65000000D01*
G75*
G02*
X96900000Y-64950000I50000J0D01*
G01*
X98100000Y-64950000D01*
G75*
G02*
X98150000Y-65000000I0J-50000D01*
G01*
X98150000Y-65900000D01*
G75*
G02*
X98100000Y-65950000I-50000J0D01*
G01*
G37*
G36*
G01*
X98100000Y-69250000D02*
X96900000Y-69250000D01*
G75*
G02*
X96850000Y-69200000I0J50000D01*
G01*
X96850000Y-68300000D01*
G75*
G02*
X96900000Y-68250000I50000J0D01*
G01*
X98100000Y-68250000D01*
G75*
G02*
X98150000Y-68300000I0J-50000D01*
G01*
X98150000Y-69200000D01*
G75*
G02*
X98100000Y-69250000I-50000J0D01*
G01*
G37*
%TD*%
%TO.C,D8*%
G36*
G01*
X98100000Y-84950000D02*
X96900000Y-84950000D01*
G75*
G02*
X96850000Y-84900000I0J50000D01*
G01*
X96850000Y-84000000D01*
G75*
G02*
X96900000Y-83950000I50000J0D01*
G01*
X98100000Y-83950000D01*
G75*
G02*
X98150000Y-84000000I0J-50000D01*
G01*
X98150000Y-84900000D01*
G75*
G02*
X98100000Y-84950000I-50000J0D01*
G01*
G37*
G36*
G01*
X98100000Y-88250000D02*
X96900000Y-88250000D01*
G75*
G02*
X96850000Y-88200000I0J50000D01*
G01*
X96850000Y-87300000D01*
G75*
G02*
X96900000Y-87250000I50000J0D01*
G01*
X98100000Y-87250000D01*
G75*
G02*
X98150000Y-87300000I0J-50000D01*
G01*
X98150000Y-88200000D01*
G75*
G02*
X98100000Y-88250000I-50000J0D01*
G01*
G37*
%TD*%
%TO.C,D9*%
G36*
G01*
X98100000Y-103950000D02*
X96900000Y-103950000D01*
G75*
G02*
X96850000Y-103900000I0J50000D01*
G01*
X96850000Y-103000000D01*
G75*
G02*
X96900000Y-102950000I50000J0D01*
G01*
X98100000Y-102950000D01*
G75*
G02*
X98150000Y-103000000I0J-50000D01*
G01*
X98150000Y-103900000D01*
G75*
G02*
X98100000Y-103950000I-50000J0D01*
G01*
G37*
G36*
G01*
X98100000Y-107250000D02*
X96900000Y-107250000D01*
G75*
G02*
X96850000Y-107200000I0J50000D01*
G01*
X96850000Y-106300000D01*
G75*
G02*
X96900000Y-106250000I50000J0D01*
G01*
X98100000Y-106250000D01*
G75*
G02*
X98150000Y-106300000I0J-50000D01*
G01*
X98150000Y-107200000D01*
G75*
G02*
X98100000Y-107250000I-50000J0D01*
G01*
G37*
%TD*%
%TO.C,D10*%
G36*
G01*
X117100000Y-61200000D02*
X115900000Y-61200000D01*
G75*
G02*
X115850000Y-61150000I0J50000D01*
G01*
X115850000Y-60250000D01*
G75*
G02*
X115900000Y-60200000I50000J0D01*
G01*
X117100000Y-60200000D01*
G75*
G02*
X117150000Y-60250000I0J-50000D01*
G01*
X117150000Y-61150000D01*
G75*
G02*
X117100000Y-61200000I-50000J0D01*
G01*
G37*
G36*
G01*
X117100000Y-64500000D02*
X115900000Y-64500000D01*
G75*
G02*
X115850000Y-64450000I0J50000D01*
G01*
X115850000Y-63550000D01*
G75*
G02*
X115900000Y-63500000I50000J0D01*
G01*
X117100000Y-63500000D01*
G75*
G02*
X117150000Y-63550000I0J-50000D01*
G01*
X117150000Y-64450000D01*
G75*
G02*
X117100000Y-64500000I-50000J0D01*
G01*
G37*
%TD*%
%TO.C,D11*%
G36*
G01*
X117100000Y-80200000D02*
X115900000Y-80200000D01*
G75*
G02*
X115850000Y-80150000I0J50000D01*
G01*
X115850000Y-79250000D01*
G75*
G02*
X115900000Y-79200000I50000J0D01*
G01*
X117100000Y-79200000D01*
G75*
G02*
X117150000Y-79250000I0J-50000D01*
G01*
X117150000Y-80150000D01*
G75*
G02*
X117100000Y-80200000I-50000J0D01*
G01*
G37*
G36*
G01*
X117100000Y-83500000D02*
X115900000Y-83500000D01*
G75*
G02*
X115850000Y-83450000I0J50000D01*
G01*
X115850000Y-82550000D01*
G75*
G02*
X115900000Y-82500000I50000J0D01*
G01*
X117100000Y-82500000D01*
G75*
G02*
X117150000Y-82550000I0J-50000D01*
G01*
X117150000Y-83450000D01*
G75*
G02*
X117100000Y-83500000I-50000J0D01*
G01*
G37*
%TD*%
%TO.C,D12*%
G36*
G01*
X117100000Y-99200000D02*
X115900000Y-99200000D01*
G75*
G02*
X115850000Y-99150000I0J50000D01*
G01*
X115850000Y-98250000D01*
G75*
G02*
X115900000Y-98200000I50000J0D01*
G01*
X117100000Y-98200000D01*
G75*
G02*
X117150000Y-98250000I0J-50000D01*
G01*
X117150000Y-99150000D01*
G75*
G02*
X117100000Y-99200000I-50000J0D01*
G01*
G37*
G36*
G01*
X117100000Y-102500000D02*
X115900000Y-102500000D01*
G75*
G02*
X115850000Y-102450000I0J50000D01*
G01*
X115850000Y-101550000D01*
G75*
G02*
X115900000Y-101500000I50000J0D01*
G01*
X117100000Y-101500000D01*
G75*
G02*
X117150000Y-101550000I0J-50000D01*
G01*
X117150000Y-102450000D01*
G75*
G02*
X117100000Y-102500000I-50000J0D01*
G01*
G37*
%TD*%
%TO.C,D13*%
G36*
G01*
X126600000Y-122950000D02*
X125400000Y-122950000D01*
G75*
G02*
X125350000Y-122900000I0J50000D01*
G01*
X125350000Y-122000000D01*
G75*
G02*
X125400000Y-121950000I50000J0D01*
G01*
X126600000Y-121950000D01*
G75*
G02*
X126650000Y-122000000I0J-50000D01*
G01*
X126650000Y-122900000D01*
G75*
G02*
X126600000Y-122950000I-50000J0D01*
G01*
G37*
G36*
G01*
X126600000Y-126250000D02*
X125400000Y-126250000D01*
G75*
G02*
X125350000Y-126200000I0J50000D01*
G01*
X125350000Y-125300000D01*
G75*
G02*
X125400000Y-125250000I50000J0D01*
G01*
X126600000Y-125250000D01*
G75*
G02*
X126650000Y-125300000I0J-50000D01*
G01*
X126650000Y-126200000D01*
G75*
G02*
X126600000Y-126250000I-50000J0D01*
G01*
G37*
%TD*%
%TO.C,D14*%
G36*
G01*
X136100000Y-65950000D02*
X134900000Y-65950000D01*
G75*
G02*
X134850000Y-65900000I0J50000D01*
G01*
X134850000Y-65000000D01*
G75*
G02*
X134900000Y-64950000I50000J0D01*
G01*
X136100000Y-64950000D01*
G75*
G02*
X136150000Y-65000000I0J-50000D01*
G01*
X136150000Y-65900000D01*
G75*
G02*
X136100000Y-65950000I-50000J0D01*
G01*
G37*
G36*
G01*
X136100000Y-69250000D02*
X134900000Y-69250000D01*
G75*
G02*
X134850000Y-69200000I0J50000D01*
G01*
X134850000Y-68300000D01*
G75*
G02*
X134900000Y-68250000I50000J0D01*
G01*
X136100000Y-68250000D01*
G75*
G02*
X136150000Y-68300000I0J-50000D01*
G01*
X136150000Y-69200000D01*
G75*
G02*
X136100000Y-69250000I-50000J0D01*
G01*
G37*
%TD*%
%TO.C,D15*%
G36*
G01*
X136100000Y-84950000D02*
X134900000Y-84950000D01*
G75*
G02*
X134850000Y-84900000I0J50000D01*
G01*
X134850000Y-84000000D01*
G75*
G02*
X134900000Y-83950000I50000J0D01*
G01*
X136100000Y-83950000D01*
G75*
G02*
X136150000Y-84000000I0J-50000D01*
G01*
X136150000Y-84900000D01*
G75*
G02*
X136100000Y-84950000I-50000J0D01*
G01*
G37*
G36*
G01*
X136100000Y-88250000D02*
X134900000Y-88250000D01*
G75*
G02*
X134850000Y-88200000I0J50000D01*
G01*
X134850000Y-87300000D01*
G75*
G02*
X134900000Y-87250000I50000J0D01*
G01*
X136100000Y-87250000D01*
G75*
G02*
X136150000Y-87300000I0J-50000D01*
G01*
X136150000Y-88200000D01*
G75*
G02*
X136100000Y-88250000I-50000J0D01*
G01*
G37*
%TD*%
%TO.C,D16*%
G36*
G01*
X136100000Y-103950000D02*
X134900000Y-103950000D01*
G75*
G02*
X134850000Y-103900000I0J50000D01*
G01*
X134850000Y-103000000D01*
G75*
G02*
X134900000Y-102950000I50000J0D01*
G01*
X136100000Y-102950000D01*
G75*
G02*
X136150000Y-103000000I0J-50000D01*
G01*
X136150000Y-103900000D01*
G75*
G02*
X136100000Y-103950000I-50000J0D01*
G01*
G37*
G36*
G01*
X136100000Y-107250000D02*
X134900000Y-107250000D01*
G75*
G02*
X134850000Y-107200000I0J50000D01*
G01*
X134850000Y-106300000D01*
G75*
G02*
X134900000Y-106250000I50000J0D01*
G01*
X136100000Y-106250000D01*
G75*
G02*
X136150000Y-106300000I0J-50000D01*
G01*
X136150000Y-107200000D01*
G75*
G02*
X136100000Y-107250000I-50000J0D01*
G01*
G37*
%TD*%
%TO.C,D17*%
G36*
G01*
X145117197Y-128047476D02*
X143958086Y-127736893D01*
G75*
G02*
X143922731Y-127675656I12941J48296D01*
G01*
X144155668Y-126806323D01*
G75*
G02*
X144216905Y-126770968I48296J-12941D01*
G01*
X145376016Y-127081551D01*
G75*
G02*
X145411371Y-127142788I-12941J-48296D01*
G01*
X145178434Y-128012121D01*
G75*
G02*
X145117197Y-128047476I-48296J12941D01*
G01*
G37*
G36*
G01*
X144263095Y-131235032D02*
X143103984Y-130924449D01*
G75*
G02*
X143068629Y-130863212I12941J48296D01*
G01*
X143301566Y-129993879D01*
G75*
G02*
X143362803Y-129958524I48296J-12941D01*
G01*
X144521914Y-130269107D01*
G75*
G02*
X144557269Y-130330344I-12941J-48296D01*
G01*
X144324332Y-131199677D01*
G75*
G02*
X144263095Y-131235032I-48296J12941D01*
G01*
G37*
%TD*%
%TO.C,D18*%
G36*
G01*
X155100000Y-68325000D02*
X153900000Y-68325000D01*
G75*
G02*
X153850000Y-68275000I0J50000D01*
G01*
X153850000Y-67375000D01*
G75*
G02*
X153900000Y-67325000I50000J0D01*
G01*
X155100000Y-67325000D01*
G75*
G02*
X155150000Y-67375000I0J-50000D01*
G01*
X155150000Y-68275000D01*
G75*
G02*
X155100000Y-68325000I-50000J0D01*
G01*
G37*
G36*
G01*
X155100000Y-71625000D02*
X153900000Y-71625000D01*
G75*
G02*
X153850000Y-71575000I0J50000D01*
G01*
X153850000Y-70675000D01*
G75*
G02*
X153900000Y-70625000I50000J0D01*
G01*
X155100000Y-70625000D01*
G75*
G02*
X155150000Y-70675000I0J-50000D01*
G01*
X155150000Y-71575000D01*
G75*
G02*
X155100000Y-71625000I-50000J0D01*
G01*
G37*
%TD*%
%TO.C,D19*%
G36*
G01*
X155100000Y-87325000D02*
X153900000Y-87325000D01*
G75*
G02*
X153850000Y-87275000I0J50000D01*
G01*
X153850000Y-86375000D01*
G75*
G02*
X153900000Y-86325000I50000J0D01*
G01*
X155100000Y-86325000D01*
G75*
G02*
X155150000Y-86375000I0J-50000D01*
G01*
X155150000Y-87275000D01*
G75*
G02*
X155100000Y-87325000I-50000J0D01*
G01*
G37*
G36*
G01*
X155100000Y-90625000D02*
X153900000Y-90625000D01*
G75*
G02*
X153850000Y-90575000I0J50000D01*
G01*
X153850000Y-89675000D01*
G75*
G02*
X153900000Y-89625000I50000J0D01*
G01*
X155100000Y-89625000D01*
G75*
G02*
X155150000Y-89675000I0J-50000D01*
G01*
X155150000Y-90575000D01*
G75*
G02*
X155100000Y-90625000I-50000J0D01*
G01*
G37*
%TD*%
%TO.C,D20*%
G36*
G01*
X155100000Y-106325000D02*
X153900000Y-106325000D01*
G75*
G02*
X153850000Y-106275000I0J50000D01*
G01*
X153850000Y-105375000D01*
G75*
G02*
X153900000Y-105325000I50000J0D01*
G01*
X155100000Y-105325000D01*
G75*
G02*
X155150000Y-105375000I0J-50000D01*
G01*
X155150000Y-106275000D01*
G75*
G02*
X155100000Y-106325000I-50000J0D01*
G01*
G37*
G36*
G01*
X155100000Y-109625000D02*
X153900000Y-109625000D01*
G75*
G02*
X153850000Y-109575000I0J50000D01*
G01*
X153850000Y-108675000D01*
G75*
G02*
X153900000Y-108625000I50000J0D01*
G01*
X155100000Y-108625000D01*
G75*
G02*
X155150000Y-108675000I0J-50000D01*
G01*
X155150000Y-109575000D01*
G75*
G02*
X155100000Y-109625000I-50000J0D01*
G01*
G37*
%TD*%
%TO.C,D21*%
G36*
G01*
X164059615Y-133650070D02*
X163020385Y-133050070D01*
G75*
G02*
X163002084Y-132981769I25000J43301D01*
G01*
X163452084Y-132202347D01*
G75*
G02*
X163520385Y-132184046I43301J-25000D01*
G01*
X164559615Y-132784046D01*
G75*
G02*
X164577916Y-132852347I-25000J-43301D01*
G01*
X164127916Y-133631769D01*
G75*
G02*
X164059615Y-133650070I-43301J25000D01*
G01*
G37*
G36*
G01*
X162409615Y-136507954D02*
X161370385Y-135907954D01*
G75*
G02*
X161352084Y-135839653I25000J43301D01*
G01*
X161802084Y-135060231D01*
G75*
G02*
X161870385Y-135041930I43301J-25000D01*
G01*
X162909615Y-135641930D01*
G75*
G02*
X162927916Y-135710231I-25000J-43301D01*
G01*
X162477916Y-136489653D01*
G75*
G02*
X162409615Y-136507954I-43301J25000D01*
G01*
G37*
%TD*%
D10*
%TO.C,REF\u002A\u002A*%
X145000000Y-71375000D03*
%TD*%
%TO.C,REF\u002A\u002A*%
X149860000Y-115824000D03*
%TD*%
%TO.C,REF\u002A\u002A*%
X50000000Y-97500000D03*
%TD*%
%TO.C,REF\u002A\u002A*%
X50000000Y-78500000D03*
%TD*%
D11*
%TO.C,J2*%
X160564000Y-105424000D03*
X167564000Y-105424000D03*
D12*
X157864000Y-107724000D03*
X157864000Y-98524000D03*
X158964000Y-103124000D03*
X165964000Y-103124000D03*
D11*
X160564000Y-100824000D03*
X167564000Y-100824000D03*
D12*
X162964000Y-103124000D03*
%TD*%
%TO.C,C9*%
G36*
G01*
X102137738Y-118755000D02*
X103094262Y-118755000D01*
G75*
G02*
X103366000Y-119026738I0J-271738D01*
G01*
X103366000Y-119733262D01*
G75*
G02*
X103094262Y-120005000I-271738J0D01*
G01*
X102137738Y-120005000D01*
G75*
G02*
X101866000Y-119733262I0J271738D01*
G01*
X101866000Y-119026738D01*
G75*
G02*
X102137738Y-118755000I271738J0D01*
G01*
G37*
G36*
G01*
X102137738Y-116705000D02*
X103094262Y-116705000D01*
G75*
G02*
X103366000Y-116976738I0J-271738D01*
G01*
X103366000Y-117683262D01*
G75*
G02*
X103094262Y-117955000I-271738J0D01*
G01*
X102137738Y-117955000D01*
G75*
G02*
X101866000Y-117683262I0J271738D01*
G01*
X101866000Y-116976738D01*
G75*
G02*
X102137738Y-116705000I271738J0D01*
G01*
G37*
%TD*%
D13*
%TO.C,J1*%
X159510000Y-77944000D03*
D14*
X160940000Y-81594000D03*
D13*
X168150000Y-77944000D03*
D14*
X166720000Y-81594000D03*
D15*
X168150000Y-82124000D03*
X159510000Y-82124000D03*
%TD*%
D16*
%TO.C,K1*%
X44920000Y-69000000D03*
X55080000Y-69000000D03*
D17*
X46190000Y-66460000D03*
D18*
X50000000Y-69000000D03*
D17*
X52540000Y-63920000D03*
D19*
X53810000Y-71540000D03*
X47460000Y-74080000D03*
D17*
X46190000Y-71540000D03*
X52540000Y-74080000D03*
D19*
X53810000Y-66460000D03*
X47460000Y-63920000D03*
G36*
G01*
X56235000Y-72790000D02*
X56235000Y-70290000D01*
G75*
G02*
X56285000Y-70240000I50000J0D01*
G01*
X58835000Y-70240000D01*
G75*
G02*
X58885000Y-70290000I0J-50000D01*
G01*
X58885000Y-72790000D01*
G75*
G02*
X58835000Y-72840000I-50000J0D01*
G01*
X56285000Y-72840000D01*
G75*
G02*
X56235000Y-72790000I0J50000D01*
G01*
G37*
G36*
G01*
X42385000Y-75330000D02*
X42385000Y-72830000D01*
G75*
G02*
X42435000Y-72780000I50000J0D01*
G01*
X44985000Y-72780000D01*
G75*
G02*
X45035000Y-72830000I0J-50000D01*
G01*
X45035000Y-75330000D01*
G75*
G02*
X44985000Y-75380000I-50000J0D01*
G01*
X42435000Y-75380000D01*
G75*
G02*
X42385000Y-75330000I0J50000D01*
G01*
G37*
%TD*%
D16*
%TO.C,K2*%
X44920000Y-88000000D03*
X55080000Y-88000000D03*
D17*
X46190000Y-85460000D03*
D18*
X50000000Y-88000000D03*
D17*
X52540000Y-82920000D03*
D19*
X53810000Y-90540000D03*
X47460000Y-93080000D03*
D17*
X46190000Y-90540000D03*
X52540000Y-93080000D03*
D19*
X53810000Y-85460000D03*
X47460000Y-82920000D03*
G36*
G01*
X56235000Y-91790000D02*
X56235000Y-89290000D01*
G75*
G02*
X56285000Y-89240000I50000J0D01*
G01*
X58835000Y-89240000D01*
G75*
G02*
X58885000Y-89290000I0J-50000D01*
G01*
X58885000Y-91790000D01*
G75*
G02*
X58835000Y-91840000I-50000J0D01*
G01*
X56285000Y-91840000D01*
G75*
G02*
X56235000Y-91790000I0J50000D01*
G01*
G37*
G36*
G01*
X42385000Y-94330000D02*
X42385000Y-91830000D01*
G75*
G02*
X42435000Y-91780000I50000J0D01*
G01*
X44985000Y-91780000D01*
G75*
G02*
X45035000Y-91830000I0J-50000D01*
G01*
X45035000Y-94330000D01*
G75*
G02*
X44985000Y-94380000I-50000J0D01*
G01*
X42435000Y-94380000D01*
G75*
G02*
X42385000Y-94330000I0J50000D01*
G01*
G37*
%TD*%
D16*
%TO.C,K3*%
X44920000Y-107000000D03*
X55080000Y-107000000D03*
D17*
X46190000Y-104460000D03*
D18*
X50000000Y-107000000D03*
D17*
X52540000Y-101920000D03*
D19*
X53810000Y-109540000D03*
X47460000Y-112080000D03*
D17*
X46190000Y-109540000D03*
X52540000Y-112080000D03*
D19*
X53810000Y-104460000D03*
X47460000Y-101920000D03*
G36*
G01*
X56235000Y-110790000D02*
X56235000Y-108290000D01*
G75*
G02*
X56285000Y-108240000I50000J0D01*
G01*
X58835000Y-108240000D01*
G75*
G02*
X58885000Y-108290000I0J-50000D01*
G01*
X58885000Y-110790000D01*
G75*
G02*
X58835000Y-110840000I-50000J0D01*
G01*
X56285000Y-110840000D01*
G75*
G02*
X56235000Y-110790000I0J50000D01*
G01*
G37*
G36*
G01*
X42385000Y-113330000D02*
X42385000Y-110830000D01*
G75*
G02*
X42435000Y-110780000I50000J0D01*
G01*
X44985000Y-110780000D01*
G75*
G02*
X45035000Y-110830000I0J-50000D01*
G01*
X45035000Y-113330000D01*
G75*
G02*
X44985000Y-113380000I-50000J0D01*
G01*
X42435000Y-113380000D01*
G75*
G02*
X42385000Y-113330000I0J50000D01*
G01*
G37*
%TD*%
D16*
%TO.C,K4*%
X63920000Y-69000000D03*
X74080000Y-69000000D03*
D17*
X65190000Y-66460000D03*
D18*
X69000000Y-69000000D03*
D17*
X71540000Y-63920000D03*
D19*
X72810000Y-71540000D03*
X66460000Y-74080000D03*
D17*
X65190000Y-71540000D03*
X71540000Y-74080000D03*
D19*
X72810000Y-66460000D03*
X66460000Y-63920000D03*
G36*
G01*
X75235000Y-72790000D02*
X75235000Y-70290000D01*
G75*
G02*
X75285000Y-70240000I50000J0D01*
G01*
X77835000Y-70240000D01*
G75*
G02*
X77885000Y-70290000I0J-50000D01*
G01*
X77885000Y-72790000D01*
G75*
G02*
X77835000Y-72840000I-50000J0D01*
G01*
X75285000Y-72840000D01*
G75*
G02*
X75235000Y-72790000I0J50000D01*
G01*
G37*
G36*
G01*
X61385000Y-75330000D02*
X61385000Y-72830000D01*
G75*
G02*
X61435000Y-72780000I50000J0D01*
G01*
X63985000Y-72780000D01*
G75*
G02*
X64035000Y-72830000I0J-50000D01*
G01*
X64035000Y-75330000D01*
G75*
G02*
X63985000Y-75380000I-50000J0D01*
G01*
X61435000Y-75380000D01*
G75*
G02*
X61385000Y-75330000I0J50000D01*
G01*
G37*
%TD*%
D16*
%TO.C,K5*%
X63920000Y-88000000D03*
X74080000Y-88000000D03*
D17*
X65190000Y-85460000D03*
D18*
X69000000Y-88000000D03*
D17*
X71540000Y-82920000D03*
D19*
X72810000Y-90540000D03*
X66460000Y-93080000D03*
D17*
X65190000Y-90540000D03*
X71540000Y-93080000D03*
D19*
X72810000Y-85460000D03*
X66460000Y-82920000D03*
G36*
G01*
X75235000Y-91790000D02*
X75235000Y-89290000D01*
G75*
G02*
X75285000Y-89240000I50000J0D01*
G01*
X77835000Y-89240000D01*
G75*
G02*
X77885000Y-89290000I0J-50000D01*
G01*
X77885000Y-91790000D01*
G75*
G02*
X77835000Y-91840000I-50000J0D01*
G01*
X75285000Y-91840000D01*
G75*
G02*
X75235000Y-91790000I0J50000D01*
G01*
G37*
G36*
G01*
X61385000Y-94330000D02*
X61385000Y-91830000D01*
G75*
G02*
X61435000Y-91780000I50000J0D01*
G01*
X63985000Y-91780000D01*
G75*
G02*
X64035000Y-91830000I0J-50000D01*
G01*
X64035000Y-94330000D01*
G75*
G02*
X63985000Y-94380000I-50000J0D01*
G01*
X61435000Y-94380000D01*
G75*
G02*
X61385000Y-94330000I0J50000D01*
G01*
G37*
%TD*%
D16*
%TO.C,K6*%
X63920000Y-107000000D03*
X74080000Y-107000000D03*
D17*
X65190000Y-104460000D03*
D18*
X69000000Y-107000000D03*
D17*
X71540000Y-101920000D03*
D19*
X72810000Y-109540000D03*
X66460000Y-112080000D03*
D17*
X65190000Y-109540000D03*
X71540000Y-112080000D03*
D19*
X72810000Y-104460000D03*
X66460000Y-101920000D03*
G36*
G01*
X75235000Y-110790000D02*
X75235000Y-108290000D01*
G75*
G02*
X75285000Y-108240000I50000J0D01*
G01*
X77835000Y-108240000D01*
G75*
G02*
X77885000Y-108290000I0J-50000D01*
G01*
X77885000Y-110790000D01*
G75*
G02*
X77835000Y-110840000I-50000J0D01*
G01*
X75285000Y-110840000D01*
G75*
G02*
X75235000Y-110790000I0J50000D01*
G01*
G37*
G36*
G01*
X61385000Y-113330000D02*
X61385000Y-110830000D01*
G75*
G02*
X61435000Y-110780000I50000J0D01*
G01*
X63985000Y-110780000D01*
G75*
G02*
X64035000Y-110830000I0J-50000D01*
G01*
X64035000Y-113330000D01*
G75*
G02*
X63985000Y-113380000I-50000J0D01*
G01*
X61435000Y-113380000D01*
G75*
G02*
X61385000Y-113330000I0J50000D01*
G01*
G37*
%TD*%
D16*
%TO.C,K7*%
X82920000Y-59500000D03*
X93080000Y-59500000D03*
D17*
X84190000Y-56960000D03*
D18*
X88000000Y-59500000D03*
D17*
X90540000Y-54420000D03*
D19*
X91810000Y-62040000D03*
X85460000Y-64580000D03*
D17*
X84190000Y-62040000D03*
X90540000Y-64580000D03*
D19*
X91810000Y-56960000D03*
X85460000Y-54420000D03*
G36*
G01*
X94235000Y-63290000D02*
X94235000Y-60790000D01*
G75*
G02*
X94285000Y-60740000I50000J0D01*
G01*
X96835000Y-60740000D01*
G75*
G02*
X96885000Y-60790000I0J-50000D01*
G01*
X96885000Y-63290000D01*
G75*
G02*
X96835000Y-63340000I-50000J0D01*
G01*
X94285000Y-63340000D01*
G75*
G02*
X94235000Y-63290000I0J50000D01*
G01*
G37*
G36*
G01*
X80385000Y-65830000D02*
X80385000Y-63330000D01*
G75*
G02*
X80435000Y-63280000I50000J0D01*
G01*
X82985000Y-63280000D01*
G75*
G02*
X83035000Y-63330000I0J-50000D01*
G01*
X83035000Y-65830000D01*
G75*
G02*
X82985000Y-65880000I-50000J0D01*
G01*
X80435000Y-65880000D01*
G75*
G02*
X80385000Y-65830000I0J50000D01*
G01*
G37*
%TD*%
D16*
%TO.C,K8*%
X82920000Y-78500000D03*
X93080000Y-78500000D03*
D17*
X84190000Y-75960000D03*
D18*
X88000000Y-78500000D03*
D17*
X90540000Y-73420000D03*
D19*
X91810000Y-81040000D03*
X85460000Y-83580000D03*
D17*
X84190000Y-81040000D03*
X90540000Y-83580000D03*
D19*
X91810000Y-75960000D03*
X85460000Y-73420000D03*
G36*
G01*
X94235000Y-82290000D02*
X94235000Y-79790000D01*
G75*
G02*
X94285000Y-79740000I50000J0D01*
G01*
X96835000Y-79740000D01*
G75*
G02*
X96885000Y-79790000I0J-50000D01*
G01*
X96885000Y-82290000D01*
G75*
G02*
X96835000Y-82340000I-50000J0D01*
G01*
X94285000Y-82340000D01*
G75*
G02*
X94235000Y-82290000I0J50000D01*
G01*
G37*
G36*
G01*
X80385000Y-84830000D02*
X80385000Y-82330000D01*
G75*
G02*
X80435000Y-82280000I50000J0D01*
G01*
X82985000Y-82280000D01*
G75*
G02*
X83035000Y-82330000I0J-50000D01*
G01*
X83035000Y-84830000D01*
G75*
G02*
X82985000Y-84880000I-50000J0D01*
G01*
X80435000Y-84880000D01*
G75*
G02*
X80385000Y-84830000I0J50000D01*
G01*
G37*
%TD*%
D16*
%TO.C,K9*%
X82920000Y-97500000D03*
X93080000Y-97500000D03*
D17*
X84190000Y-94960000D03*
D18*
X88000000Y-97500000D03*
D17*
X90540000Y-92420000D03*
D19*
X91810000Y-100040000D03*
X85460000Y-102580000D03*
D17*
X84190000Y-100040000D03*
X90540000Y-102580000D03*
D19*
X91810000Y-94960000D03*
X85460000Y-92420000D03*
G36*
G01*
X94235000Y-101290000D02*
X94235000Y-98790000D01*
G75*
G02*
X94285000Y-98740000I50000J0D01*
G01*
X96835000Y-98740000D01*
G75*
G02*
X96885000Y-98790000I0J-50000D01*
G01*
X96885000Y-101290000D01*
G75*
G02*
X96835000Y-101340000I-50000J0D01*
G01*
X94285000Y-101340000D01*
G75*
G02*
X94235000Y-101290000I0J50000D01*
G01*
G37*
G36*
G01*
X80385000Y-103830000D02*
X80385000Y-101330000D01*
G75*
G02*
X80435000Y-101280000I50000J0D01*
G01*
X82985000Y-101280000D01*
G75*
G02*
X83035000Y-101330000I0J-50000D01*
G01*
X83035000Y-103830000D01*
G75*
G02*
X82985000Y-103880000I-50000J0D01*
G01*
X80435000Y-103880000D01*
G75*
G02*
X80385000Y-103830000I0J50000D01*
G01*
G37*
%TD*%
D16*
%TO.C,K10*%
X101920000Y-54750000D03*
X112080000Y-54750000D03*
D17*
X103190000Y-52210000D03*
D18*
X107000000Y-54750000D03*
D17*
X109540000Y-49670000D03*
D19*
X110810000Y-57290000D03*
X104460000Y-59830000D03*
D17*
X103190000Y-57290000D03*
X109540000Y-59830000D03*
D19*
X110810000Y-52210000D03*
X104460000Y-49670000D03*
G36*
G01*
X113235000Y-58540000D02*
X113235000Y-56040000D01*
G75*
G02*
X113285000Y-55990000I50000J0D01*
G01*
X115835000Y-55990000D01*
G75*
G02*
X115885000Y-56040000I0J-50000D01*
G01*
X115885000Y-58540000D01*
G75*
G02*
X115835000Y-58590000I-50000J0D01*
G01*
X113285000Y-58590000D01*
G75*
G02*
X113235000Y-58540000I0J50000D01*
G01*
G37*
G36*
G01*
X99385000Y-61080000D02*
X99385000Y-58580000D01*
G75*
G02*
X99435000Y-58530000I50000J0D01*
G01*
X101985000Y-58530000D01*
G75*
G02*
X102035000Y-58580000I0J-50000D01*
G01*
X102035000Y-61080000D01*
G75*
G02*
X101985000Y-61130000I-50000J0D01*
G01*
X99435000Y-61130000D01*
G75*
G02*
X99385000Y-61080000I0J50000D01*
G01*
G37*
%TD*%
D16*
%TO.C,K11*%
X101920000Y-73750000D03*
X112080000Y-73750000D03*
D17*
X103190000Y-71210000D03*
D18*
X107000000Y-73750000D03*
D17*
X109540000Y-68670000D03*
D19*
X110810000Y-76290000D03*
X104460000Y-78830000D03*
D17*
X103190000Y-76290000D03*
X109540000Y-78830000D03*
D19*
X110810000Y-71210000D03*
X104460000Y-68670000D03*
G36*
G01*
X113235000Y-77540000D02*
X113235000Y-75040000D01*
G75*
G02*
X113285000Y-74990000I50000J0D01*
G01*
X115835000Y-74990000D01*
G75*
G02*
X115885000Y-75040000I0J-50000D01*
G01*
X115885000Y-77540000D01*
G75*
G02*
X115835000Y-77590000I-50000J0D01*
G01*
X113285000Y-77590000D01*
G75*
G02*
X113235000Y-77540000I0J50000D01*
G01*
G37*
G36*
G01*
X99385000Y-80080000D02*
X99385000Y-77580000D01*
G75*
G02*
X99435000Y-77530000I50000J0D01*
G01*
X101985000Y-77530000D01*
G75*
G02*
X102035000Y-77580000I0J-50000D01*
G01*
X102035000Y-80080000D01*
G75*
G02*
X101985000Y-80130000I-50000J0D01*
G01*
X99435000Y-80130000D01*
G75*
G02*
X99385000Y-80080000I0J50000D01*
G01*
G37*
%TD*%
D16*
%TO.C,K12*%
X101920000Y-92750000D03*
X112080000Y-92750000D03*
D17*
X103190000Y-90210000D03*
D18*
X107000000Y-92750000D03*
D17*
X109540000Y-87670000D03*
D19*
X110810000Y-95290000D03*
X104460000Y-97830000D03*
D17*
X103190000Y-95290000D03*
X109540000Y-97830000D03*
D19*
X110810000Y-90210000D03*
X104460000Y-87670000D03*
G36*
G01*
X113235000Y-96540000D02*
X113235000Y-94040000D01*
G75*
G02*
X113285000Y-93990000I50000J0D01*
G01*
X115835000Y-93990000D01*
G75*
G02*
X115885000Y-94040000I0J-50000D01*
G01*
X115885000Y-96540000D01*
G75*
G02*
X115835000Y-96590000I-50000J0D01*
G01*
X113285000Y-96590000D01*
G75*
G02*
X113235000Y-96540000I0J50000D01*
G01*
G37*
G36*
G01*
X99385000Y-99080000D02*
X99385000Y-96580000D01*
G75*
G02*
X99435000Y-96530000I50000J0D01*
G01*
X101985000Y-96530000D01*
G75*
G02*
X102035000Y-96580000I0J-50000D01*
G01*
X102035000Y-99080000D01*
G75*
G02*
X101985000Y-99130000I-50000J0D01*
G01*
X99435000Y-99130000D01*
G75*
G02*
X99385000Y-99080000I0J50000D01*
G01*
G37*
%TD*%
D16*
%TO.C,K13*%
X111420000Y-116500000D03*
X121580000Y-116500000D03*
D17*
X112690000Y-113960000D03*
D18*
X116500000Y-116500000D03*
D17*
X119040000Y-111420000D03*
D19*
X120310000Y-119040000D03*
X113960000Y-121580000D03*
D17*
X112690000Y-119040000D03*
X119040000Y-121580000D03*
D19*
X120310000Y-113960000D03*
X113960000Y-111420000D03*
G36*
G01*
X122735000Y-120290000D02*
X122735000Y-117790000D01*
G75*
G02*
X122785000Y-117740000I50000J0D01*
G01*
X125335000Y-117740000D01*
G75*
G02*
X125385000Y-117790000I0J-50000D01*
G01*
X125385000Y-120290000D01*
G75*
G02*
X125335000Y-120340000I-50000J0D01*
G01*
X122785000Y-120340000D01*
G75*
G02*
X122735000Y-120290000I0J50000D01*
G01*
G37*
G36*
G01*
X108885000Y-122830000D02*
X108885000Y-120330000D01*
G75*
G02*
X108935000Y-120280000I50000J0D01*
G01*
X111485000Y-120280000D01*
G75*
G02*
X111535000Y-120330000I0J-50000D01*
G01*
X111535000Y-122830000D01*
G75*
G02*
X111485000Y-122880000I-50000J0D01*
G01*
X108935000Y-122880000D01*
G75*
G02*
X108885000Y-122830000I0J50000D01*
G01*
G37*
%TD*%
D16*
%TO.C,K14*%
X120920000Y-59500000D03*
X131080000Y-59500000D03*
D17*
X122190000Y-56960000D03*
D18*
X126000000Y-59500000D03*
D17*
X128540000Y-54420000D03*
D19*
X129810000Y-62040000D03*
X123460000Y-64580000D03*
D17*
X122190000Y-62040000D03*
X128540000Y-64580000D03*
D19*
X129810000Y-56960000D03*
X123460000Y-54420000D03*
G36*
G01*
X132235000Y-63290000D02*
X132235000Y-60790000D01*
G75*
G02*
X132285000Y-60740000I50000J0D01*
G01*
X134835000Y-60740000D01*
G75*
G02*
X134885000Y-60790000I0J-50000D01*
G01*
X134885000Y-63290000D01*
G75*
G02*
X134835000Y-63340000I-50000J0D01*
G01*
X132285000Y-63340000D01*
G75*
G02*
X132235000Y-63290000I0J50000D01*
G01*
G37*
G36*
G01*
X118385000Y-65830000D02*
X118385000Y-63330000D01*
G75*
G02*
X118435000Y-63280000I50000J0D01*
G01*
X120985000Y-63280000D01*
G75*
G02*
X121035000Y-63330000I0J-50000D01*
G01*
X121035000Y-65830000D01*
G75*
G02*
X120985000Y-65880000I-50000J0D01*
G01*
X118435000Y-65880000D01*
G75*
G02*
X118385000Y-65830000I0J50000D01*
G01*
G37*
%TD*%
D16*
%TO.C,K15*%
X120920000Y-78500000D03*
X131080000Y-78500000D03*
D17*
X122190000Y-75960000D03*
D18*
X126000000Y-78500000D03*
D17*
X128540000Y-73420000D03*
D19*
X129810000Y-81040000D03*
X123460000Y-83580000D03*
D17*
X122190000Y-81040000D03*
X128540000Y-83580000D03*
D19*
X129810000Y-75960000D03*
X123460000Y-73420000D03*
G36*
G01*
X132235000Y-82290000D02*
X132235000Y-79790000D01*
G75*
G02*
X132285000Y-79740000I50000J0D01*
G01*
X134835000Y-79740000D01*
G75*
G02*
X134885000Y-79790000I0J-50000D01*
G01*
X134885000Y-82290000D01*
G75*
G02*
X134835000Y-82340000I-50000J0D01*
G01*
X132285000Y-82340000D01*
G75*
G02*
X132235000Y-82290000I0J50000D01*
G01*
G37*
G36*
G01*
X118385000Y-84830000D02*
X118385000Y-82330000D01*
G75*
G02*
X118435000Y-82280000I50000J0D01*
G01*
X120985000Y-82280000D01*
G75*
G02*
X121035000Y-82330000I0J-50000D01*
G01*
X121035000Y-84830000D01*
G75*
G02*
X120985000Y-84880000I-50000J0D01*
G01*
X118435000Y-84880000D01*
G75*
G02*
X118385000Y-84830000I0J50000D01*
G01*
G37*
%TD*%
D16*
%TO.C,K16*%
X120920000Y-97500000D03*
X131080000Y-97500000D03*
D17*
X122190000Y-94960000D03*
D18*
X126000000Y-97500000D03*
D17*
X128540000Y-92420000D03*
D19*
X129810000Y-100040000D03*
X123460000Y-102580000D03*
D17*
X122190000Y-100040000D03*
X128540000Y-102580000D03*
D19*
X129810000Y-94960000D03*
X123460000Y-92420000D03*
G36*
G01*
X132235000Y-101290000D02*
X132235000Y-98790000D01*
G75*
G02*
X132285000Y-98740000I50000J0D01*
G01*
X134835000Y-98740000D01*
G75*
G02*
X134885000Y-98790000I0J-50000D01*
G01*
X134885000Y-101290000D01*
G75*
G02*
X134835000Y-101340000I-50000J0D01*
G01*
X132285000Y-101340000D01*
G75*
G02*
X132235000Y-101290000I0J50000D01*
G01*
G37*
G36*
G01*
X118385000Y-103830000D02*
X118385000Y-101330000D01*
G75*
G02*
X118435000Y-101280000I50000J0D01*
G01*
X120985000Y-101280000D01*
G75*
G02*
X121035000Y-101330000I0J-50000D01*
G01*
X121035000Y-103830000D01*
G75*
G02*
X120985000Y-103880000I-50000J0D01*
G01*
X118435000Y-103880000D01*
G75*
G02*
X118385000Y-103830000I0J50000D01*
G01*
G37*
%TD*%
D16*
%TO.C,K17*%
X132124097Y-117888199D03*
X141937903Y-120517801D03*
D17*
X134008223Y-115763448D03*
D18*
X137031000Y-119203000D03*
D17*
X140799252Y-114953497D03*
D19*
X140053777Y-122642552D03*
X133262748Y-123452503D03*
D17*
X132693422Y-120670351D03*
X138169651Y-124767304D03*
D19*
X141368578Y-117735649D03*
X135892349Y-113638696D03*
G36*
G01*
X142072624Y-124477596D02*
X142719671Y-122062781D01*
G75*
G02*
X142780908Y-122027426I48296J-12941D01*
G01*
X145244019Y-122687415D01*
G75*
G02*
X145279374Y-122748652I-12941J-48296D01*
G01*
X144632327Y-125163467D01*
G75*
G02*
X144571090Y-125198822I-48296J12941D01*
G01*
X142107979Y-124538833D01*
G75*
G02*
X142072624Y-124477596I12941J48296D01*
G01*
G37*
G36*
G01*
X128037151Y-123346403D02*
X128684198Y-120931588D01*
G75*
G02*
X128745435Y-120896233I48296J-12941D01*
G01*
X131208546Y-121556222D01*
G75*
G02*
X131243901Y-121617459I-12941J-48296D01*
G01*
X130596854Y-124032274D01*
G75*
G02*
X130535617Y-124067629I-48296J12941D01*
G01*
X128072506Y-123407640D01*
G75*
G02*
X128037151Y-123346403I12941J48296D01*
G01*
G37*
%TD*%
D16*
%TO.C,K18*%
X139920000Y-61875000D03*
X150080000Y-61875000D03*
D17*
X141190000Y-59335000D03*
D18*
X145000000Y-61875000D03*
D17*
X147540000Y-56795000D03*
D19*
X148810000Y-64415000D03*
X142460000Y-66955000D03*
D17*
X141190000Y-64415000D03*
X147540000Y-66955000D03*
D19*
X148810000Y-59335000D03*
X142460000Y-56795000D03*
G36*
G01*
X151235000Y-65665000D02*
X151235000Y-63165000D01*
G75*
G02*
X151285000Y-63115000I50000J0D01*
G01*
X153835000Y-63115000D01*
G75*
G02*
X153885000Y-63165000I0J-50000D01*
G01*
X153885000Y-65665000D01*
G75*
G02*
X153835000Y-65715000I-50000J0D01*
G01*
X151285000Y-65715000D01*
G75*
G02*
X151235000Y-65665000I0J50000D01*
G01*
G37*
G36*
G01*
X137385000Y-68205000D02*
X137385000Y-65705000D01*
G75*
G02*
X137435000Y-65655000I50000J0D01*
G01*
X139985000Y-65655000D01*
G75*
G02*
X140035000Y-65705000I0J-50000D01*
G01*
X140035000Y-68205000D01*
G75*
G02*
X139985000Y-68255000I-50000J0D01*
G01*
X137435000Y-68255000D01*
G75*
G02*
X137385000Y-68205000I0J50000D01*
G01*
G37*
%TD*%
D16*
%TO.C,K19*%
X139920000Y-80875000D03*
X150080000Y-80875000D03*
D17*
X141190000Y-78335000D03*
D18*
X145000000Y-80875000D03*
D17*
X147540000Y-75795000D03*
D19*
X148810000Y-83415000D03*
X142460000Y-85955000D03*
D17*
X141190000Y-83415000D03*
X147540000Y-85955000D03*
D19*
X148810000Y-78335000D03*
X142460000Y-75795000D03*
G36*
G01*
X151235000Y-84665000D02*
X151235000Y-82165000D01*
G75*
G02*
X151285000Y-82115000I50000J0D01*
G01*
X153835000Y-82115000D01*
G75*
G02*
X153885000Y-82165000I0J-50000D01*
G01*
X153885000Y-84665000D01*
G75*
G02*
X153835000Y-84715000I-50000J0D01*
G01*
X151285000Y-84715000D01*
G75*
G02*
X151235000Y-84665000I0J50000D01*
G01*
G37*
G36*
G01*
X137385000Y-87205000D02*
X137385000Y-84705000D01*
G75*
G02*
X137435000Y-84655000I50000J0D01*
G01*
X139985000Y-84655000D01*
G75*
G02*
X140035000Y-84705000I0J-50000D01*
G01*
X140035000Y-87205000D01*
G75*
G02*
X139985000Y-87255000I-50000J0D01*
G01*
X137435000Y-87255000D01*
G75*
G02*
X137385000Y-87205000I0J50000D01*
G01*
G37*
%TD*%
D16*
%TO.C,K20*%
X139920000Y-99875000D03*
X150080000Y-99875000D03*
D17*
X141190000Y-97335000D03*
D18*
X145000000Y-99875000D03*
D17*
X147540000Y-94795000D03*
D19*
X148810000Y-102415000D03*
X142460000Y-104955000D03*
D17*
X141190000Y-102415000D03*
X147540000Y-104955000D03*
D19*
X148810000Y-97335000D03*
X142460000Y-94795000D03*
G36*
G01*
X151235000Y-103665000D02*
X151235000Y-101165000D01*
G75*
G02*
X151285000Y-101115000I50000J0D01*
G01*
X153835000Y-101115000D01*
G75*
G02*
X153885000Y-101165000I0J-50000D01*
G01*
X153885000Y-103665000D01*
G75*
G02*
X153835000Y-103715000I-50000J0D01*
G01*
X151285000Y-103715000D01*
G75*
G02*
X151235000Y-103665000I0J50000D01*
G01*
G37*
G36*
G01*
X137385000Y-106205000D02*
X137385000Y-103705000D01*
G75*
G02*
X137435000Y-103655000I50000J0D01*
G01*
X139985000Y-103655000D01*
G75*
G02*
X140035000Y-103705000I0J-50000D01*
G01*
X140035000Y-106205000D01*
G75*
G02*
X139985000Y-106255000I-50000J0D01*
G01*
X137435000Y-106255000D01*
G75*
G02*
X137385000Y-106205000I0J50000D01*
G01*
G37*
%TD*%
D16*
%TO.C,K21*%
X154138591Y-120474000D03*
X162937409Y-125554000D03*
D17*
X156508443Y-118909295D03*
D18*
X158538000Y-123014000D03*
D17*
X163277705Y-119884591D03*
D19*
X160567557Y-127118705D03*
X153798295Y-126143409D03*
D17*
X153968443Y-123308705D03*
X158197705Y-128683409D03*
D19*
X163107557Y-122719295D03*
X158878295Y-117344591D03*
G36*
G01*
X162042669Y-129413737D02*
X163292669Y-127248673D01*
G75*
G02*
X163360970Y-127230372I43301J-25000D01*
G01*
X165569334Y-128505372D01*
G75*
G02*
X165587635Y-128573673I-25000J-43301D01*
G01*
X164337635Y-130738737D01*
G75*
G02*
X164269334Y-130757038I-43301J25000D01*
G01*
X162060970Y-129482038D01*
G75*
G02*
X162042669Y-129413737I25000J43301D01*
G01*
G37*
G36*
G01*
X148778217Y-124688441D02*
X150028217Y-122523377D01*
G75*
G02*
X150096518Y-122505076I43301J-25000D01*
G01*
X152304882Y-123780076D01*
G75*
G02*
X152323183Y-123848377I-25000J-43301D01*
G01*
X151073183Y-126013441D01*
G75*
G02*
X151004882Y-126031742I-43301J25000D01*
G01*
X148796518Y-124756742D01*
G75*
G02*
X148778217Y-124688441I25000J43301D01*
G01*
G37*
%TD*%
%TO.C,U2*%
G36*
G01*
X98595000Y-120032000D02*
X98595000Y-119782000D01*
G75*
G02*
X98720000Y-119657000I125000J0D01*
G01*
X100045000Y-119657000D01*
G75*
G02*
X100170000Y-119782000I0J-125000D01*
G01*
X100170000Y-120032000D01*
G75*
G02*
X100045000Y-120157000I-125000J0D01*
G01*
X98720000Y-120157000D01*
G75*
G02*
X98595000Y-120032000I0J125000D01*
G01*
G37*
G36*
G01*
X98595000Y-119382000D02*
X98595000Y-119132000D01*
G75*
G02*
X98720000Y-119007000I125000J0D01*
G01*
X100045000Y-119007000D01*
G75*
G02*
X100170000Y-119132000I0J-125000D01*
G01*
X100170000Y-119382000D01*
G75*
G02*
X100045000Y-119507000I-125000J0D01*
G01*
X98720000Y-119507000D01*
G75*
G02*
X98595000Y-119382000I0J125000D01*
G01*
G37*
G36*
G01*
X98595000Y-118732000D02*
X98595000Y-118482000D01*
G75*
G02*
X98720000Y-118357000I125000J0D01*
G01*
X100045000Y-118357000D01*
G75*
G02*
X100170000Y-118482000I0J-125000D01*
G01*
X100170000Y-118732000D01*
G75*
G02*
X100045000Y-118857000I-125000J0D01*
G01*
X98720000Y-118857000D01*
G75*
G02*
X98595000Y-118732000I0J125000D01*
G01*
G37*
G36*
G01*
X98595000Y-118082000D02*
X98595000Y-117832000D01*
G75*
G02*
X98720000Y-117707000I125000J0D01*
G01*
X100045000Y-117707000D01*
G75*
G02*
X100170000Y-117832000I0J-125000D01*
G01*
X100170000Y-118082000D01*
G75*
G02*
X100045000Y-118207000I-125000J0D01*
G01*
X98720000Y-118207000D01*
G75*
G02*
X98595000Y-118082000I0J125000D01*
G01*
G37*
G36*
G01*
X98595000Y-117432000D02*
X98595000Y-117182000D01*
G75*
G02*
X98720000Y-117057000I125000J0D01*
G01*
X100045000Y-117057000D01*
G75*
G02*
X100170000Y-117182000I0J-125000D01*
G01*
X100170000Y-117432000D01*
G75*
G02*
X100045000Y-117557000I-125000J0D01*
G01*
X98720000Y-117557000D01*
G75*
G02*
X98595000Y-117432000I0J125000D01*
G01*
G37*
G36*
G01*
X98595000Y-116782000D02*
X98595000Y-116532000D01*
G75*
G02*
X98720000Y-116407000I125000J0D01*
G01*
X100045000Y-116407000D01*
G75*
G02*
X100170000Y-116532000I0J-125000D01*
G01*
X100170000Y-116782000D01*
G75*
G02*
X100045000Y-116907000I-125000J0D01*
G01*
X98720000Y-116907000D01*
G75*
G02*
X98595000Y-116782000I0J125000D01*
G01*
G37*
G36*
G01*
X98595000Y-116132000D02*
X98595000Y-115882000D01*
G75*
G02*
X98720000Y-115757000I125000J0D01*
G01*
X100045000Y-115757000D01*
G75*
G02*
X100170000Y-115882000I0J-125000D01*
G01*
X100170000Y-116132000D01*
G75*
G02*
X100045000Y-116257000I-125000J0D01*
G01*
X98720000Y-116257000D01*
G75*
G02*
X98595000Y-116132000I0J125000D01*
G01*
G37*
G36*
G01*
X98595000Y-115482000D02*
X98595000Y-115232000D01*
G75*
G02*
X98720000Y-115107000I125000J0D01*
G01*
X100045000Y-115107000D01*
G75*
G02*
X100170000Y-115232000I0J-125000D01*
G01*
X100170000Y-115482000D01*
G75*
G02*
X100045000Y-115607000I-125000J0D01*
G01*
X98720000Y-115607000D01*
G75*
G02*
X98595000Y-115482000I0J125000D01*
G01*
G37*
G36*
G01*
X98595000Y-114832000D02*
X98595000Y-114582000D01*
G75*
G02*
X98720000Y-114457000I125000J0D01*
G01*
X100045000Y-114457000D01*
G75*
G02*
X100170000Y-114582000I0J-125000D01*
G01*
X100170000Y-114832000D01*
G75*
G02*
X100045000Y-114957000I-125000J0D01*
G01*
X98720000Y-114957000D01*
G75*
G02*
X98595000Y-114832000I0J125000D01*
G01*
G37*
G36*
G01*
X98595000Y-114182000D02*
X98595000Y-113932000D01*
G75*
G02*
X98720000Y-113807000I125000J0D01*
G01*
X100045000Y-113807000D01*
G75*
G02*
X100170000Y-113932000I0J-125000D01*
G01*
X100170000Y-114182000D01*
G75*
G02*
X100045000Y-114307000I-125000J0D01*
G01*
X98720000Y-114307000D01*
G75*
G02*
X98595000Y-114182000I0J125000D01*
G01*
G37*
G36*
G01*
X98595000Y-113532000D02*
X98595000Y-113282000D01*
G75*
G02*
X98720000Y-113157000I125000J0D01*
G01*
X100045000Y-113157000D01*
G75*
G02*
X100170000Y-113282000I0J-125000D01*
G01*
X100170000Y-113532000D01*
G75*
G02*
X100045000Y-113657000I-125000J0D01*
G01*
X98720000Y-113657000D01*
G75*
G02*
X98595000Y-113532000I0J125000D01*
G01*
G37*
G36*
G01*
X98595000Y-112882000D02*
X98595000Y-112632000D01*
G75*
G02*
X98720000Y-112507000I125000J0D01*
G01*
X100045000Y-112507000D01*
G75*
G02*
X100170000Y-112632000I0J-125000D01*
G01*
X100170000Y-112882000D01*
G75*
G02*
X100045000Y-113007000I-125000J0D01*
G01*
X98720000Y-113007000D01*
G75*
G02*
X98595000Y-112882000I0J125000D01*
G01*
G37*
G36*
G01*
X92870000Y-112882000D02*
X92870000Y-112632000D01*
G75*
G02*
X92995000Y-112507000I125000J0D01*
G01*
X94320000Y-112507000D01*
G75*
G02*
X94445000Y-112632000I0J-125000D01*
G01*
X94445000Y-112882000D01*
G75*
G02*
X94320000Y-113007000I-125000J0D01*
G01*
X92995000Y-113007000D01*
G75*
G02*
X92870000Y-112882000I0J125000D01*
G01*
G37*
G36*
G01*
X92870000Y-113532000D02*
X92870000Y-113282000D01*
G75*
G02*
X92995000Y-113157000I125000J0D01*
G01*
X94320000Y-113157000D01*
G75*
G02*
X94445000Y-113282000I0J-125000D01*
G01*
X94445000Y-113532000D01*
G75*
G02*
X94320000Y-113657000I-125000J0D01*
G01*
X92995000Y-113657000D01*
G75*
G02*
X92870000Y-113532000I0J125000D01*
G01*
G37*
G36*
G01*
X92870000Y-114182000D02*
X92870000Y-113932000D01*
G75*
G02*
X92995000Y-113807000I125000J0D01*
G01*
X94320000Y-113807000D01*
G75*
G02*
X94445000Y-113932000I0J-125000D01*
G01*
X94445000Y-114182000D01*
G75*
G02*
X94320000Y-114307000I-125000J0D01*
G01*
X92995000Y-114307000D01*
G75*
G02*
X92870000Y-114182000I0J125000D01*
G01*
G37*
G36*
G01*
X92870000Y-114832000D02*
X92870000Y-114582000D01*
G75*
G02*
X92995000Y-114457000I125000J0D01*
G01*
X94320000Y-114457000D01*
G75*
G02*
X94445000Y-114582000I0J-125000D01*
G01*
X94445000Y-114832000D01*
G75*
G02*
X94320000Y-114957000I-125000J0D01*
G01*
X92995000Y-114957000D01*
G75*
G02*
X92870000Y-114832000I0J125000D01*
G01*
G37*
G36*
G01*
X92870000Y-115482000D02*
X92870000Y-115232000D01*
G75*
G02*
X92995000Y-115107000I125000J0D01*
G01*
X94320000Y-115107000D01*
G75*
G02*
X94445000Y-115232000I0J-125000D01*
G01*
X94445000Y-115482000D01*
G75*
G02*
X94320000Y-115607000I-125000J0D01*
G01*
X92995000Y-115607000D01*
G75*
G02*
X92870000Y-115482000I0J125000D01*
G01*
G37*
G36*
G01*
X92870000Y-116132000D02*
X92870000Y-115882000D01*
G75*
G02*
X92995000Y-115757000I125000J0D01*
G01*
X94320000Y-115757000D01*
G75*
G02*
X94445000Y-115882000I0J-125000D01*
G01*
X94445000Y-116132000D01*
G75*
G02*
X94320000Y-116257000I-125000J0D01*
G01*
X92995000Y-116257000D01*
G75*
G02*
X92870000Y-116132000I0J125000D01*
G01*
G37*
G36*
G01*
X92870000Y-116782000D02*
X92870000Y-116532000D01*
G75*
G02*
X92995000Y-116407000I125000J0D01*
G01*
X94320000Y-116407000D01*
G75*
G02*
X94445000Y-116532000I0J-125000D01*
G01*
X94445000Y-116782000D01*
G75*
G02*
X94320000Y-116907000I-125000J0D01*
G01*
X92995000Y-116907000D01*
G75*
G02*
X92870000Y-116782000I0J125000D01*
G01*
G37*
G36*
G01*
X92870000Y-117432000D02*
X92870000Y-117182000D01*
G75*
G02*
X92995000Y-117057000I125000J0D01*
G01*
X94320000Y-117057000D01*
G75*
G02*
X94445000Y-117182000I0J-125000D01*
G01*
X94445000Y-117432000D01*
G75*
G02*
X94320000Y-117557000I-125000J0D01*
G01*
X92995000Y-117557000D01*
G75*
G02*
X92870000Y-117432000I0J125000D01*
G01*
G37*
G36*
G01*
X92870000Y-118082000D02*
X92870000Y-117832000D01*
G75*
G02*
X92995000Y-117707000I125000J0D01*
G01*
X94320000Y-117707000D01*
G75*
G02*
X94445000Y-117832000I0J-125000D01*
G01*
X94445000Y-118082000D01*
G75*
G02*
X94320000Y-118207000I-125000J0D01*
G01*
X92995000Y-118207000D01*
G75*
G02*
X92870000Y-118082000I0J125000D01*
G01*
G37*
G36*
G01*
X92870000Y-118732000D02*
X92870000Y-118482000D01*
G75*
G02*
X92995000Y-118357000I125000J0D01*
G01*
X94320000Y-118357000D01*
G75*
G02*
X94445000Y-118482000I0J-125000D01*
G01*
X94445000Y-118732000D01*
G75*
G02*
X94320000Y-118857000I-125000J0D01*
G01*
X92995000Y-118857000D01*
G75*
G02*
X92870000Y-118732000I0J125000D01*
G01*
G37*
G36*
G01*
X92870000Y-119382000D02*
X92870000Y-119132000D01*
G75*
G02*
X92995000Y-119007000I125000J0D01*
G01*
X94320000Y-119007000D01*
G75*
G02*
X94445000Y-119132000I0J-125000D01*
G01*
X94445000Y-119382000D01*
G75*
G02*
X94320000Y-119507000I-125000J0D01*
G01*
X92995000Y-119507000D01*
G75*
G02*
X92870000Y-119382000I0J125000D01*
G01*
G37*
G36*
G01*
X92870000Y-120032000D02*
X92870000Y-119782000D01*
G75*
G02*
X92995000Y-119657000I125000J0D01*
G01*
X94320000Y-119657000D01*
G75*
G02*
X94445000Y-119782000I0J-125000D01*
G01*
X94445000Y-120032000D01*
G75*
G02*
X94320000Y-120157000I-125000J0D01*
G01*
X92995000Y-120157000D01*
G75*
G02*
X92870000Y-120032000I0J125000D01*
G01*
G37*
%TD*%
M02*
